<?xml version="1.0" encoding="utf-8" standalone="yes"?>
<!DOCTYPE svg PUBLIC "-//W3C//DTD SVG 1.1//EN" "http://www.w3.org/Graphics/SVG/1.1/DTD/svg11.dtd">
<svg style="fill:none;stroke:none;fill-rule:evenodd;clip-rule:evenodd;stroke-linecap:round;stroke-linejoin:round;stroke-miterlimit:1.5;" version="1.1" xmlns="http://www.w3.org/2000/svg" xmlns:xlink="http://www.w3.org/1999/xlink" width="841" height="714" viewBox="0 0 841 714"><style class="text-font-style fontImports" data-font-family="Roboto">@import url(https://fonts.googleapis.com/css2?family=Roboto:wght@400;700&amp;amp;display=block);</style><g id="items" style="isolation: isolate"><g id="blend" style="mix-blend-mode: normal"><g id="g-root-sy_6_cu_Vector_1um5vu4th835v-fill" data-item-order="999833690" transform="translate(240.13671875, 202)"><g id="sy_6_cu_Vector_1um5vu4th835v-fill-merged" stroke="none" fill="url(#gradient-fe8884-413551779)"><g><path d="M203.864 208C203.864 202.374 203.477 196.839 202.728 191.42C201.609 183.321 199.681 175.48 197.029 167.982C191.856 153.352 183.926 140.026 173.864 128.625C156.45 108.896 132.65 94.936 105.699 89.982C98.618 88.68 91.321 88 83.864 88C56.006 88 30.365 97.493 10 113.42C18.075 54.992 68.215 10 128.864 10C144.777 10 159.967 13.098 173.864 18.723C205.588 31.564 230.57 57.578 242.029 89.982C246.455 102.498 248.864 115.968 248.864 130C248.864 143.41 246.664 156.307 242.606 168.348C237.652 183.046 229.93 196.47 220.059 208C214.85 214.085 209.042 219.642 202.728 224.58C203.477 219.161 203.864 213.626 203.864 208"></path></g></g></g><g id="g-root-sy_5_cu_Vector_18foub0th82do-fill" data-item-order="999833694" transform="translate(194, 280)"><g id="sy_5_cu_Vector_18foub0th82do-fill-merged" stroke="none" fill="url(#gradient-fcaa5f-123734360)"><g><path d="M55 208C55 213.626 55.387 219.161 56.136 224.58C28.052 202.616 10 168.416 10 130C10 91.584 28.052 57.384 56.136 35.42C76.501 19.493 102.142 10 130 10C137.457 10 144.754 10.68 151.835 11.982C178.786 16.936 202.586 30.896 220 50.625C230.062 62.026 237.992 75.352 243.165 89.982C245.817 97.48 247.745 105.321 248.864 113.42C240.132 106.591 230.43 100.945 220 96.723C212.615 93.733 204.865 91.458 196.835 89.982C189.754 88.68 182.457 88 175 88C166.829 88 158.848 88.817 151.135 90.373C124.401 95.768 100.886 110.048 83.805 130C65.847 150.976 55 178.221 55 208"></path></g></g></g><g id="g-root-sy_4_cu_Vector_13zvc6kth835x-fill" data-item-order="999833698" transform="translate(239, 358)"><g id="sy_4_cu_Vector_13zvc6kth835x-fill-merged" stroke="none" fill="url(#gradient-ffeb37-386795387)"><g><path d="M175 18.723C167.615 15.733 159.865 13.458 151.835 11.982C144.754 10.68 137.457 10 130 10C121.829 10 113.848 10.817 106.135 12.373C79.401 17.768 55.886 32.048 38.805 52C20.847 72.976 10 100.221 10 130C10 135.626 10.387 141.161 11.136 146.58C19.211 205.008 69.351 250 130 250C145.913 250 161.104 246.902 175 241.277C143.276 228.436 118.294 202.422 106.835 170.018C102.409 157.502 100 144.032 100 130C100 116.726 102.155 103.955 106.135 92.018C111.083 77.177 118.852 63.626 128.805 52C134.014 45.915 139.822 40.358 146.136 35.42C154.868 28.591 164.57 22.945 175 18.723 M175 18.723C185.43 22.945 195.132 28.591 203.864 35.42"></path></g></g></g><g id="g-root-sy_3_cu_Vector_v48bxoth83ym-fill" data-item-order="999833702" transform="translate(329, 383.419921875)"><g id="sy_3_cu_Vector_v48bxoth83ym-fill-merged" stroke="none" fill="url(#gradient-bceb57-497517668)"><g><path d="M130 224.58C114.087 224.58 98.896 221.483 85 215.857C53.276 203.016 28.294 177.002 16.835 144.598C12.408 132.082 10 118.612 10 104.58C10 91.306 12.155 78.535 16.135 66.599C21.083 51.757 28.852 38.206 38.805 26.58C44.014 20.496 49.821 14.939 56.136 10C55.387 15.42 55 20.955 55 26.58C55 32.206 55.387 37.741 56.136 43.16C57.255 51.259 59.183 59.1 61.835 66.599C67.008 81.228 74.938 94.555 85 105.955C102.414 125.685 126.214 139.644 153.165 144.598C160.246 145.9 167.543 146.58 175 146.58C202.858 146.58 228.499 137.087 248.864 121.16C240.789 179.588 190.649 224.58 130 224.58"></path></g></g></g><g id="g-root-sy_2_cu_Vector_hteangth82dr-fill" data-item-order="999833706" transform="translate(375.13671875, 305.419921875)"><g id="sy_2_cu_Vector_hteangth82dr-fill-merged" stroke="none" fill="url(#gradient-64edab-240055791)"><g><path d="M203.864 26.58C203.864 56.359 193.017 83.604 175.059 104.58C157.952 124.563 134.391 138.856 107.606 144.232C99.931 145.772 91.992 146.58 83.864 146.58C76.407 146.58 69.109 145.9 62.029 144.598C53.999 143.122 46.249 140.847 38.864 137.857C28.434 133.635 18.732 127.989 10 121.16C11.119 129.259 13.047 137.1 15.699 144.598C20.872 159.228 28.802 172.555 38.864 183.955C56.278 203.684 80.078 217.644 107.029 222.598C114.109 223.9 121.407 224.58 128.864 224.58C156.722 224.58 182.362 215.087 202.728 199.16C230.812 177.197 248.864 142.996 248.864 104.58C248.864 66.164 230.812 31.964 202.728 10C203.477 15.42 203.864 20.955 203.864 26.58"></path></g></g></g><g id="g-root-sy_1_cu_Vector_ddksj0th8360-fill" data-item-order="999833710" transform="translate(404, 202)"><defs><linearGradient id="gradient-fe8884-413551779" x2="0" y2="1"><stop offset="0" stop-color="#ffa6a3"></stop><stop offset="1" stop-color="#fd6a65"></stop></linearGradient><linearGradient id="gradient-fcaa5f-123734360" x2="0" y2="1"><stop offset="0" stop-color="#ffbf84"></stop><stop offset="1" stop-color="#f99539"></stop></linearGradient><linearGradient id="gradient-ffeb37-386795387" x2="0" y2="1"><stop offset="0" stop-color="#ffef63"></stop><stop offset="1" stop-color="#ffe60a"></stop></linearGradient><linearGradient id="gradient-bceb57-497517668" x2="0" y2="1"><stop offset="0" stop-color="#cff976"></stop><stop offset="1" stop-color="#a8dd38"></stop></linearGradient><linearGradient id="gradient-64edab-240055791" x2="0" y2="1"><stop offset="0" stop-color="#83fac1"></stop><stop offset="1" stop-color="#44e095"></stop></linearGradient><linearGradient id="gradient-4dd3ff-378786070" x2="0" y2="1"><stop offset="0" stop-color="#7fdfff"></stop><stop offset="1" stop-color="#1ac6ff"></stop></linearGradient></defs><g id="sy_1_cu_Vector_ddksj0th8360-fill-merged" stroke="none" fill="url(#gradient-4dd3ff-378786070)"><g><path d="M85 130C85 115.968 82.591 102.498 78.165 89.982C66.706 57.578 41.724 31.564 10 18.723C23.896 13.098 39.086 10 55 10C115.649 10 165.789 54.992 173.864 113.42C174.613 118.839 175 124.374 175 130C175 159.779 164.153 187.024 146.195 208C129.088 227.982 105.527 242.276 78.742 247.652C71.067 249.192 63.128 250 55 250C47.543 250 40.246 249.32 33.165 248.018C25.135 246.542 17.385 244.267 10 241.277C20.43 237.055 30.132 231.409 38.864 224.58C45.179 219.642 50.986 214.085 56.195 208C66.066 196.47 73.788 183.046 78.742 168.348C82.8 156.307 85 143.41 85 130"></path></g></g></g><g id="g-root-ic_2_146431oth9i4u-fill" data-item-order="1000000000" transform="translate(362, 230)"></g><g id="g-root-tx_addressi_zs606kth83rj-fill" data-item-order="1000000000" transform="translate(584, 224.361328125)"><g id="tx_addressi_zs606kth83rj-fill-merged" stroke="none" fill="#484848"><g><text style="font: 15px Roboto, sans-serif; white-space: pre;" font-size="15px" font-family="Roboto, sans-serif"><tspan x="12" y="30.6" dominant-baseline="ideographic">Addressing digital </tspan><tspan x="12" y="48.6" dominant-baseline="ideographic">commerce and retail </tspan><tspan x="12" y="66.6" dominant-baseline="ideographic">challenges</tspan></text></g></g></g><g id="g-root-tx_providin_hun8toth84ju-fill" data-item-order="1000000000" transform="translate(68, 224)"><g id="tx_providin_hun8toth84ju-fill-merged" stroke="none" fill="#484848"><g><text style="font: 15px Roboto, sans-serif; white-space: pre;" font-size="15px" font-family="Roboto, sans-serif"><tspan x="13.79" y="30.6" dominant-baseline="ideographic">Providing solutions for </tspan><tspan x="15.29" y="48.6" dominant-baseline="ideographic">the food and beverage </tspan><tspan x="110.38" y="66.6" dominant-baseline="ideographic">industry</tspan></text></g></g></g><g id="g-root-ic_plan_1lza830tgsmiw-fill" data-item-order="1000000000" transform="translate(249, 314)"></g><g id="g-root-ic_cart_18hl8bwth3w93-fill" data-item-order="1000000000" transform="translate(494, 302)"></g><g id="g-root-tx_travelho_1upa99oth9hqb-fill" data-item-order="1000000000" transform="translate(62, 338)"><g id="tx_travelho_1upa99oth9hqb-fill-merged" stroke="none" fill="#de8431"><g><text style="font: bold 20px Roboto, sans-serif; white-space: pre;" font-weight="bold" font-size="20px" font-family="Roboto, sans-serif"><tspan x="42.49" y="34" dominant-baseline="ideographic">Travel &amp; </tspan><tspan x="18.88" y="58" dominant-baseline="ideographic">Hospitality</tspan></text></g></g></g><g id="g-root-tx_realesta_1414acsth9iq2-fill" data-item-order="1000000000" transform="translate(639.076171875, 338)"><g id="tx_realesta_1414acsth9iq2-fill-merged" stroke="none" fill="#3cc583"><g><text style="font: bold 20px Roboto, sans-serif; white-space: pre;" font-weight="bold" font-size="20px" font-family="Roboto, sans-serif"><tspan x="12" y="34" dominant-baseline="ideographic">Real Estate &amp; </tspan><tspan x="12" y="58" dominant-baseline="ideographic">Construction</tspan></text></g></g></g><g id="g-root-tx_foodbeve_v984mkth9hj9-fill" data-item-order="1000000000" transform="translate(68.076171875, 170)"><g id="tx_foodbeve_v984mkth9hj9-fill-merged" stroke="none" fill="#e55753"><g><text style="font: bold 20px Roboto, sans-serif; white-space: pre;" font-weight="bold" font-size="20px" font-family="Roboto, sans-serif"><tspan x="12.13" y="34" dominant-baseline="ideographic">Food &amp; Beverage</tspan></text></g></g></g><g id="g-root-tx_ecommerc_4l25poth9ij0-fill" data-item-order="1000000000" transform="translate(584, 146)"><g id="tx_ecommerc_4l25poth9ij0-fill-merged" stroke="none" fill="#1eabda"><g><text style="font: bold 20px Roboto, sans-serif; white-space: pre;" font-weight="bold" font-size="20px" font-family="Roboto, sans-serif"><tspan x="12" y="34" dominant-baseline="ideographic">E-commerce &amp; </tspan><tspan x="12" y="58" dominant-baseline="ideographic">Retail</tspan></text></g></g></g><g id="g-root-tx_catering_zn67hoth84cr-fill" data-item-order="1000000000" transform="translate(14, 428)"><g id="tx_catering_zn67hoth84cr-fill-merged" stroke="none" fill="#484848"><g><text style="font: 15px Roboto, sans-serif; white-space: pre;" font-size="15px" font-family="Roboto, sans-serif"><tspan x="21.88" y="27.6" dominant-baseline="ideographic">Catering to travel and </tspan><tspan x="50.89" y="45.6" dominant-baseline="ideographic">hospitality needs</tspan></text></g></g></g><g id="g-root-tx_navigati_djtje4th84qu-fill" data-item-order="1000000000" transform="translate(639, 416.12890625)"><g id="tx_navigati_djtje4th84qu-fill-merged" stroke="none" fill="#484848"><g><text style="font: 15px Roboto, sans-serif; white-space: pre;" font-size="15px" font-family="Roboto, sans-serif"><tspan x="12" y="30.6" dominant-baseline="ideographic">Navigating property and </tspan><tspan x="12" y="48.6" dominant-baseline="ideographic">construction </tspan><tspan x="12" y="66.6" dominant-baseline="ideographic">complexities</tspan></text></g></g></g><g id="g-root-ic_star_4kgne4tgptzi-fill" data-item-order="1000000000" transform="translate(506, 440)"></g><g id="g-root-tx_supporti_742ukth845p-fill" data-item-order="1000000000" transform="translate(584, 620)"><g id="tx_supporti_742ukth845p-fill-merged" stroke="none" fill="#484848"><g><text style="font: 15px Roboto, sans-serif; white-space: pre;" font-size="15px" font-family="Roboto, sans-serif"><tspan x="12" y="27.6" dominant-baseline="ideographic">Supporting health and </tspan><tspan x="12" y="45.6" dominant-baseline="ideographic">wellness initiatives</tspan></text></g></g></g><g id="g-root-tx_edteched_1lqivl8th9i4g-fill" data-item-order="1000000000" transform="translate(140, 530)"><g id="tx_edteched_1lqivl8th9i4g-fill-merged" stroke="none" fill="#e0cb15"><g><text style="font: bold 20px Roboto, sans-serif; white-space: pre;" font-weight="bold" font-size="20px" font-family="Roboto, sans-serif"><tspan x="19.63" y="34" dominant-baseline="ideographic">EdTech &amp; </tspan><tspan x="14.79" y="58" dominant-baseline="ideographic">Education</tspan></text></g></g></g><g id="g-root-ic_puls_18k31iktgy7t2-fill" data-item-order="1000000000" transform="translate(387, 518)"></g><g id="g-root-tx_healthwe_hteangth9gjl-fill" data-item-order="1000000000" transform="translate(584, 554)"><g id="tx_healthwe_hteangth9gjl-fill-merged" stroke="none" fill="#92bd39"><g><text style="font: bold 20px Roboto, sans-serif; white-space: pre;" font-weight="bold" font-size="20px" font-family="Roboto, sans-serif"><tspan x="12" y="34" dominant-baseline="ideographic">Health &amp; Wellness</tspan></text></g></g></g><g id="g-root-tx_enhancin_1hfp65oth845o-fill" data-item-order="1000000000" transform="translate(68, 620)"><g id="tx_enhancin_1hfp65oth845o-fill-merged" stroke="none" fill="#484848"><g><text style="font: 15px Roboto, sans-serif; white-space: pre;" font-size="15px" font-family="Roboto, sans-serif"><tspan x="24.66" y="27.6" dominant-baseline="ideographic">Enhancing educational </tspan><tspan x="16.64" y="45.6" dominant-baseline="ideographic">technology and learning</tspan></text></g></g></g><g id="g-root-tx_tailored_8xraekth83y9-fill" data-item-order="1000000000" transform="translate(194, 38)"><g id="tx_tailored_8xraekth83y9-fill-merged" stroke="none" fill="#484848"><g><text style="font: bold 25px Roboto, sans-serif; white-space: pre;" font-weight="bold" font-size="25px" font-family="Roboto, sans-serif"><tspan x="16.55" y="42.6" dominant-baseline="ideographic">Tailored Solutions Across Industries</tspan></text></g></g></g><g id="g-root-ic_lapt_141rjvwtgzmkq-fill" data-item-order="1000000000" transform="translate(260, 458)"></g><g id="g-root-sy_6_cu_Vector_1um5vu4th835v-stroke" data-item-order="999833690" transform="translate(240.13671875, 202)"><g id="sy_6_cu_Vector_1um5vu4th835v-stroke" fill="none" stroke-linecap="round" stroke-linejoin="round" stroke-miterlimit="4" stroke="#484848" stroke-width="2"><g><path d="M 203.8639 208C 203.8639 202.3745 203.4768 196.8394 202.7278 191.4199C 201.6085 183.321 199.6809 175.4802 197.0292 167.9817C 191.8558 153.3524 183.926 140.0256 173.8639 128.6253C 156.4502 108.8957 132.6502 94.9362 105.6986 89.9817C 98.6183 88.6801 91.3205 88 83.8639 88C 56.006 88 30.3653 97.4927 10 113.4199C 18.0751 54.9922 68.2152 10 128.8639 10C 144.7774 10 159.9674 13.0976 173.8639 18.7228C 205.5877 31.5642 230.5701 57.5779 242.0292 89.9817C 246.4554 102.498 248.8639 115.9677 248.8639 130C 248.8639 143.4103 246.6642 156.3068 242.6058 168.3483C 237.6523 183.046 229.9299 196.47 220.0589 208C 214.8498 214.0846 209.0424 219.6417 202.7278 224.5801C 203.4768 219.1606 203.8639 213.6255 203.8639 208Z"></path></g></g></g><g id="g-root-sy_5_cu_Vector_18foub0th82do-stroke" data-item-order="999833694" transform="translate(194, 280)"><g id="sy_5_cu_Vector_18foub0th82do-stroke" fill="none" stroke-linecap="round" stroke-linejoin="round" stroke-miterlimit="4" stroke="#484848" stroke-width="2"><g><path d="M 55 208C 55 213.6255 55.3871 219.1606 56.1361 224.5801C 28.052 202.6164 10 168.4163 10 130C 10 91.5837 28.052 57.3836 56.1361 35.4199C 76.5014 19.4927 102.1421 10 130 10C 137.4566 10 144.7544 10.6801 151.8347 11.9817C 178.7863 16.9362 202.5863 30.8957 220 50.6253C 230.0621 62.0256 237.9919 75.3524 243.1653 89.9817C 245.817 97.4802 247.7446 105.321 248.8639 113.4199C 240.132 106.5909 230.4304 100.9449 220 96.7227C 212.615 93.7334 204.8647 91.4578 196.8347 89.9817C 189.7544 88.6801 182.4566 88 175 88C 166.8286 88 158.8479 88.8168 151.1351 90.3731C 124.401 95.7677 100.8861 110.0481 83.805 130C 65.8468 150.9763 55 178.2215 55 208Z"></path></g></g></g><g id="g-root-sy_4_cu_Vector_13zvc6kth835x-stroke" data-item-order="999833698" transform="translate(239, 358)"><g id="sy_4_cu_Vector_13zvc6kth835x-stroke" fill="none" stroke-linecap="round" stroke-linejoin="round" stroke-miterlimit="4" stroke="#484848" stroke-width="2"><g><path d="M 175 18.7227C 167.615 15.7334 159.8647 13.4578 151.8347 11.9817C 144.7544 10.6801 137.4566 10 130 10C 121.8286 10 113.8479 10.8168 106.1351 12.3731C 79.401 17.7677 55.8861 32.0481 38.805 52C 20.8468 72.9763 10 100.2215 10 130C 10 135.6255 10.3871 141.1606 11.1361 146.5801C 19.2112 205.0078 69.3513 250 130 250C 145.9135 250 161.1035 246.9024 175 241.2773C 143.2762 228.4358 118.2937 202.4221 106.8347 170.0183C 102.4085 157.502 100 144.0323 100 130C 100 116.7257 102.1553 103.9549 106.1351 92.0183C 111.0833 77.1772 118.8519 63.6258 128.805 52C 134.0141 45.9154 139.8215 40.3583 146.1361 35.4198C 154.868 28.5909 164.5696 22.9449 175 18.7227ZM 175 18.7227C 185.4304 22.9449 195.132 28.5909 203.8639 35.4199"></path></g></g></g><g id="g-root-sy_3_cu_Vector_v48bxoth83ym-stroke" data-item-order="999833702" transform="translate(329, 383.419921875)"><g id="sy_3_cu_Vector_v48bxoth83ym-stroke" fill="none" stroke-linecap="round" stroke-linejoin="round" stroke-miterlimit="4" stroke="#484848" stroke-width="2"><g><path d="M 130 224.5802C 114.0865 224.5802 98.8965 221.4826 85 215.8574C 53.2762 203.0159 28.2937 177.0023 16.8347 144.5985C 12.4085 132.0821 10 118.6124 10 104.5802C 10 91.3059 12.1553 78.535 16.1351 66.5985C 21.0833 51.7574 28.8519 38.206 38.805 26.5802C 44.0141 20.4956 49.8215 14.9385 56.1361 10C 55.3871 15.4195 55 20.9546 55 26.5802C 55 32.2057 55.3871 37.7408 56.1361 43.1603C 57.2554 51.2592 59.183 59.0999 61.8347 66.5985C 67.0081 81.2278 74.9379 94.5546 85 105.9549C 102.4137 125.6845 126.2137 139.6439 153.1653 144.5985C 160.2456 145.9 167.5434 146.5802 175 146.5802C 202.8579 146.5802 228.4985 137.0875 248.8639 121.1603C 240.7888 179.588 190.6487 224.5802 130 224.5802Z"></path></g></g></g><g id="g-root-sy_2_cu_Vector_hteangth82dr-stroke" data-item-order="999833706" transform="translate(375.13671875, 305.419921875)"><g id="sy_2_cu_Vector_hteangth82dr-stroke" fill="none" stroke-linecap="round" stroke-linejoin="round" stroke-miterlimit="4" stroke="#484848" stroke-width="2"><g><path d="M 203.8639 26.5801C 203.8639 56.3587 193.0171 83.6038 175.0589 104.5801C 157.9516 124.5626 134.3908 138.8562 107.6058 144.2318C 99.9312 145.772 91.9919 146.5801 83.8639 146.5801C 76.4072 146.5801 69.1094 145.9 62.0292 144.5984C 53.9991 143.1223 46.2488 140.8467 38.8639 137.8574C 28.4335 133.6353 18.7318 127.9892 10 121.1603C 11.1193 129.2592 13.0469 137.0999 15.6986 144.5984C 20.872 159.2277 28.8018 172.5546 38.8639 183.9549C 56.2776 203.6844 80.0776 217.6439 107.0292 222.5984C 114.1094 223.9 121.4072 224.5801 128.8639 224.5801C 156.7217 224.5801 182.3624 215.0875 202.7278 199.1603C 230.8118 177.1965 248.8639 142.9964 248.8639 104.5801C 248.8639 66.1638 230.8118 31.9638 202.7278 10C 203.4768 15.4195 203.8639 20.9546 203.8639 26.5801Z"></path></g></g></g><g id="g-root-sy_1_cu_Vector_ddksj0th8360-stroke" data-item-order="999833710" transform="translate(404, 202)"><g id="sy_1_cu_Vector_ddksj0th8360-stroke" fill="none" stroke-linecap="round" stroke-linejoin="round" stroke-miterlimit="4" stroke="#484848" stroke-width="2"><g><path d="M 85 130C 85 115.9677 82.5915 102.498 78.1653 89.9817C 66.7062 57.5779 41.7238 31.5642 10 18.7228C 23.8965 13.0976 39.0865 10 55 10C 115.6487 10 165.7888 54.9922 173.8639 113.4199C 174.6129 118.8394 175 124.3745 175 130C 175 159.7785 164.1532 187.0237 146.195 208C 129.0877 227.9824 105.527 242.2761 78.7419 247.6517C 71.0673 249.1919 63.128 250 55 250C 47.5434 250 40.2456 249.3199 33.1653 248.0183C 25.1352 246.5421 17.385 244.2666 10 241.2772C 20.4304 237.0551 30.132 231.4091 38.8639 224.5801C 45.1785 219.6417 50.9859 214.0846 56.195 208C 66.066 196.47 73.7885 183.046 78.7419 168.3483C 82.8003 156.3068 85 143.4103 85 130Z"></path></g></g></g><g id="g-root-ic_2_146431oth9i4u-stroke" data-item-order="1000000000" transform="translate(362, 230)"><g id="ic_2_146431oth9i4u-stroke" fill="none" stroke-linecap="round" stroke-linejoin="round" stroke-miterlimit="4" stroke="#484848" stroke-width="2"><g><path d="M 20.1 28.5L 20.1 40.5M 25.1 11.5L 25.1 23.5C 25.1 26.299999 22.9 28.5 20.1 28.5C 17.299999 28.5 15.1 26.299999 15.1 23.5L 15.1 11.5M 48.099998 40.299999L 48.099998 11.5C 48.099998 11.5 39.900002 18.9 39.099998 30.299999C 39.099998 30.9 39.299999 31.299999 39.700001 31.700001C 40.099998 32.099998 40.700001 32.299999 41.099998 32.299999L 48.099998 32.299999M 10 10M 14.05844 56.5L 11.65845 45.900002C 11.25845 44.299999 11.658438 42.700001 12.45844 41.299999L 15.05844 37.099998C 15.65844 36.099998 16.85844 35.5 18.058441 35.5L 20.058441 35.5M 20.10154 44.5L 20.10154 40.5C 20.10154 38.5 21.70154 36.900002 23.70154 36.900002C 25.70154 36.900002 27.30154 38.5 27.30154 40.5L 27.30154 47.700001C 27.30154 49.5 26.90152 51.299999 25.90152 52.900002L 24.30154 55.5L 24.30154 56.5M 10 10M 53.941601 56.5L 56.341599 45.900002C 56.7416 44.299999 56.341599 42.700001 55.541599 41.299999L 52.941601 37.099998C 52.341599 36.099998 51.141602 35.5 49.941601 35.5L 48.341599 35.5M 48.101601 44.5L 48.101601 40.5C 48.101601 38.5 46.501598 36.900002 44.501598 36.900002C 42.501598 36.900002 40.9016 38.5 40.9016 40.5L 40.9016 47.700001C 40.9016 49.5 41.301598 51.299999 42.301601 52.900002L 43.9016 55.5L 43.9016 56.5"></path></g></g></g><g id="g-root-tx_addressi_zs606kth83rj-stroke" data-item-order="1000000000" transform="translate(584, 224.361328125)"></g><g id="g-root-tx_providin_hun8toth84ju-stroke" data-item-order="1000000000" transform="translate(68, 224)"></g><g id="g-root-ic_plan_1lza830tgsmiw-stroke" data-item-order="1000000000" transform="translate(249, 314)"><g id="ic_plan_1lza830tgsmiw-stroke" fill="none" stroke-linecap="round" stroke-linejoin="round" stroke-miterlimit="4" stroke="#484848" stroke-width="2"><g><path d="M 31 44L 37 44M 34 16C 35.104568 16 36 16.895432 36 18L 39.799999 18C 40.19207 18.000399 40.547737 18.229881 40.709686 18.586941C 40.871635 18.944004 40.809982 19.362762 40.552002 19.658001L 36.739998 24L 40.683998 44.112C 41.125626 46.764614 39.956844 49.427368 37.705414 50.8979C 35.453987 52.368431 32.546013 52.368431 30.294586 50.8979C 28.043159 49.427368 26.874376 46.764614 27.316 44.112003L 31.261999 24L 27.462 19.66C 27.204321 19.366758 27.140839 18.950378 27.299423 18.593674C 27.458008 18.236965 27.809664 18.00515 28.200001 18L 32 18C 32 16.895432 32.895432 16 34 16ZM 27.757999 41.862C 27.757999 41.862 14 31 12.862 30C 11.724 29 11.862 27.4 13.354 27.4L 29.658001 32.183998M 36.998001 44L 30.997999 44M 40.242001 41.862C 40.242001 41.862 54 31 55.139999 30C 56.279999 29 56.139999 27.4 54.647999 27.4L 38.341999 32.178001"></path></g></g></g><g id="g-root-ic_cart_18hl8bwth3w93-stroke" data-item-order="1000000000" transform="translate(494, 302)"><g id="ic_cart_18hl8bwth3w93-stroke" fill="none" stroke-linecap="round" stroke-linejoin="round" stroke-miterlimit="4" stroke="#484848" stroke-width="2"><g><path d="M 57 57L 48 48M 44.094002 52.799999C 44.247486 53.172306 44.609318 53.416222 45.012012 53.418842C 45.414707 53.421463 45.779682 53.182278 45.938 52.812L 48 48L 52.812 45.938C 53.182278 45.779682 53.421463 45.414707 53.418842 45.012012C 53.416222 44.609318 53.172306 44.247486 52.799999 44.094002L 40.220001 38.914001C 39.846512 38.75975 39.416901 38.84544 39.131172 39.131172C 38.84544 39.416901 38.75975 39.846512 38.914001 40.220001ZM 30 37C 30 38.104568 30.89543 39 32 39C 33.104568 39 34 38.104568 34 37C 34 35.895432 33.104568 35 32 35C 30.89543 35 30 35.895432 30 37ZM 22 37C 22 38.104568 22.895432 39 24 39C 25.104568 39 26 38.104568 26 37C 26 35.895432 25.104568 35 24 35C 22.895432 35 22 35.895432 22 37ZM 38 18L 33 33L 23 33L 20 23L 36.334 23M 35.542 45.773998C 27.540775 48.891232 18.451937 45.918385 13.83942 38.675362C 9.226904 31.432333 10.377058 21.939075 16.585789 16.007095C 22.794521 10.075114 32.330326 9.358733 39.355652 14.296501C 46.380978 19.234268 48.936584 28.449129 45.458004 36.300003"></path></g></g></g><g id="g-root-tx_travelho_1upa99oth9hqb-stroke" data-item-order="1000000000" transform="translate(62, 338)"></g><g id="g-root-tx_realesta_1414acsth9iq2-stroke" data-item-order="1000000000" transform="translate(639.076171875, 338)"></g><g id="g-root-tx_foodbeve_v984mkth9hj9-stroke" data-item-order="1000000000" transform="translate(68.076171875, 170)"></g><g id="g-root-tx_ecommerc_4l25poth9ij0-stroke" data-item-order="1000000000" transform="translate(584, 146)"></g><g id="g-root-tx_catering_zn67hoth84cr-stroke" data-item-order="1000000000" transform="translate(14, 428)"></g><g id="g-root-tx_navigati_djtje4th84qu-stroke" data-item-order="1000000000" transform="translate(639, 416.12890625)"></g><g id="g-root-ic_star_4kgne4tgptzi-stroke" data-item-order="1000000000" transform="translate(506, 440)"><g id="ic_star_4kgne4tgptzi-stroke" fill="none" stroke-linecap="round" stroke-linejoin="round" stroke-miterlimit="4" stroke="#484848" stroke-width="2"><g><path d="M 10 10M 46.411999 33.860001L 49.490002 41L 55.48 41C 56.09959 40.976574 56.667263 41.344429 56.899006 41.919525C 57.130749 42.494625 56.976727 43.153294 56.514 43.566002L 51.313999 48.198002L 54.194 54.824001C 54.453163 55.445415 54.287247 56.162895 53.781586 56.607445C 53.275921 57.051998 52.543098 57.124634 51.960003 56.788002L 45 52.866001L 38.040001 56.787998C 37.456905 57.124634 36.724083 57.051998 36.218422 56.607445C 35.712753 56.162895 35.546837 55.445415 35.806 54.824001L 38.686001 48.198002L 33.486 43.566002C 33.02182 43.154949 32.86594 42.496593 33.096519 41.921043C 33.327095 41.345497 33.894413 40.976868 34.514 41L 40.514 41L 43.596001 33.860001C 43.875305 33.342522 44.415958 33.019958 45.004002 33.019958C 45.592041 33.019958 46.132694 33.342522 46.411999 33.860001ZM 25 57L 11 57L 11 29C 11 27.89543 11.895431 27 13 27L 23 27C 24.104568 27 25 27.89543 25 29ZM 23 27L 23 19.65C 23.000999 19.253292 23.236408 18.894684 23.6 18.736L 39.599998 11.624C 39.908749 11.48925 40.264595 11.519007 40.546673 11.703165C 40.828751 11.887322 40.999153 12.201128 41 12.538L 41 29M 21 57L 21 52C 21 51.447716 20.552284 51 20 51L 16 51C 15.447716 51 15 51.447716 15 52L 15 57M 10.998 33L 18.998001 33M 34.998001 21L 40.998001 21M 30.997999 25L 40.998001 25M 10.998 37L 14.998 37M 26.997999 17.222L 26.997999 11M 24.998001 57L 30.997999 57"></path></g></g></g><g id="g-root-tx_supporti_742ukth845p-stroke" data-item-order="1000000000" transform="translate(584, 620)"></g><g id="g-root-tx_edteched_1lqivl8th9i4g-stroke" data-item-order="1000000000" transform="translate(140, 530)"></g><g id="g-root-ic_puls_18k31iktgy7t2-stroke" data-item-order="1000000000" transform="translate(387, 518)"><g id="ic_puls_18k31iktgy7t2-stroke" fill="none" stroke-linecap="round" stroke-linejoin="round" stroke-miterlimit="4" stroke="#484848" stroke-width="2"><g><path d="M 10 10M 34.014 52.548L 15.15022 35.461201C 4.89814 25.20912 19.9687 5.52514 34.014 21.450039C 48.059399 5.52514 63.0616 25.277481 52.8778 35.461201L 34.014 52.548ZM 21.001961 32.91L 27.32066 32.91L 31.111799 27.85498L 36.166801 36.701202L 39.958 31.6462L 46.997002 31.6462"></path></g></g></g><g id="g-root-tx_healthwe_hteangth9gjl-stroke" data-item-order="1000000000" transform="translate(584, 554)"></g><g id="g-root-tx_enhancin_1hfp65oth845o-stroke" data-item-order="1000000000" transform="translate(68, 620)"></g><g id="g-root-tx_tailored_8xraekth83y9-stroke" data-item-order="1000000000" transform="translate(194, 38)"></g><g id="g-root-ic_lapt_141rjvwtgzmkq-stroke" data-item-order="1000000000" transform="translate(260, 458)"><g id="ic_lapt_141rjvwtgzmkq-stroke" fill="none" stroke-linecap="round" stroke-linejoin="round" stroke-miterlimit="4" stroke="#484848" stroke-width="2"><g><path d="M 19 16.001999L 49 16.001999C 49 16.001999 51 16.001999 51 18.001999L 51 38.001999C 51 38.001999 51 40.001999 49 40.001999L 19 40.001999C 19 40.001999 17 40.001999 17 38.001999L 17 18.001999C 17 18.001999 17 16.001999 19 16.001999M 18.818001 40C 18.094055 39.998123 17.4228 40.378223 17.052 41L 12.282 49C 11.921551 49.624073 11.924736 50.393814 12.290339 51.014885C 12.655943 51.635952 13.327415 52.012295 14.048 52L 53.952 52C 54.672585 52.012295 55.344059 51.635952 55.70966 51.014885C 56.075264 50.393814 56.078449 49.624073 55.717999 49L 50.948002 41C 50.577202 40.378223 49.905945 39.998123 49.181999 40M 29 48.001999L 39 48.001999M 34 23.4C 34 23.4 35.84 20.818001 41.966 20.552C 42.237057 20.542778 42.500233 20.644051 42.69519 20.832596C 42.890144 21.021141 43.000156 21.280787 43 21.552L 43 32.152C 43.000069 32.698097 42.562027 33.143265 42.015999 33.152C 35.849998 33.400002 34 36 34 36L 34 23.4C 34 23.4 32.16 20.818001 26.034 20.552C 25.762943 20.542778 25.499765 20.644051 25.30481 20.832596C 25.109856 21.021141 24.999844 21.280787 25 21.552L 25 32.152C 24.999931 32.698097 25.437973 33.143265 25.984001 33.152C 32.150002 33.400002 34 36 34 36"></path></g></g></g></g></g><path id="w1lqjhq4uuxn9m" d="M65.283 12.757a.35.35 0 0 0 .584.157l5.203-5.141-6.183 3.523.396 1.461zm-2.216-11.7a.35.35 0 0 0-.522.305v3.111l3.276-1.868-2.754-1.548zm3.728 2.105l-4.25 2.421v2.445l6.391-3.644-2.141-1.222zm4.708 3.303a.35.35 0 0 0 0-.609l-1.592-.9-7.365 4.199v1.782a.35.35 0 0 0 .523.305l8.435-4.777z M44.542 2.513c0-.433.355-.783.792-.783s.792.35.792.783-.355.783-.792.783-.792-.35-.792-.783zm59.171 0c0-.433.355-.783.792-.783s.792.35.792.783-.355.783-.792.783-.792-.35-.792-.783zm-85.951 7.636h-1.27v-.487c-.276.201-.864.609-1.881.609-1.202 0-2.274-.794-2.137-2.078.118-1.106 1.153-1.584 1.848-1.727l2.17-.345c0-.539-.29-.956-1.064-1.006s-1.21.305-1.571 1.017l-1.124-.605c1.218-2.631 5.029-1.764 5.029.414v4.207zm-1.27-2.86c.006.396-.062 1.112-.819 1.59-.587.37-1.841.299-1.903-.395-.049-.555.461-.791.906-.898l1.816-.297zm72.662 2.86h-1.27v-.487c-.276.201-.864.609-1.881.609-1.202 0-2.274-.794-2.137-2.078.118-1.106 1.153-1.584 1.848-1.727l2.17-.345c0-.539-.29-.956-1.064-1.006s-1.21.305-1.571 1.017l-1.124-.605c1.218-2.631 5.029-1.764 5.029.414v4.207zm-1.27-2.86c.006.396-.062 1.112-.82 1.59-.587.37-1.841.299-1.903-.395-.049-.555.461-.791.906-.898l1.816-.297zM99.096 10.149H97.85v-8.45h1.246v4.895l2.68-2.559h1.738l-2.633 2.535 2.715 3.578h-1.556l-2.077-2.707-.867.844v1.863zm6.053-6.114h-1.255v6.113h1.255V4.035zm-59.2 0h-1.255v6.113h1.255V4.035zm5.584 6.113V1.697h1.255v2.695c.361-.346 1-.485 1.47-.485 1.452 0 2.477 1.082 2.457 2.448v3.792h-1.27v-3.68c0-.408-.214-1.339-1.315-1.339-.968 0-1.342.756-1.342 1.339v3.681h-1.255zm-4.76-4.894V4.039h.621a.45.45 0 0 0 .45-.45v-.855h1.251v1.305h1.309v1.215h-1.309v3.109c0 .293.105.664.648.664.365 0 .531-.035.736-.07v1.137s-.361.113-.857.113c-1.398 0-1.777-1.051-1.777-1.788V5.254h-1.071zM36.528 4.039h-1.394l2.191 6.106h1.125l1.234-3.918 1.238 3.918h1.129l2.188-6.106h-1.383l-1.359 3.93-1.256-3.93h-1.124l-1.242 3.957-1.348-3.957zM26.212 7.141c-.02 1.566 1.187 3.129 3.223 3.129 1.566 0 2.383-.918 2.734-1.719L31.172 8c-.315.399-.801 1.094-1.738 1.094-1.145 0-1.825-.781-1.891-1.52h4.625c.074-.284.148-.995-.03-1.559-.336-1.064-1.221-2.102-2.839-2.102s-3.088 1.152-3.088 3.227zm1.363-.75h3.348c-.055-.43-.566-1.301-1.623-1.301a1.79 1.79 0 0 0-1.725 1.301zm-8.758.75c.038 1.758 1.277 3.133 3.145 3.133 1.074 0 1.723-.477 1.961-.672v.547h1.242V1.703h-1.258v2.888c-.414-.36-1.062-.68-1.93-.68-1.91 0-3.198 1.473-3.16 3.23zm1.309-.08c0 1.119.723 1.978 1.836 1.978a1.88 1.88 0 0 0 1.94-1.904c0-1.371-1.011-1.99-1.972-1.99s-1.805.798-1.805 1.916zm76.683-.028C96.771 5.275 95.532 3.9 93.664 3.9c-1.074 0-1.723.477-1.961.672v-.547h-1.242v8.22h1.258V9.583c.414.36 1.063.68 1.93.68 1.91 0 3.198-1.473 3.16-3.23zm-1.309.08c0-1.119-.723-1.978-1.836-1.978a1.88 1.88 0 0 0-1.94 1.904c0 1.371 1.011 1.99 1.972 1.99S95.5 8.231 95.5 7.113zM106.441 10.173V4.036h1.254v.382c.361-.346 1-.485 1.47-.485 1.452 0 2.477 1.082 2.457 2.448v3.792h-1.27V6.492c0-.408-.214-1.339-1.315-1.339-.969 0-1.342.756-1.342 1.339v3.681h-1.254zm-30.383-.021V1.824h1.084l4.215 5.777V1.824h1.32v8.328h-1.094l-4.207-5.796v5.796h-1.319zM5.24 10.149H4V2.377h1.014l2.664 3.597 2.654-3.592h1.03v7.766h-1.256V4.762L7.678 8.068 5.24 4.742v5.407z" transform="translate(705, 680)" fill="#80808088" stroke="none"></path></svg>