<?xml version="1.0" encoding="utf-8"?>
<!-- Generator: Adobe Illustrator 25.2.1, SVG Export Plug-In . SVG Version: 6.00 Build 0)  -->
<svg version="1.1" id="Layer_1" xmlns="http://www.w3.org/2000/svg" xmlns:xlink="http://www.w3.org/1999/xlink" x="0px" y="0px"
	 viewBox="0 0 654 456" style="enable-background:new 0 0 654 456;" xml:space="preserve">
<style type="text/css">
	.st0{fill-rule:evenodd;clip-rule:evenodd;fill:#00F97C;}
	.st1{fill-rule:evenodd;clip-rule:evenodd;fill:#B5FF00;}
	.st2{fill-rule:evenodd;clip-rule:evenodd;fill:#00C7FC;}
	.st3{fill-rule:evenodd;clip-rule:evenodd;fill:#2500FF;}
	.st4{fill-rule:evenodd;clip-rule:evenodd;fill:#FF00A4;}
	.st5{fill-rule:evenodd;clip-rule:evenodd;fill:#FF0000;}
	.st6{fill:#F4F4F4;}
	.st7{font-family:'ArialMT';}
	.st8{font-size:10px;}
	.st9{fill:#F366BB;}
	.st10{font-family:'Arial-BoldMT';}
	.st11{font-size:11.7px;}
	.st12{fill:#1AC3FB;}
	.st13{fill:#43DD93;}
	.st14{font-size:20px;}
	.st15{fill:#A6DA37;}
	.st16{fill:#8769FD;}
	.st17{fill:#FB6762;}
	.st18{fill:none;stroke:#FFFFFF;stroke-width:2;stroke-linecap:round;stroke-linejoin:round;}
	.st19{fill:none;stroke:#F4F4F4;stroke-width:2;stroke-linecap:round;stroke-linejoin:round;}
</style>
<g id="g-root-cp_1_g-1_1up9wqjrj124u-fill" transform="translate(32, 188)">
	<g id="cp_1_g-1_1up9wqjrj124u-fill-merged">
		<g>
			<path class="st0" d="M10,52c0-23.2,18.8-42,42-42h48c16.8,0,31.3,9.9,38,24.2c-4.2,0.4-8.2,1.4-12,2.9
				c-5.2-9-14.9-15.1-26.1-15.1H52c-16.6,0-30,13.4-30,30c0,16.6,13.4,30,30,30c16.1,0,32.3,0.2,48.4,0c4.2-0.1,8.2-1,11.8-2.6
				C122.7,74.7,130,64.2,130,52c0-1.2-0.1-2.3-0.2-3.4c3.6-1.6,7.6-2.5,11.8-2.6c0.3,2,0.4,4,0.4,6c0,17.6-10.8,32.6-26.1,38.9
				c-3.7,1.5-7.8,2.5-11.9,2.9c-1.3,0.1-2.7,0.2-4,0.2H52C28.8,94,10,75.2,10,52"/>
		</g>
	</g>
</g>
<g id="g-root-cp_2_g-2_142zd2zrj124v-fill" transform="translate(122, 212)">
	<g id="cp_2_g-2_142zd2zrj124v-fill-merged">
		<g>
			<path class="st1" d="M52,82c-11.2,0-20.9-6.1-26.1-15.1c-3.7,1.5-7.8,2.5-11.9,2.9C20.7,84.1,35.2,94,52,94h48
				c16.8,0,31.3-9.9,38-24.2c-4.2-0.4-8.2-1.4-12-2.9c-5.2,9-14.9,15.1-26.1,15.1H52 M10.4,58c-0.3-2-0.4-4-0.4-6
				c0-17.5,10.8-32.6,26.1-38.9c3.8-1.5,7.8-2.6,12-2.9c1.3-0.1,2.6-0.2,4-0.2h48c1.3,0,2.7,0.1,4,0.2c4.2,0.4,8.2,1.4,12,2.9
				C131.2,19.4,142,34.5,142,52c0,2-0.1,4-0.4,6c-4.2-0.1-8.2-1-11.8-2.6c0.1-1.1,0.2-2.3,0.2-3.4c0-12.2-7.3-22.7-17.8-27.4
				c-3.6-1.6-7.6-2.5-11.8-2.6c-8.1-0.1-16.3-0.1-24.4-0.1c-8.1,0-16.3,0-24.4,0.1c-4.2,0.1-8.2,1-11.8,2.6C29.3,29.3,22,39.8,22,52
				c0,1.2,0.1,2.3,0.2,3.4C18.6,57,14.6,57.9,10.4,58 M10.4,58c-0.1,0-0.3,0-0.4,0 M141.6,58c0.1,0,0.3,0,0.4,0"/>
		</g>
	</g>
</g>
<g id="g-root-cp_3_g-3_zn5uyjrj12x4-fill" transform="translate(212, 188)">
	<g id="cp_3_g-3_zn5uyjrj12x4-fill-merged">
		<g>
			<path class="st2" d="M100,22c11.2,0,20.9,6.1,26.1,15.1c3.7-1.5,7.8-2.5,11.9-2.9C131.3,19.9,116.8,10,100,10H52
				c-16.8,0-31.3,9.9-38,24.2c4.2,0.4,8.2,1.4,12,2.9C31.1,28.1,40.8,22,52,22H100 M141.6,46c0.3,2,0.4,4,0.4,6
				c0,17.5-10.8,32.6-26.1,38.9c-3.8,1.5-7.8,2.6-12,2.9c-1.3,0.1-2.6,0.2-4,0.2H52c-1.3,0-2.7-0.1-4-0.2c-4.2-0.4-8.2-1.4-12-2.9
				C20.8,84.6,10,69.5,10,52c0-2,0.1-4,0.4-6c4.2,0.1,8.2,1,11.8,2.6C22.1,49.7,22,50.8,22,52c0,12.2,7.3,22.7,17.8,27.4
				c3.6,1.6,7.6,2.5,11.8,2.6c8.1,0.1,16.3,0.1,24.4,0.1c8.1,0,16.3,0,24.4-0.1c4.2-0.1,8.2-1,11.8-2.6C122.7,74.7,130,64.2,130,52
				c0-1.2-0.1-2.3-0.2-3.4C133.4,47,137.4,46.1,141.6,46 M141.6,46c0.1,0,0.3,0,0.4,0 M10.4,46c-0.1,0-0.3,0-0.4,0"/>
		</g>
	</g>
</g>
<g id="g-root-cp_4_g-4_v7ccu3rj13pd-fill" transform="translate(302, 212)">
	<g id="cp_4_g-4_v7ccu3rj13pd-fill-merged">
		<g>
			<path class="st3" d="M52,82c-11.2,0-20.9-6.1-26.1-15.1c-3.7,1.5-7.8,2.5-11.9,2.9C20.7,84.1,35.2,94,52,94h48
				c16.8,0,31.3-9.9,38-24.2c-4.2-0.4-8.2-1.4-12-2.9c-5.2,9-14.9,15.1-26.1,15.1H52 M10.4,58c-0.3-2-0.4-4-0.4-6
				c0-17.5,10.8-32.6,26.1-38.9c3.8-1.5,7.8-2.6,12-2.9c1.3-0.1,2.6-0.2,4-0.2h48c1.3,0,2.7,0.1,4,0.2c4.2,0.4,8.2,1.4,12,2.9
				C131.2,19.4,142,34.5,142,52c0,2-0.1,4-0.4,6c-4.2-0.1-8.2-1-11.8-2.6c0.1-1.1,0.2-2.3,0.2-3.4c0-12.2-7.3-22.7-17.8-27.4
				c-3.6-1.6-7.6-2.5-11.8-2.6c-8.1-0.1-16.3-0.1-24.4-0.1c-8.1,0-16.3,0-24.4,0.1c-4.2,0.1-8.2,1-11.8,2.6C29.3,29.3,22,39.8,22,52
				c0,1.2,0.1,2.3,0.2,3.4C18.6,57,14.6,57.9,10.4,58 M10.4,58c-0.1,0-0.3,0-0.4,0 M141.6,58c0.1,0,0.3,0,0.4,0"/>
		</g>
	</g>
</g>
<g id="g-root-cp_5_g-5_mbpcl7rj14i2-fill" transform="translate(392, 188)">
	<g id="cp_5_g-5_mbpcl7rj14i2-fill-merged">
		<g>
			<path class="st4" d="M100,22c11.2,0,20.9,6.1,26.1,15.1c3.7-1.5,7.8-2.5,11.9-2.9C131.3,19.9,116.8,10,100,10H52
				c-16.8,0-31.3,9.9-38,24.2c4.2,0.4,8.2,1.4,12,2.9C31.1,28.1,40.8,22,52,22H100 M141.6,46c0.3,2,0.4,4,0.4,6
				c0,17.5-10.8,32.6-26.1,38.9c-3.8,1.5-7.8,2.6-12,2.9c-1.3,0.1-2.6,0.2-4,0.2H52c-1.3,0-2.7-0.1-4-0.2c-4.2-0.4-8.2-1.4-12-2.9
				C20.8,84.6,10,69.5,10,52c0-2,0.1-4,0.4-6c4.2,0.1,8.2,1,11.8,2.6C22.1,49.7,22,50.8,22,52c0,12.2,7.3,22.7,17.8,27.4
				c3.6,1.6,7.6,2.5,11.8,2.6c8.1,0.1,16.3,0.1,24.4,0.1c8.1,0,16.3,0,24.4-0.1c4.2-0.1,8.2-1,11.8-2.6C122.7,74.7,130,64.2,130,52
				c0-1.2-0.1-2.3-0.2-3.4C133.4,47,137.4,46.1,141.6,46 M141.6,46c0.1,0,0.3,0,0.4,0 M10.4,46c-0.1,0-0.3,0-0.4,0"/>
		</g>
	</g>
</g>
<g id="g-root-cp_6_g-6_90vbazrj12x7-fill" transform="translate(482, 212)">
	<g id="cp_6_g-6_90vbazrj12x7-fill-merged">
		<g>
			<path class="st5" d="M142,52c0,23.2-18.8,42-42,42H52c-16.8,0-31.3-9.9-38-24.2c4.2-0.4,8.2-1.4,12-2.9C31.1,75.9,40.8,82,52,82
				h48c16.6,0,30-13.4,30-30c0-16.6-13.4-30-30-30c-16.1,0-32.3-0.2-48.4,0c-4.2,0.1-8.2,1-11.8,2.6C29.3,29.3,22,39.8,22,52
				c0,1.2,0.1,2.3,0.2,3.4c-3.6,1.6-7.6,2.5-11.8,2.6c-0.3-2-0.4-4-0.4-6c0-17.6,10.8-32.6,26.1-38.9c3.7-1.5,7.8-2.5,11.9-2.9
				c1.3-0.1,2.7-0.2,4-0.2h48C123.2,10,142,28.8,142,52"/>
		</g>
	</g>
</g>
<g id="g-root-tx_skilledp_18gbbi3rj3vv1-fill" transform="translate(218, 128)">
	<g id="tx_skilledp_18gbbi3rj3vv1-fill-merged">
		<g>
			<text transform="matrix(1 0 0 1 13.46 22.8)" class="st6 st7 st8">Skilled professionals in </text>
			<text transform="matrix(1 0 0 1 20.08 34.8)" class="st6 st7 st8">SEO, PPC, and social </text>
			<text transform="matrix(1 0 0 1 53.88 46.8)" class="st6 st7 st8">media</text>
		</g>
	</g>
</g>
<g id="g-root-tx_clearmet_18hk9obrj3y15-fill" transform="translate(398, 128)">
	<g id="tx_clearmet_18hk9obrj3y15-fill-merged">
		<g>
			<text transform="matrix(1 0 0 1 13.68 22.8)" class="st6 st7 st8">Clear metrics and real-</text>
			<text transform="matrix(1 0 0 1 30.26 34.8)" class="st6 st7 st8">time insights for </text>
			<text transform="matrix(1 0 0 1 27.92 46.8)" class="st6 st7 st8">progress tracking</text>
		</g>
	</g>
</g>
<g id="g-root-tx_campaign_1ha2whnrj3w21-fill" transform="translate(44, 128)">
	<g id="tx_campaign_1ha2whnrj3w21-fill-merged">
		<g>
			<text transform="matrix(1 0 0 1 15.73 22.8)" class="st6 st7 st8">Campaigns built on </text>
			<text transform="matrix(1 0 0 1 17.44 34.8)" class="st6 st7 st8">solid research and </text>
			<text transform="matrix(1 0 0 1 43.46 46.8)" class="st6 st7 st8">insights</text>
		</g>
	</g>
</g>
<g id="g-root-tx_transpar_1lt0s1nrj3wg8-fill" transform="translate(416, 86)">
	<g id="tx_transpar_1lt0s1nrj3wg8-fill-merged">
		<g>
			<text transform="matrix(1 0 0 1 12.43 28.4)" class="st9 st10 st11">Transparent </text>
			<text transform="matrix(1 0 0 1 19.62 42.4)" class="st9 st10 st11">Reporting</text>
		</g>
	</g>
</g>
<g id="g-root-tx_expertsp_1umsd17rj3wn8-fill" transform="translate(218, 98)">
	<g id="tx_expertsp_1umsd17rj3wn8-fill-merged">
		<g>
			<text transform="matrix(1 0 0 1 15.9 29.4)" class="st12 st10 st11">Expert Specialists</text>
		</g>
	</g>
</g>
<g id="g-root-ic_pie_1lrrtvfrj2gw0-fill" transform="translate(80, 212)">
</g>
<g id="g-root-tx_datadriv_hz0kjfrj2hvs-fill" transform="translate(56, 86)">
	<g id="tx_datadriv_hz0kjfrj2hvs-fill-merged">
		<g>
			<text transform="matrix(1 0 0 1 13.07 28.4)" class="st13 st10 st11">Data-Driven </text>
			<text transform="matrix(1 0 0 1 23.32 42.4)" class="st13 st10 st11">Strategy</text>
		</g>
	</g>
</g>
<g id="g-root-ic_styl_92r01nrj14p8-fill" transform="translate(260, 212)">
</g>
<g id="g-root-tx_coremark_1qapcsbrj1538-fill" transform="translate(173, 38)">
	<g id="tx_coremark_1qapcsbrj1538-fill-merged">
		<g>
			<text transform="matrix(1 0 0 1 30.0741 35.6)" class="st6 st10 st14">Core Marketing Strategies</text>
		</g>
	</g>
</g>
<g id="g-root-ic_desk_hx524brisnwk-fill" transform="translate(440, 212)">
</g>
<g id="g-root-tx_consiste_18jfoxnrj3x1f-fill" transform="translate(488, 350)">
	<g id="tx_consiste_18jfoxnrj3x1f-fill-merged">
		<g>
			<text transform="matrix(1 0 0 1 12.95 22.8)" class="st6 st7 st8">Consistent support and </text>
			<text transform="matrix(1 0 0 1 16.2 34.8)" class="st6 st7 st8">proactive solutions as </text>
			<text transform="matrix(1 0 0 1 21.83 46.8)" class="st6 st7 st8">an extension of the </text>
			<text transform="matrix(1 0 0 1 56.81 58.8)" class="st6 st7 st8">team</text>
		</g>
	</g>
</g>
<g id="g-root-ic_2_90vksbrjaxok-fill" transform="translate(170, 236)">
</g>
<g id="g-root-ic_robo_1cxdomzriznrg-fill" transform="translate(350, 236)">
</g>
<g id="g-root-ic_acce_zoet4rrj1539-fill" transform="translate(530, 236)">
</g>
<g id="g-root-tx_roifocus_zjfd2zrj3v9e-fill" transform="translate(152, 320)">
	<g id="tx_roifocus_zjfd2zrj3v9e-fill-merged">
		<g>
			<text transform="matrix(1 0 0 1 15.47 29.4)" class="st15 st10 st11">ROI Focus</text>
		</g>
	</g>
</g>
<g id="g-root-tx_advanced_qp1b0brj3y86-fill" transform="translate(314, 320)">
	<g id="tx_advanced_qp1b0brj3y86-fill-merged">
		<g>
			<text transform="matrix(1 0 0 1 15.96 29.4)" class="st16 st10 st11">Advanced Tools</text>
		</g>
	</g>
</g>
<g id="g-root-tx_clientpa_1qa38cbrj3xu2-fill" transform="translate(488, 320)">
	<g id="tx_clientpa_1qa38cbrj3xu2-fill-merged">
		<g>
			<text transform="matrix(1 0 0 1 14.72 29.4)" class="st17 st10 st11">Client Partnership</text>
		</g>
	</g>
</g>
<g id="g-root-tx_prioriti_8x4tffrj3v9f-fill" transform="translate(128, 350)">
	<g id="tx_prioriti_8x4tffrj3v9f-fill-merged">
		<g>
			<text transform="matrix(1 0 0 1 13.5 22.8)" class="st6 st7 st8">Prioritizing meaningful </text>
			<text transform="matrix(1 0 0 1 16.53 34.8)" class="st6 st7 st8">results like leads and </text>
			<text transform="matrix(1 0 0 1 40.35 46.8)" class="st6 st7 st8">conversions</text>
		</g>
	</g>
</g>
<g id="g-root-tx_utilizin_de79q3rj3wnb-fill" transform="translate(314, 350)">
	<g id="tx_utilizin_de79q3rj3wnb-fill-merged">
		<g>
			<text transform="matrix(1 0 0 1 17.16 22.8)" class="st6 st7 st8">Utilizing the latest </text>
			<text transform="matrix(1 0 0 1 13.09 34.8)" class="st6 st7 st8">technologies to stay </text>
			<text transform="matrix(1 0 0 1 34.63 46.8)" class="st6 st7 st8">competitive</text>
		</g>
	</g>
</g>
<g id="g-root-cp_1_g-1_1up9wqjrj124u-stroke" transform="translate(32, 188)">
	<g id="cp_1_g-1_1up9wqjrj124u-stroke">
		<g>
			<path class="st18" d="M10,52c0-23.2,18.8-42,42-42h48c16.8,0,31.3,9.9,38,24.2c-4.2,0.4-8.2,1.4-12,2.9
				c-5.2-9-14.9-15.1-26.1-15.1H52c-16.6,0-30,13.4-30,30s13.4,30,30,30c16.1,0,32.3,0.2,48.4,0c4.2-0.1,8.2-1,11.8-2.6
				C122.7,74.7,130,64.2,130,52c0-1.2-0.1-2.3-0.2-3.4c3.6-1.6,7.6-2.5,11.8-2.6c0.3,2,0.4,4,0.4,6c0,17.6-10.8,32.6-26.1,38.9
				c-3.7,1.5-7.7,2.5-11.9,2.9c-1.3,0.1-2.7,0.2-4,0.2H52C28.8,94,10,75.2,10,52z"/>
		</g>
	</g>
</g>
<g id="g-root-cp_2_g-2_142zd2zrj124v-stroke" transform="translate(122, 212)">
	<g id="cp_2_g-2_142zd2zrj124v-stroke">
		<g>
			<path class="st18" d="M52,82c-11.2,0-20.9-6.1-26.1-15.1c-3.7,1.5-7.7,2.5-11.9,2.9h0C20.7,84.1,35.2,94,52,94h24h24
				c16.8,0,31.3-9.9,38-24.2h0c-4.2-0.4-8.2-1.4-11.9-2.9c-5.2,9-14.9,15.1-26.1,15.1H76H52z M10.4,58c-0.3-2-0.4-4-0.4-6
				c0-17.5,10.8-32.6,26.1-38.9c3.8-1.5,7.8-2.6,12-2.9c1.3-0.1,2.6-0.2,4-0.2h24h24c1.3,0,2.7,0.1,4,0.2c4.2,0.4,8.2,1.4,12,2.9
				C131.2,19.4,142,34.5,142,52c0,2-0.1,4-0.4,6c-4.2-0.1-8.2-1-11.8-2.6c0.1-1.1,0.2-2.3,0.2-3.4c0-12.2-7.3-22.7-17.8-27.4
				c-3.6-1.6-7.6-2.5-11.8-2.6c-8.1-0.1-16.3-0.1-24.4-0.1c-8.1,0-16.3,0-24.4,0.1c-4.2,0.1-8.2,1-11.8,2.6C29.3,29.3,22,39.8,22,52
				c0,1.2,0.1,2.3,0.2,3.4C18.6,57,14.6,57.9,10.4,58z M10.4,58c-0.1,0-0.3,0-0.4,0 M141.6,58c0.1,0,0.3,0,0.4,0"/>
		</g>
	</g>
</g>
<g id="g-root-cp_3_g-3_zn5uyjrj12x4-stroke" transform="translate(212, 188)">
	<g id="cp_3_g-3_zn5uyjrj12x4-stroke">
		<g>
			<path class="st18" d="M100,22c11.2,0,20.9,6.1,26.1,15.1c3.7-1.5,7.7-2.5,11.9-2.9h0C131.3,19.9,116.8,10,100,10H52
				c-16.8,0-31.3,9.9-38,24.2h0c4.2,0.4,8.2,1.4,11.9,2.9C31.1,28.1,40.8,22,52,22H100z M141.6,46c0.3,2,0.4,4,0.4,6
				c0,17.5-10.8,32.6-26.1,38.9c-3.8,1.5-7.8,2.6-12,2.9c-1.3,0.1-2.6,0.2-4,0.2H52c-1.3,0-2.7-0.1-4-0.2c-4.2-0.4-8.2-1.4-12-2.9
				C20.8,84.6,10,69.5,10,52c0-2,0.1-4,0.4-6c4.2,0.1,8.2,1,11.8,2.6C22.1,49.7,22,50.8,22,52c0,12.2,7.3,22.7,17.8,27.4
				c3.6,1.6,7.6,2.5,11.8,2.6c8.1,0.1,16.3,0.1,24.4,0.1c8.1,0,16.3,0,24.4-0.1c4.2-0.1,8.2-1,11.8-2.6C122.7,74.7,130,64.2,130,52
				c0-1.2-0.1-2.3-0.2-3.4C133.4,47,137.4,46.1,141.6,46z M141.6,46c0.1,0,0.3,0,0.4,0 M10.4,46c-0.1,0-0.3,0-0.4,0"/>
		</g>
	</g>
</g>
<g id="g-root-cp_4_g-4_v7ccu3rj13pd-stroke" transform="translate(302, 212)">
	<g id="cp_4_g-4_v7ccu3rj13pd-stroke">
		<g>
			<path class="st18" d="M52,82c-11.2,0-20.9-6.1-26.1-15.1c-3.7,1.5-7.7,2.5-11.9,2.9h0C20.7,84.1,35.2,94,52,94h24h24
				c16.8,0,31.3-9.9,38-24.2h0c-4.2-0.4-8.2-1.4-11.9-2.9c-5.2,9-14.9,15.1-26.1,15.1H76H52z M10.4,58c-0.3-2-0.4-4-0.4-6
				c0-17.5,10.8-32.6,26.1-38.9c3.8-1.5,7.8-2.6,12-2.9c1.3-0.1,2.6-0.2,4-0.2h24h24c1.3,0,2.7,0.1,4,0.2c4.2,0.4,8.2,1.4,12,2.9
				C131.2,19.4,142,34.5,142,52c0,2-0.1,4-0.4,6c-4.2-0.1-8.2-1-11.8-2.6c0.1-1.1,0.2-2.3,0.2-3.4c0-12.2-7.3-22.7-17.8-27.4
				c-3.6-1.6-7.6-2.5-11.8-2.6c-8.1-0.1-16.3-0.1-24.4-0.1c-8.1,0-16.3,0-24.4,0.1c-4.2,0.1-8.2,1-11.8,2.6C29.3,29.3,22,39.8,22,52
				c0,1.2,0.1,2.3,0.2,3.4C18.6,57,14.6,57.9,10.4,58z M10.4,58c-0.1,0-0.3,0-0.4,0 M141.6,58c0.1,0,0.3,0,0.4,0"/>
		</g>
	</g>
</g>
<g id="g-root-cp_5_g-5_mbpcl7rj14i2-stroke" transform="translate(392, 188)">
	<g id="cp_5_g-5_mbpcl7rj14i2-stroke">
		<g>
			<path class="st18" d="M100,22c11.2,0,20.9,6.1,26.1,15.1c3.7-1.5,7.7-2.5,11.9-2.9h0C131.3,19.9,116.8,10,100,10H52
				c-16.8,0-31.3,9.9-38,24.2h0c4.2,0.4,8.2,1.4,11.9,2.9C31.1,28.1,40.8,22,52,22H100z M141.6,46c0.3,2,0.4,4,0.4,6
				c0,17.5-10.8,32.6-26.1,38.9c-3.8,1.5-7.8,2.6-12,2.9c-1.3,0.1-2.6,0.2-4,0.2H52c-1.3,0-2.7-0.1-4-0.2c-4.2-0.4-8.2-1.4-12-2.9
				C20.8,84.6,10,69.5,10,52c0-2,0.1-4,0.4-6c4.2,0.1,8.2,1,11.8,2.6C22.1,49.7,22,50.8,22,52c0,12.2,7.3,22.7,17.8,27.4
				c3.6,1.6,7.6,2.5,11.8,2.6c8.1,0.1,16.3,0.1,24.4,0.1c8.1,0,16.3,0,24.4-0.1c4.2-0.1,8.2-1,11.8-2.6C122.7,74.7,130,64.2,130,52
				c0-1.2-0.1-2.3-0.2-3.4C133.4,47,137.4,46.1,141.6,46z M141.6,46c0.1,0,0.3,0,0.4,0 M10.4,46c-0.1,0-0.3,0-0.4,0"/>
		</g>
	</g>
</g>
<g id="g-root-cp_6_g-6_90vbazrj12x7-stroke" transform="translate(482, 212)">
	<g id="cp_6_g-6_90vbazrj12x7-stroke">
		<g>
			<path class="st18" d="M142,52c0,23.2-18.8,42-42,42H52c-16.8,0-31.3-9.9-38-24.2c4.2-0.4,8.2-1.4,12-2.9C31.1,75.9,40.8,82,52,82
				h48c16.6,0,30-13.4,30-30s-13.4-30-30-30c-16.1,0-32.3-0.2-48.4,0c-4.2,0.1-8.2,1-11.8,2.6C29.3,29.3,22,39.8,22,52
				c0,1.2,0.1,2.3,0.2,3.4c-3.6,1.6-7.6,2.5-11.8,2.6c-0.3-2-0.4-4-0.4-6c0-17.6,10.8-32.6,26.1-38.9c3.7-1.5,7.7-2.5,11.9-2.9
				c1.3-0.1,2.7-0.2,4-0.2h48C123.2,10,142,28.8,142,52z"/>
		</g>
	</g>
</g>
<g id="g-root-tx_skilledp_18gbbi3rj3vv1-stroke" transform="translate(218, 128)">
</g>
<g id="g-root-tx_clearmet_18hk9obrj3y15-stroke" transform="translate(398, 128)">
</g>
<g id="g-root-tx_campaign_1ha2whnrj3w21-stroke" transform="translate(44, 128)">
</g>
<g id="g-root-tx_transpar_1lt0s1nrj3wg8-stroke" transform="translate(416, 86)">
</g>
<g id="g-root-tx_expertsp_1umsd17rj3wn8-stroke" transform="translate(218, 98)">
</g>
<g id="g-root-ic_pie_1lrrtvfrj2gw0-stroke" transform="translate(80, 212)">
	<g id="ic_pie_1lrrtvfrj2gw0-stroke">
		<g>
			<path class="st19" d="M11.1,28c0,9.3,7.6,16.9,16.9,16.9S44.9,37.3,44.9,28S37.3,11.1,28,11.1S11.1,18.7,11.1,28 M22.8,28
				c0,2.9,2.4,5.2,5.3,5.2c2.9,0,5.2-2.4,5.2-5.2c0-2.9-2.4-5.2-5.2-5.2C25.1,22.8,22.8,25.1,22.8,28 M28,11.1v11.6 M44.9,28H33.2
				 M16.1,39.9l8.2-8.2"/>
		</g>
	</g>
</g>
<g id="g-root-tx_datadriv_hz0kjfrj2hvs-stroke" transform="translate(56, 86)">
</g>
<g id="g-root-ic_styl_92r01nrj14p8-stroke" transform="translate(260, 212)">
	<g id="ic_styl_92r01nrj14p8-stroke">
		<g>
			<path class="st19" d="M30,13.1c-5.2,0-8.2,2.5-9.2,10c-1,7.6-1.3,9-1.9,13.5s-3.8,6.3-6.5,6.3 M15.7,22.5H27 M32.5,22.5l8.6,16.9
				 M28.4,39.4l15.2-16.9"/>
		</g>
	</g>
</g>
<g id="g-root-tx_coremark_1qapcsbrj1538-stroke" transform="translate(173, 38)">
</g>
<g id="g-root-ic_desk_hx524brisnwk-stroke" transform="translate(440, 212)">
	<g id="ic_desk_hx524brisnwk-stroke">
		<g>
			<path class="st19" d="M15.2,22.8c0,2.9,2.4,5.2,5.2,5.2s5.2-2.4,5.2-5.2s-2.4-5.2-5.2-5.2S15.2,19.9,15.2,22.8 M20.5,17.5v5.2
				h5.2 M23.5,43.8c1.4-1.7,2.1-3.8,2.2-6 M32.5,43.8c-1.4-1.7-2.1-3.8-2.2-6 M21.2,43.8h13.5 M10.8,33.2h34.5 M12.2,12.2h31.5
				c0,0,1.5,0,1.5,1.5v22.5c0,0,0,1.5-1.5,1.5H12.2c0,0-1.5,0-1.5-1.5V13.8C10.8,13.8,10.8,12.2,12.2,12.2 M30.2,20.5l2.2-3l4.5,3.8
				l3.8-4.5 M39.2,28.8v-2.2 M36.2,28.8v-3 M33.2,28.8v-4.5 M30.2,28.8v-2.2"/>
		</g>
	</g>
</g>
<g id="g-root-tx_consiste_18jfoxnrj3x1f-stroke" transform="translate(488, 350)">
</g>
<g id="g-root-ic_2_90vksbrjaxok-stroke" transform="translate(170, 236)">
	<g id="ic_2_90vksbrjaxok-stroke">
		<g>
			<path class="st19" d="M34.8,13h4.5v4.5 M11.5,23.5L18,19c0.6-0.4,1.4-0.3,1.9,0.2l0.5,0.5c0.5,0.5,1.3,0.6,1.9,0.2l3.3-2.4
				c0.5-0.4,1.3-0.4,1.8,0l2,1.6c0.5,0.4,1.3,0.4,1.8,0l8.1-6.1 M16.8,37.8c0-0.4-0.3-0.8-0.8-0.8h-3c-0.4,0-0.8,0.3-0.8,0.8V43h4.5
				V37.8z M25.8,30.2c0-0.4-0.3-0.8-0.8-0.8h-3c-0.4,0-0.8,0.3-0.8,0.8V43h4.5V30.2z M34.8,34.8c0-0.4-0.3-0.8-0.8-0.8h-3
				c-0.4,0-0.8,0.3-0.8,0.8V43h4.5V34.8z M43.8,22.8c0-0.4-0.3-0.8-0.8-0.8h-3c-0.4,0-0.8,0.3-0.8,0.8V43h4.5V22.8z M10.8,43h34.5"
				/>
		</g>
	</g>
</g>
<g id="g-root-ic_robo_1cxdomzriznrg-stroke" transform="translate(350, 236)">
	<g id="ic_robo_1cxdomzriznrg-stroke">
		<g>
			<path class="st19" d="M29.2,13H15.3c-2.1,0-3.7,1.6-3.7,3.7v24c0,2.1,1.6,3.7,3.7,3.7h16.1c2.1,0,3.7-1.6,3.7-3.7v-11 M11.6,39
				h23.6 M34.9,15.4h6.6c0,0,3,0,3,3v3.8c0,0,0,3-3,3h-6.6c0,0-3,0-3-3v-3.8C31.9,18.4,31.9,15.4,34.9,15.4 M38.1,11.6v3.9
				 M36.1,19.4v1.7 M40.2,19.4v1.7"/>
		</g>
	</g>
</g>
<g id="g-root-ic_acce_zoet4rrj1539-stroke" transform="translate(530, 236)">
	<g id="ic_acce_zoet4rrj1539-stroke">
		<g>
			<path class="st19" d="M32.1,19.5h-8.3c-0.6,0-1,0.3-1.4,0.8l-4.2,7c-0.3,0.5-0.3,1,0,1.5l4.2,7.1c0.3,0.4,0.8,0.8,1.4,0.8h8.3
				c0.6,0,1-0.3,1.3-0.8l4.2-7.1c0.3-0.5,0.3-1,0-1.5l-4.2-7C33.2,19.8,32.7,19.5,32.1,19.5z M28.1,30.7c1.5,0,2.7-1.2,2.7-2.7
				s-1.2-2.7-2.7-2.7c-1.5,0-2.7,1.2-2.7,2.7S26.6,30.7,28.1,30.7z M29.4,42.7l4.1-6.9 M14.3,22.2l4,6.5 M40.2,19.5h-8.1 M35.7,13.3
				H20.3c-0.6,0-1,0.3-1.3,0.8l-7.6,13.2c-0.3,0.5-0.3,1,0,1.5L19,41.9c0.3,0.5,0.7,0.8,1.3,0.8h15.4c0.6,0,1-0.3,1.3-0.8l7.6-13.2
				c0.3-0.5,0.3-1,0-1.5L37,14.1C36.7,13.6,36.1,13.3,35.7,13.3z"/>
		</g>
	</g>
</g>
<g id="g-root-tx_roifocus_zjfd2zrj3v9e-stroke" transform="translate(152, 320)">
</g>
<g id="g-root-tx_advanced_qp1b0brj3y86-stroke" transform="translate(314, 320)">
</g>
<g id="g-root-tx_clientpa_1qa38cbrj3xu2-stroke" transform="translate(488, 320)">
</g>
<g id="g-root-tx_prioriti_8x4tffrj3v9f-stroke" transform="translate(128, 350)">
</g>
<g id="g-root-tx_utilizin_de79q3rj3wnb-stroke" transform="translate(314, 350)">
</g>
</svg>
