<?xml version="1.0" encoding="UTF-8"?>
<svg id="Layer_1" xmlns="http://www.w3.org/2000/svg" version="1.1" viewBox="0 0 576 360">
  <!-- Generator: Adobe Illustrator 29.0.0, SVG Export Plug-In . SVG Version: 2.1.0 Build 186)  -->
  <defs>
    <style>
      .st0 {
        fill: #73bf44;
      }

      .st1 {
        fill: #0e8b49;
      }

      .st2 {
        fill: #678441;
      }

      .st3 {
        fill: #fff;
      }

      .st4 {
        fill: #1d7a46;
      }

      .st5 {
        fill: #2fa3dc;
      }

      .st6 {
        fill: #06b3a8;
      }

      .st7 {
        fill: #08a74c;
      }

      .st8 {
        fill: #0b9449;
      }

      .st9 {
        fill: #0081be;
      }

      .st10 {
        fill: #008f4b;
      }

      .st11 {
        fill: #2d7e45;
      }

      .st12 {
        fill: #0d7946;
      }

      .st13 {
        fill: #ffc20e;
      }

      .st14 {
        fill: #509144;
      }

      .st15 {
        fill: #72bf44;
      }

      .st16 {
        fill: #004071;
      }
    </style>
  </defs>
  <g>
    <g>
      <path class="st9" d="M259.3,170.3h-9.9v-15h-3.6v15h-9.9v-34.4h9.9v13.7h3.6v-13.7h9.9v34.4Z"/>
      <path class="st9" d="M288.4,170.3h-9.9l-5.4-14.4v14.4h-9.9v-34.4h9.9v13.6l5.4-13.6h9.9l-6.9,16.8,6.9,17.6Z"/>
    </g>
    <path class="st9" d="M317.1,170.3h-11c-1.7,0-3.2-.5-4.4-1.6-1.2-1.1-1.8-2.4-1.8-4.2v-7.8h9.9v6.9c0,.3,0,.5.3.6.2.2.4.2.6.2h1.9c.2,0,.4,0,.6-.2.2-.2.3-.4.3-.6v-5.4c0-.3-.2-.6-.5-.8l-9.8-5.3c-2.2-1.1-3.2-2.8-3.2-5v-5.6c0-1.7.6-3.1,1.8-4.2,1.2-1.1,2.7-1.6,4.4-1.6h11c1.7,0,3.2.5,4.4,1.6,1.2,1.1,1.8,2.5,1.8,4.2v6.5h-9.9v-5.6c0-.3,0-.5-.3-.6-.2-.2-.4-.2-.6-.2h-1.9c-.2,0-.4,0-.6.2-.2.2-.3.4-.3.6v4.1c0,.3.1.6.4.8l9.8,5.3c2.2,1.1,3.2,2.8,3.2,5v6.8c0,1.7-.6,3.1-1.8,4.2-1.2,1.1-2.7,1.6-4.4,1.6Z"/>
    <path class="st9" d="M343.9,170.3h-11c-1.7,0-3.2-.5-4.4-1.6-1.2-1.1-1.8-2.4-1.8-4.2v-28.7h9.9v27.8c0,.3,0,.5.3.6.2.2.4.2.6.2h1.9c.2,0,.4,0,.6-.2.2-.2.3-.4.3-.6v-27.8h9.9v28.7c0,1.7-.6,3.1-1.8,4.2-1.2,1.1-2.7,1.6-4.4,1.6Z"/>
    <path class="st9" d="M378.2,170.3h-9.4l-3.4-13.5h-1.5v13.5h-9.9v-34.4h17.2c1.7,0,3.2.5,4.4,1.6,1.2,1.1,1.8,2.5,1.8,4.2v9.5c0,2.3-1,3.9-3,5l3.9,14.2ZM366.5,151.1c.2,0,.4,0,.6-.3.2-.2.3-.4.3-.6v-7.7c0-.3,0-.5-.3-.6-.2-.2-.4-.2-.6-.2h-2.8v9.5h2.8Z"/>
    <path class="st9" d="M398.1,170.3h-11c-1.7,0-3.2-.5-4.4-1.6-1.2-1.1-1.8-2.4-1.8-4.2v-22.9c0-1.7.6-3.1,1.8-4.2s2.7-1.6,4.4-1.6h11c1.7,0,3.2.5,4.4,1.6,1.2,1.1,1.8,2.5,1.8,4.2v7.1h-9.9v-6.2c0-.3,0-.5-.3-.6-.2-.2-.4-.2-.6-.2h-1.9c-.2,0-.4,0-.6.2-.2.2-.3.4-.3.6v21.1c0,.3,0,.5.3.6.2.2.4.2.6.2h1.9c.2,0,.4,0,.6-.2.2-.2.3-.4.3-.6v-7h-2.1v-5.8h11.9v13.7c0,1.7-.6,3.1-1.8,4.2-1.2,1.1-2.7,1.6-4.4,1.6Z"/>
    <path class="st9" d="M417.9,170.3h-9.9v-34.4h9.9v34.4Z"/>
    <path class="st9" d="M438.8,170.3h-11c-1.7,0-3.2-.5-4.4-1.6-1.2-1.1-1.8-2.4-1.8-4.2v-22.9c0-1.7.6-3.1,1.8-4.2,1.2-1.1,2.7-1.6,4.4-1.6h11c1.7,0,3.2.5,4.4,1.6,1.2,1.1,1.8,2.5,1.8,4.2v8.9h-9.9v-8c0-.3,0-.5-.3-.6-.2-.2-.4-.2-.6-.2h-1.9c-.2,0-.4,0-.6.2-.2.2-.3.4-.3.6v21.1c0,.3,0,.5.3.6.2.2.4.2.6.2h1.9c.2,0,.4,0,.6-.2.2-.2.3-.4.3-.6v-9.3h9.9v10.2c0,1.7-.6,3.1-1.8,4.2-1.2,1.1-2.7,1.6-4.4,1.6Z"/>
    <path class="st9" d="M473.8,170.3h-9.6l-.9-5.8h-5.8l-.9,5.8h-9.7l6.6-34.4h13.7l6.6,34.4ZM462.4,158.8l-2-12.2-2,12.2h3.9Z"/>
    <path class="st9" d="M494.6,170.3h-18.5v-34.4h9.9v28.7h8.7v5.8Z"/>
  </g>
  <g>
    <path class="st15" d="M264.9,236.6h-18.6c-2.9,0-5.3-.9-7.4-2.7-2-1.8-3.1-4.1-3.1-7v-38.6c0-2.9,1-5.2,3.1-7s4.5-2.7,7.4-2.7h18.6c2.9,0,5.3.9,7.4,2.7,2,1.8,3.1,4.1,3.1,7v12h-16.7v-10.5c0-.4-.2-.8-.5-1.1-.3-.3-.7-.4-1-.4h-3.2c-.4,0-.7.1-1,.4-.3.3-.5.6-.5,1.1v35.7c0,.4.2.8.5,1.1.3.3.7.4,1,.4h3.2c.4,0,.7-.1,1-.4.3-.3.5-.6.5-1.1v-11.9h-3.5v-9.7h20.1v23.1c0,2.9-1,5.2-3.1,7-2,1.8-4.5,2.7-7.4,2.7Z"/>
    <path class="st15" d="M323.9,236.6h-16.3l-1.6-9.7h-9.7l-1.5,9.7h-16.3l11.2-58h23.1l11.1,58ZM304.6,217.3l-3.3-20.6-3.3,20.6h6.6Z"/>
    <path class="st15" d="M355.9,236.6h-18.6c-2.9,0-5.3-.9-7.4-2.7-2-1.8-3.1-4.1-3.1-7v-13.1h16.7v11.6c0,.4.2.8.5,1.1.3.3.6.4,1,.4h3.2c.4,0,.7-.1,1-.4.3-.3.5-.6.5-1.1v-9c0-.6-.3-1-.8-1.3l-16.5-9c-3.6-1.9-5.5-4.8-5.5-8.5v-9.4c0-2.9,1-5.2,3.1-7,2-1.8,4.5-2.7,7.4-2.7h18.6c2.9,0,5.3.9,7.4,2.7,2,1.8,3.1,4.1,3.1,7v10.9h-16.7v-9.5c0-.4-.2-.8-.5-1.1-.3-.3-.7-.4-1-.4h-3.2c-.4,0-.7.1-1,.4-.3.3-.5.6-.5,1.1v7c0,.6.2,1,.7,1.3l16.6,9c3.6,1.9,5.5,4.7,5.5,8.4v11.5c0,2.9-1,5.2-3.1,7-2,1.8-4.5,2.7-7.4,2.7Z"/>
    <path class="st15" d="M395.9,236.6h-16.7v-48.3h-10.6v-9.7h38v9.7h-10.7v48.3Z"/>
    <path class="st15" d="M450.5,236.6h-15.9l-5.8-22.7h-2.6v22.7h-16.7v-58h29c2.9,0,5.3.9,7.4,2.7,2,1.8,3.1,4.1,3.1,7v16c0,3.8-1.7,6.6-5.1,8.4l6.6,24ZM430.9,204.3c.4,0,.7-.2,1-.5.3-.3.5-.7.5-1v-13c0-.4-.2-.8-.5-1.1-.3-.3-.7-.4-1-.4h-4.6v16h4.6Z"/>
    <path class="st15" d="M484.1,236.6h-18.6c-2.9,0-5.3-.9-7.4-2.7-2-1.8-3.1-4.1-3.1-7v-38.6c0-2.9,1-5.2,3.1-7,2-1.8,4.5-2.7,7.4-2.7h18.6c2.9,0,5.3.9,7.4,2.7,2,1.8,3.1,4.1,3.1,7v38.6c0,2.9-1,5.2-3.1,7-2,1.8-4.5,2.7-7.4,2.7ZM476.4,226.9c.4,0,.7-.1,1-.4.3-.3.5-.6.5-1.1v-35.7c0-.4-.2-.8-.5-1.1-.3-.3-.7-.4-1-.4h-3.2c-.4,0-.7.1-1,.4-.3.3-.5.6-.5,1.1v35.7c0,.4.2.8.5,1.1.3.3.7.4,1,.4h3.2Z"/>
  </g>
  <g>
    <path class="st9" d="M89.5,256.2v1.7h-7.2v-9.3h7v1.7h-4.9v2h4.3v1.7h-4.3v2.2h5.1Z"/>
    <path class="st9" d="M99.7,258l-2.3-3.2-2.2,3.2h-2.5l3.5-4.7-3.3-4.6h2.5l2.1,3,2.1-3h2.3l-3.3,4.5,3.5,4.8h-2.5Z"/>
    <path class="st9" d="M113.8,252c0,2.1-1.6,3.4-4.1,3.4h-1.9v2.6h-2.2v-9.3h4c2.5,0,4.1,1.3,4.1,3.4ZM111.6,252c0-1-.7-1.6-2-1.6h-1.8v3.2h1.8c1.3,0,2-.6,2-1.6Z"/>
    <path class="st9" d="M125.2,256.2v1.7h-7.2v-9.3h7v1.7h-4.9v2h4.3v1.7h-4.3v2.2h5.1Z"/>
    <path class="st9" d="M135.5,258l-1.8-2.6h-2v2.6h-2.2v-9.3h4c2.5,0,4.1,1.3,4.1,3.4s-.7,2.4-1.9,2.9l2.1,3h-2.3ZM133.5,250.4h-1.8v3.3h1.8c1.3,0,2-.6,2-1.6s-.7-1.6-2-1.6Z"/>
    <path class="st9" d="M143.9,250.4h-3v-1.8h8.1v1.8h-3v7.6h-2.2v-7.6Z"/>
    <path class="st9" d="M158.7,253.3c0-2.8,2.2-4.8,5.1-4.8s3,.6,3.8,1.7l-1.4,1.3c-.6-.7-1.4-1.1-2.3-1.1-1.7,0-3,1.2-3,3s1.2,3,3,3,1.7-.4,2.3-1.1l1.4,1.3c-.9,1.1-2.2,1.7-3.9,1.7-2.9,0-5.1-2-5.1-4.8Z"/>
    <path class="st9" d="M177.7,256h-4.3l-.8,2h-2.2l4.2-9.3h2.1l4.2,9.3h-2.3l-.8-2ZM177,254.3l-1.5-3.6-1.5,3.6h3Z"/>
    <path class="st9" d="M190.3,258l-1.8-2.6h-2v2.6h-2.2v-9.3h4c2.5,0,4.1,1.3,4.1,3.4s-.7,2.4-1.9,2.9l2.1,3h-2.3ZM188.3,250.4h-1.8v3.3h1.8c1.3,0,2-.6,2-1.6s-.7-1.6-2-1.6Z"/>
    <path class="st9" d="M204.1,256.2v1.7h-7.2v-9.3h7v1.7h-4.9v2h4.3v1.7h-4.3v2.2h5.1Z"/>
    <path class="st9" d="M217.1,250.4v2.5h4.3v1.7h-4.3v3.4h-2.2v-9.3h7v1.7h-4.9Z"/>
    <path class="st9" d="M225.4,253.3c0-2.8,2.2-4.8,5.1-4.8s5.1,2,5.1,4.8-2.2,4.8-5.1,4.8-5.1-2.1-5.1-4.8ZM233.4,253.3c0-1.8-1.3-3-2.9-3s-2.9,1.2-2.9,3,1.3,3,2.9,3,2.9-1.2,2.9-3Z"/>
    <path class="st9" d="M245.9,258l-1.8-2.6h-2v2.6h-2.2v-9.3h4c2.5,0,4.1,1.3,4.1,3.4s-.7,2.4-1.9,2.9l2.1,3h-2.3ZM243.8,250.4h-1.8v3.3h1.8c1.3,0,2-.6,2-1.6s-.7-1.6-2-1.6Z"/>
    <path class="st9" d="M263.3,254.7v3.3h-2.2v-3.3l-3.6-6h2.3l2.5,4.1,2.5-4.1h2.1l-3.6,6Z"/>
    <path class="st9" d="M269.5,253.3c0-2.8,2.2-4.8,5.1-4.8s5.1,2,5.1,4.8-2.2,4.8-5.1,4.8-5.1-2.1-5.1-4.8ZM277.5,253.3c0-1.8-1.3-3-2.9-3s-2.9,1.2-2.9,3,1.3,3,2.9,3,2.9-1.2,2.9-3Z"/>
    <path class="st9" d="M283.9,253.9v-5.2h2.2v5.1c0,1.8.8,2.5,2.1,2.5s2.1-.7,2.1-2.5v-5.1h2.1v5.2c0,2.7-1.6,4.3-4.2,4.3s-4.2-1.5-4.2-4.3Z"/>
    <path class="st9" d="M303.1,258l-1.8-2.6h-2v2.6h-2.2v-9.3h4c2.5,0,4.1,1.3,4.1,3.4s-.7,2.4-1.9,2.9l2.1,3h-2.3ZM301.1,250.4h-1.8v3.3h1.8c1.3,0,2-.6,2-1.6s-.7-1.6-2-1.6Z"/>
    <path class="st9" d="M316.1,248.6h4.2c3.1,0,5.1,1.8,5.1,4.7s-2.1,4.7-5.1,4.7h-4.2v-9.3ZM320.2,256.2c1.9,0,3.1-1.1,3.1-2.9s-1.2-2.9-3.1-2.9h-2v5.8h2Z"/>
    <path class="st9" d="M329.8,248.6h2.2v9.3h-2.2v-9.3Z"/>
    <path class="st9" d="M343.1,253.2h2v3.8c-1,.8-2.4,1.2-3.8,1.2-2.9,0-5.1-2-5.1-4.8s2.2-4.8,5.1-4.8,3,.6,3.9,1.6l-1.4,1.3c-.7-.7-1.5-1.1-2.4-1.1-1.8,0-3.1,1.2-3.1,3s1.2,3,3,3,1.1-.1,1.7-.4v-2.7Z"/>
    <path class="st9" d="M357,256.2v1.7h-7.2v-9.3h7v1.7h-4.9v2h4.3v1.7h-4.3v2.2h5.1Z"/>
    <path class="st9" d="M360.6,257l.7-1.6c.8.6,2,1,3.1,1s1.8-.4,1.8-1c0-1.7-5.4-.5-5.4-4s1.3-2.9,3.9-2.9,2.4.3,3.2.8l-.7,1.6c-.9-.5-1.8-.7-2.6-.7-1.3,0-1.8.5-1.8,1.1,0,1.7,5.4.5,5.4,4s-1.3,2.9-4,2.9-3-.4-3.8-1.1Z"/>
    <path class="st9" d="M374.3,250.4h-3v-1.8h8.1v1.8h-3v7.6h-2.2v-7.6Z"/>
    <path class="st9" d="M383.3,248.6h2.2v9.3h-2.2v-9.3Z"/>
    <path class="st9" d="M399.3,248.6l-4,9.3h-2.1l-4-9.3h2.3l2.8,6.7,2.9-6.7h2.1Z"/>
    <path class="st9" d="M409.9,256.2v1.7h-7.2v-9.3h7v1.7h-4.9v2h4.3v1.7h-4.3v2.2h5.1Z"/>
    <path class="st9" d="M420,257l.7-1.6c.8.6,2,1,3.1,1s1.8-.4,1.8-1c0-1.7-5.4-.5-5.4-4s1.3-2.9,3.9-2.9,2.4.3,3.2.8l-.7,1.6c-.9-.5-1.8-.7-2.6-.7-1.3,0-1.8.5-1.8,1.1,0,1.7,5.4.5,5.4,4s-1.3,2.9-4,2.9-3-.4-3.8-1.1Z"/>
    <path class="st9" d="M436.2,254.7v3.3h-2.2v-3.3l-3.6-6h2.3l2.5,4.1,2.5-4.1h2.1l-3.6,6Z"/>
    <path class="st9" d="M442.5,257l.7-1.6c.8.6,2,1,3.1,1s1.8-.4,1.8-1c0-1.7-5.4-.5-5.4-4s1.3-2.9,3.9-2.9,2.4.3,3.2.8l-.7,1.6c-.9-.5-1.8-.7-2.6-.7-1.3,0-1.8.5-1.8,1.1,0,1.7,5.4.5,5.4,4s-1.3,2.9-4,2.9-3-.4-3.8-1.1Z"/>
    <path class="st9" d="M456.2,250.4h-3v-1.8h8.1v1.8h-3v7.6h-2.2v-7.6Z"/>
    <path class="st9" d="M472.4,256.2v1.7h-7.2v-9.3h7v1.7h-4.9v2h4.3v1.7h-4.3v2.2h5.1Z"/>
    <path class="st9" d="M485.3,258v-5.6s-2.8,4.6-2.8,4.6h-1l-2.7-4.5v5.5h-2v-9.3h1.8l3.5,5.8,3.4-5.8h1.8v9.3s-2,0-2,0Z"/>
    <path class="st9" d="M491.5,256.8c0-.8.6-1.3,1.3-1.3s1.3.5,1.3,1.3-.6,1.3-1.3,1.3-1.3-.5-1.3-1.3Z"/>
  </g>
  <g>
    <path class="st13" d="M114.8,128.2v27c-4,2.8-6.7,7.6-6.7,12.8v39.7h-11.8c-8.4,0-15.2-6.8-15.2-15.2v-49.2c0-8.4,6.8-15.2,15.2-15.2h18.4Z"/>
    <path class="st0" d="M217.9,152.7v49.2c0,8.4-6.8,15.2-15.2,15.2h-15.1v-35.7c4-2.9,6.7-7.6,6.7-12.9v-31h8.4c8.4,0,15.2,6.8,15.2,15.2Z"/>
    <path class="st2" d="M164.6,137.5h-16.2c-8.3,0-15,6.6-15.2,14.8h-9.4c-3.4,0-6.5,1.1-9.1,2.9v-27h35.9c6.3,0,11.7,3.8,14,9.3Z"/>
    <path class="st5" d="M194.3,115.3v22.2h-29.7c-2.3-5.5-7.7-9.3-14-9.3h-35.9v-12.8c0-8.7,7-15.8,15.8-15.8h48.1c8.7,0,15.8,7.1,15.8,15.8Z"/>
    <path class="st8" d="M194.3,137.5v31c0,5.3-2.6,10-6.7,12.9v-13.2c0-8.7-7.1-15.8-15.8-15.8h-6.1v-9c0-2.1-.4-4-1.2-5.8h29.7Z"/>
    <path class="st11" d="M165.8,143.3v9h-32.5c.2-8.2,6.9-14.8,15.2-14.8h16.2c.7,1.8,1.2,3.8,1.2,5.8Z"/>
    <path class="st7" d="M187.7,181.3v35.7h-39.2c-6.3,0-11.7-3.8-14-9.3h16.2c8.4,0,15.2-6.8,15.2-15.2v-8.4h12.8c3.4,0,6.5-1.1,9.1-2.9Z"/>
    <path class="st10" d="M187.7,168.1v13.2c-2.6,1.8-5.7,2.9-9.1,2.9h-12.8v-31.9h6.1c8.7,0,15.8,7.1,15.8,15.8Z"/>
    <rect class="st12" x="133.3" y="152.3" width="32.5" height="31.9"/>
    <path class="st4" d="M133.3,152.3v31.9h-2.8c-8.7,0-15.8-7-15.8-15.8v-13.2c2.6-1.8,5.7-2.9,9.1-2.9h9.4Z"/>
    <path class="st14" d="M134.5,207.7h-26.4v-39.7c0-5.3,2.6-10,6.7-12.8v13.2c0,8.7,7,15.8,15.8,15.8h2.8v17.7c0,2.1.4,4,1.2,5.8Z"/>
    <path class="st1" d="M165.8,184.2v8.4c0,8.4-6.8,15.2-15.2,15.2h-16.2c-.8-1.8-1.2-3.8-1.2-5.8v-17.7h32.5Z"/>
    <path class="st6" d="M187.7,217v4.1c0,8.7-7.1,15.8-15.8,15.8h-48.1c-8.7,0-15.8-7.1-15.8-15.8v-13.5h26.4c2.3,5.5,7.7,9.3,14,9.3h39.2Z"/>
  </g>
  <g>
    <path class="st3" d="M189.6,204.7c.3-.5.6-1.1.8-1.7.3-.9.3-1.8-.2-2.6,0-.2-.2-.3-.3-.4l-.8.5h0c.2-.9.8-1.6.9-2.5.1-1,0-1.8-.4-2.4,0-.2-.2-.3-.3-.4-.5-.5-1.2-1-2.1-1.2.5-.1,1,0,1.5,0,.3,0,.6.2.8.4.2,0,.3-.2.4-.5,0,0,0,0,0,0,.1-.3.2-.6.2-1,0-.5,0-1,0-1.5,0-.2,0-.4-.1-.6-.1-.4-.3-.7-.5-.8,0,0-.1,0-.2,0,0,0-.2.1-.3.2-.1,0-.2.1-.3.2,0,0-.2.1-.2.1h0c-.1,0-.3,0-.3,0s0,0,0-.1c0,0,0,0,0,0,0,0,0,0,0,0,0,0,0,0,.1,0,0,0,0,0,.1,0,0,0,.2-.1.3-.2,0,0,0,0,.1-.1,0,0,0,0,0,0,.2-.3.4-.6.6-1,0-.1,0-.3.1-.4,0-.2.2-.5.2-.8,0-.5,0-1,0-1.5,0-.2,0-.4-.1-.6-.1-.4-.3-.8-.6-1.1,0,0-.1-.1-.2-.2-.2-.2-.3-.3-.5-.4-.4-.2-.8-.2-1.1,0-.2,0-.5.1-.7.2-.3,0-.6.2-.9.2.1-.1.2-.2.4-.3.3-.2.6-.3.9-.4.2,0,.3-.2.4-.3.1,0,.2-.2.3-.3.3-.3.5-.7.7-1.2.8-2.2,0-5.6-1.5-7-.5.9-.6,1.7-1.4,2.4,0,0,0,0-.1.1,0,0,0,0-.1,0,0,0,0,0,0,0,0,0,0,0,0,0h0c.4-.3.6-.6.8-1,0-.2.1-.5.2-.7.1-.7,0-1.5,0-2.2l-.4-1.3c0,.3-.1.5-.2.8,0,0,0,.1,0,.2,0,0,0,0,0,0,0,0,0,.1,0,.2,0,.1,0,.2-.2.3,0,0-.1,0-.2,0h0c0-.2,0-.4.1-.6.2-.9.4-1.8.1-2.6,0-.3-.2-.5-.5-.8h0c0,0-.1-.2-.2-.2-.5-.4-1.2-.7-1.8-.9-.1,0-.2,0-.3,0,0,0,0,.4.1.7,0,.3,0,.6-.2.7h0c0-.5-.3-.9-.5-1.3-.1-.2-.3-.4-.4-.5-1-1-2.6-1.4-4.1-1.1-.3,0-.7.2-1,.4.4.2.7.4,1,.7.1.1.3.3.4.5,0,.2.2.3.3.5h0s0,0,0,0h0c0,0-.2,0-.3-.1-.2-.2-.3-.5-.7-.7,0,0-.2-.1-.3-.1-.3-.2-.8-.3-1.3-.3t0,0c-.9-.1-1.8,0-2.5,0-.2,0-.4.1-.6.2-.4.2-.7.3-1,.6-.2.1-.3.3-.4.4-.1.1-.3.3-.4.5-.3.3-.5.7-.7,1-1,1.6-1.7,3.6-3,4.8-.4.4-.9.7-1.3,1-.7.4-1.4.6-2.2.8-.3,0-.5,0-.8.1-.5,0-1.1.1-1.6.1,0,0,0-.1,0-.1,0,0,.1,0,.2,0,0,0,0,0,0,0h0c.1,0,.2,0,.3-.1.3,0,.5-.2.8-.2.3,0,.6-.2.8-.2.2,0,.4-.1.6-.2.3,0,.5-.2.8-.4.2,0,.3-.2.5-.3,1.8-1.1,2.6-2.8,3.6-4.5.3-.5.7-1.1,1.1-1.6h0c-.9,0-2,0-2.9.4-.3,0-.5.2-.8.3-.5.3-.9.6-1.3.9-.2.2-.4.4-.5.6-.2.2-.3.4-.4.7h-.3c0,0,0,0,0,0l.5-1.4c-.9-.1-1.9-.1-2.8.2,0,0-.3.2-.6.3-.1,0-.2.2-.3.3,0,0,0,0,0,0,0,0,0,.1,0,.2h0c.3,0,.7.2.9.4s.1.2.2.3h0c-.1,0-.2,0-.3,0-.2,0-.3,0-.5,0-.5,0-1,0-1.5,0-.2.4,1.1.9,1,1.2,0,0,0,0,0,0h0c-1.2-.6-2.4-1.1-3.7-1.1s-.4,0-.6,0c-.1,0-.3,0-.4,0-1,.3-1.7,1.1-2.3,1.8-.1-.1,0-.3,0-.5s.2-.3.3-.5c0-.1.1-.2.2-.3,0,0,0-.1,0-.1,0,0-.1,0-.2,0s-.2,0-.2,0c-.2,0-.4,0-.6,0s-.3,0-.5,0c-.2,0-.4,0-.6,0-.3,0-.6,0-.9,0-.2,0-.3,0-.5,0-.1,0-.3,0-.4,0s-.2,0-.3,0c-.2,0-.3.1-.5.2-.2,0-.3.2-.4.3,0,0-.1.1-.2.2-.1.1-.3.2-.4.3h0c0,0-.1,0-.2,0h0s0,0,0,0h0s.4-.8.4-.8c-1.2-1.1-2.7-1.4-4.2-.8,0-.2.1-.3.3-.4.1,0,.3-.2.4-.2.2-.1.4-.3.3-.4-.2-.1-.5-.3-.7-.4-.2-.1-.5-.2-.7-.3-.7-.2-1.4-.3-2.2-.2l.2,1.4c-.7-.9-1.6-1.7-2.7-2.2-.2,0-.3-.1-.5-.2-.8-.3-1.6-.5-2.5-.5,0,0,0,.2,0,.3,0,.3,0,.6,0,.8.1.4,1,1,.9,1.6-.2-.1-.3-.3-.4-.5-.2-.2-.3-.3-.5-.5-.3-.3-.7-.6-1.2-.5-.4,0-.7.2-.9.3-.1.1-.2.3-.3.4-.2.3-.3.5-.5.7-.1-1.3,1-2.3,2.2-2,.1,0,.3,0,.4.2h0s0,0,0,0c0,0,0,0,0-.2,0,0-.1-.2-.3-.3h-.1c-.3-.4-.6-.8-.9-1-.1,0-.2-.2-.2-.2-.4-.2-.8-.4-1.2-.6-1.3-.5-2.9-.7-4,0-.4.2-.7.6-1,.9-.1,0-.2.2-.4.3l.3-.5,1.4-1.4c-1.2-.4-2.6-.6-3.7-.3-.2,0-.3.1-.5.2-.3.2-.6.4-.8.6-.1.1-.2.3-.3.5h0c0,.2-.2.4-.2.6s-.1.5-.1.7c0,.3.3.6,0,.9,0,0,0,0,0,0-.4-.6-.3-1.3-.3-2,0-.1,0-.2,0-.2,0,0,0,0-.1,0-.8.2-1.5.5-2,1-.7.7-1.1,1.5-.8,2.6l-.5-.7c-.6,1.7-.6,3.7.3,5.2.2.3.4.5.6.8h0c-.2,0-.3,0-.3,0,0,0,0,0,0,0h0c-.2-.3-.4-.5-.5-.7-.3-.4-.6-.9-.8-1.4,0-.3-.2-.5-.3-.8-1.5,1.2-2.3,4-1.9,6.2,0,.3.1.5.2.8,0,.2.2.5.3.7.2.4.5.8.9,1.1.5.4,1.1.6,1.9.6-.3.2-1.3.1-1.7,0,0,0-.2,0-.2,0-.1,0-.3-.1-.4-.2,0,0-.2,0-.3-.1-.1,0-.2,0-.3,0-.1,0-.4.2-.6.4,0,0-.1.1-.2.2,0,0-.1,0-.2.2-.1,0-.2.2-.2.2-1.3,1.8-.2,4.9,1.5,6.1-.2.1-.6-.2-1-.5-.2-.1-.3-.3-.4-.4-.2-.1-.3-.2-.3-.1-.7,1.6-.7,3.2,0,4.8.4-.2.7-.4,1.1-.5.2,0,.4-.2.6-.2.4,0,.8-.1,1.2,0-1.6.3-2.6,1.2-3,2.3-.2.5-.3,1.1-.2,1.8,0,0,0,0,0,0,0,.5.3,1.1.6,1.7.1.2.3.4.4.5.5.5,1.1.8,1.5,1.3l-1.4-.8-1-.8c-.2.3-.3.5-.4.9-.3,1.1,0,2.4.8,3.4.1.2.3.4.5.5.5.5,1,.8,1.7.9-.5.2-.9,0-1.4,0-.3-.1-.5-.3-.8-.4-.6,1.2-.6,2.6-.1,3.9.5,1.3,1.4,2.5,2.7,3,.4.2.9.3,1.4.3h0c0,.2-.2.3-.5.3,0,0-.2,0-.3,0s-.2,0-.3,0c0,0,0,0,0,0-.3,0-.6,0-.6,0h0c0,1,.4,2,.9,2.9.2.3.5.7.8.9.1.2.3.3.4.4.9.8,2.3,1.7,3.6,1.5,0,0,0,.1-.1.1,0,0,0,0-.2,0-.5.2-1.4,0-1.7,0,0,0,0,0,0,0h0c.2,1,.8,2,1.7,2.8,1.7,1.6,4.2,2.7,6.1,2.2.2,0,.3-.1.5-.2.2,0,.4-.2.5-.2l-.3-1.1c.1.1.3.3.4.4.4.4.9.8,1.3,1.2.3.3.5.6.7.9s.4.7.5,1.1c0,.2,0,.5.1.8,0,.1,0,.2,0,.3,0,.2,0,.4.1.5,0,.2.1.3.2.4.1.1.3.2.5.1,0,0,0-.2,0-.4,0-.7-.2-1.8-.4-2.8-.1-.5-.3-1-.4-1.2-.2-.5-.9-1.8-1.4-2.3,0,0-.2-.1-.2-.1-.5-.2-.7,0-1.1,0,0,0-.2,0-.3,0,.3-.6,1.3-.7,1.8-.5,0,0,0,0,.1,0,0,0,0,0,.1.1,0,0,.1.2.2.3s0,0,.1,0c0,0,.1,0,.2,0,0,0,0-.2,0-.4,0-.6,0-1.7,0-1.9,0,0,0,0,0,0,0,0-.2-.2-.4-.3-.4-.3-.9-.7-.9-1,0,0,0,0,0,0h0c.1.1.3.2.4.3,1,.7,2.2.4,3-.3.6-.5,1.1-1.4,1.1-2.3h0s.4,0,.4,0h0c0,.9,0,1.5-.5,2.2h0c.4,0,.8,0,1.2,0,1,0,2-.2,2.9-.5.2,0,.4-.1.6-.2.2,0,.4-.2.6-.3.7-.4,1.3-.8,1.9-1.4s.5-.6.8-.9c.3-.3.5-.7.7-1.1.7-1.4.8-2.3.8-3.5,0-.4,0-.8,0-1.3.1-2,.3-4.3,0-6.3,0-.2,0-.4,0-.6-.2-1.1-.6-2-1.3-2.6-.1-.1-.2-.2-.4-.3-1-.7-2.6-.8-4.9,0l-1.2,1.4c-.3-.7.3-1.1.4-1.7l-.8-.8c.5,0,.9.5,1.3.5s.4-.1.8-.3c.2,0,.5-.2.7-.3.2-.1.5-.2.7-.3h0c0,0,.2,0,.3,0,.3,0,.6,0,.9,0,.7,0,1.3.2,2,.5.6.3,1.3,1,2,1.4.1,0,.2.1.4.1.2,0,.3,0,.5,0,0,0,0,0,.1,0,0,0,0,0,.1,0,.3-.2.4-.5.7-.5,0,0,0,0,.1,0h0c0,.3-.2.4-.4.6-.5.4-1.2.6-1.6.3h0c.3.9.5,1.9.7,2.8,0,.2,0,.5,0,.7,0,.5,0,1,0,1.5,0,.8,0,1.5,0,2.3,0,.6,0,1.2-.1,1.9,0,.5,0,1-.1,1.4h0c0,.2,0,.4,0,.5,0,0,0,.2,0,.3,0,.2,0,.4-.1.6,0,0,0,.1,0,.2,0,.2-.1.4-.2.6-.2.7-.3,1.2.3,2.4.1.2.2.4.4.6.2.2.3.4.5.6h0c.2.2.4.4.5.5,1.4,1.2,3.2,1.8,4.9,1.1.3-.1.5-.4.7-.6,0,0,.1-.2.2-.3,0-.1.1-.3.2-.4,0-.3,0-.6,0-.9,0-.1,0-.2,0-.3,0,0,0,0,0,0,0,0,.1,0,.1,0,.2.2.2,1.3.2,1.4,0,.3-.4.5-.2.8h0c.4-.3.8-.5,1-.8,1-1.1,1.3-2.5,1.1-4.2,0-.1,0-.3,0-.4-.3-1.9-1.9-5.4-1.5-6.8,0,0,0-.1,0-.2.2-.6.8-1.1.9-1.8,0-.3,0-.6,0-1,0,0,0,0,0,0,0,0,0,0,.1,0,.1.1.2.4.2.6,0,.3,0,.6,0,.7h0c1.1-.3,2.3-.4,3.4-.4,1.1,0,2.3,0,3.5-.3,1.1-.3,3.7-1.3,4.3-2.2.3-.4.3-.9.6-1.2,0,.4,0,.8-.2,1.1,0,.2-.1.4-.2.7-.2.7-.3,1.4.4,2l-1.3-.8-3.9,1.4h0c0,0,.1.4.1.4h0c-.2,0-.5,0-.7,0-.7,0-1.4.2-2,.3h0c-.2,0-.4,0-.6,0-.1,0-.3,0-.5,0s-.4,0-.6,0c-1.3.2-2.5,1.2-2.9,2.6.1.4.3.8.4,1.2,0,.2.2.4.3.5,0,0,.1.2.2.3,0,0,.2.2.3.2.1,0,.2.1.4.2h-.5c0,0-.4.1-.4.1h0l.8,3,.2.6c.2.3.5.5.8.6,1.3.7,3.1.6,4.3,0,.1,0,.3-.1.4-.2.2-.2.5-.3.7-.5.1,0,.3-.1.4-.2.7-.3,1.5-.2,2.1-.7,0,0,.2-.2.3-.3,0,0,.2-.2.2-.3,0,0,0-.2,0-.2,0-.1,0-.3,0-.4,0-.3,0-.6.2-.9v1.9c0,.1.8-.4,1-.5.3-.1.7-.1,1.1-.3.3-.1.5-.2.7-.3,0,0,.2,0,.3-.1.3-.2.5-.3.6-.5,0,0,0,0,0,0,0,0,0,0,0-.2.1-.4,0-1,.1-2,0-.8.2-1.7.3-2.5,0-.1,0-.2,0-.2,0,0-.1,0-.3,0,0,.3-.1.5-.3.7,0,0-.1.1-.2.2-.2.2-.4.4-.6.5,0,0-.1.1-.2.2l-4,1.3c0,0,0,.1,0,.2,0,0,0,0,0,.1,0,0,0,0,.1,0h0c0,0,.2.1.3.2,0,0,0,0,.1,0,0,0,.1.2.1.3-.3,0-.6-.2-.8-.3,0,0-.1,0-.2,0-.7-.1-2.9.5-4.3.9-.3,0-.5.2-.7.2h0c-.3.1-.6.3-.8.5-.2.2-.4.5-.5.7-.1.3-.3.5-.5.7,0,0,0-.1,0-.2,0-.7.2-1.2.6-1.7.1-.2.3-.3.5-.5,0,0,.2-.2.3-.2-.2,0-.5,0-.7.1-.2,0-.3.2-.5.3t0,0c-.1,0-.2.1-.4.2h0c0,0-.2,0-.2,0,0,0,0,0,0,0,0,0,0,0,0-.2h0c0,0,.1-.1.2-.2,0,0,.2-.1.3-.2.2,0,.3-.2.5-.3h0s0,0,0-.1c0-.1.2-.3.3-.4,0,0,0,0,0,0,.1,0,.3,0,.5,0h0c.4,0,.8,0,1.1,0,.8,0,1.6-.3,2.5-.6.6-.2,1.2-.4,1.9-.6.6-.2,1.2-.4,1.8-.6,0,0,0,0,0,0,.3,0,.5-.2.8-.2.4,0,.7-.2,1-.4.2,0,.4-.2.5-.4,0,0,.1,0,.2-.2.4-.4.7-.9.9-1.7h-1.9,0s1.9-.9,1.9-.9h0c-.6-.9-.8-2-1.2-2.9-.1-.3-.4-.6-.6-1,0-.1-.1-.2-.1-.4,0-.3-.1-.5-.1-.7,0-.3,0-.5,0-.8l-2.2-.4h0s.8.5.8.5c-1.2-.4-2.1.2-3.1.6-.2.1-.4.2-.6.3-.7.3-1.3.4-2,.5-.2,0-.3,0-.5,0-.3,0-.6,0-1,0s-.7,0-1,0c-1.1,0-2.3.2-3.5.5h0s0,0,0,0c0,0-.2,0-.4.1,0,0-.2,0-.3,0,0,0-.2,0-.3.1-.4.1-.7.3-.9.4,0,0,0,0,0,0,0,0,0,0,0,0l.4.3c-.5,0-.8.1-1.1.3-.1,0-.3.2-.4.3,0,0,0,0-.1.1-.5.6-.5,1.5-.4,2.5,0,.4,0,.8,0,1.2,0,.3,0,.5-.1.8,0,.2,0,.3,0,.5,0,.3-.1.6-.2.9,0,.5-.1.9-.2,1.3l1.1,4.1c.2,0,.4,0,.6,0,.3,0,.6,0,1,0,0,0,0,0,0,0,.1,0,.4.1.6.2,0,0,.1,0,.2.1,0,0,.1,0,.2.1.2,0,.2.2.1.3-.6-.2-1.2-.4-1.8-.3-.1,0-.3,0-.4.1h0c0,.1.3.3.6.5,0,0,0,0,.1.1,0,.1.2.2.1.3-1.1-.5-2,0-2.8-.8-.1-.1-.2-.3-.3-.4-.2-.3-.3-.8-.3-1.3-.1-1.7.5-4.2.6-5.6.2-2.4.3-4.8-.3-6.9-.2-.5-.3-1-.5-1.4-.9-1.8-2.4-3.1-5-3.5-.3,0-.7,0-1-.1-1.4,0-2.8,0-4.1.4-.9.2-1.7.6-2.4,1.1-.6.4-1.1.9-1.5,1.5t0,0c-.1.1-.2.3-.3.5h0s.2,0,.2,0h.3c0,0,0,0,0,0-.2.1-.4.3-.5.4-.1.2-.3.3-.4.5-.6,1.3-.1,3.2,1,4.2.1.1.3.2.4.3.1,0,.3.2.5.2.1,0,.3,0,.4.1.1,0,.3,0,.4,0,.5,0,1,0,1.4-.2.3,0,.5-.2.8-.3.4-.2.8-.3,1.2-.5-.4-.9-.4-1.9.2-2.7l-.2,1.1.6.9h0c0-.2.1-.3.2-.4,0-.1.2-.2.3-.3.2-.2.5-.3.8-.5,0,.3-.3.4-.4.7,0,0,0,0,0,.1-.1.2-.2.5-.2.7-.2,1,0,2.3,0,3.3,0,.4-.1.7-.1,1.1,0,1,0,2,0,3.1,0,.7-.3,1.4-.6,1.9h0c.4,0,.8.2,1.1.5.2.1.3.3.5.4,0,0,.2.2.2.2,0,0,.1.2.2.2h0c-.2,0-.4,0-.6-.2-.4-.2-.7-.4-1.2-.4-1,0-1.7,1-2.6.8l.5.9v.6c0-.1,0-.2-.2-.3-.2-.2-.5-.4-.8-.6-.3-.2-.6-.3-1-.4-.5-.2-1-.3-1.4-.3-.3,0-.6,0-.8,0-.1,0-.3,0-.4,0-.1,0-.3,0-.4.1-.1,0-.2,0-.3.1-.4.2-.8.4-1.2.6-.2.1-1.6,1.1-1.7,1.2h0c-.2.3.1.7,0,1.1h0c0,0-.1,0-.2,0,0,0,0,0-.1-.1,0-.2-.2-.4-.2-.6,0-.2-.1-.4-.2-.5h0c-.1-.2-.3-.3-.6-.4-.1,0-.3,0-.4-.1-.4-.1-.9-.2-1.4-.3-.5,0-1.1,0-1.4,0-.2,0-.8.3-1.1.4-.1,0-.2,0-.2,0,0,0,0,0,0,0-.1-.2.3-.2.3-.3.7-.4,1.3-.5,2.1-.8.3-1.5-.2-2.9-1.2-3.8,0,0-.2-.2-.3-.3-.2-.2-.4-.3-.6-.4-.2-.1-.5-.2-.7-.3s-.5-.1-.8-.2c0-.3.6-.1.7-.1.2,0,.4,0,.6,0,.1,0,.3,0,.4,0,.6-1.5,1-2.8.3-4.3-.2-.5-.8-1.2-1.3-1.6,0,0-.2,0-.2-.1,0,0-.1,0-.2-.1,0,0-.1,0-.2,0-.1,0-.3,0-.4-.1-.1,0-.3,0-.4-.1-.1,0-.2-.1-.3-.2h1.9c.1,0,.2-.1.3-.2.7-.7.9-1.6.9-2.6s0-1-.1-1.5c0-.3-.2-.7-.3-1-.1-.3-.3-.6-.5-.9-.4-.5-.9-1-1.5-1.2h0c0,0,0-.1.1-.2.5-.3,1.7.9,1.9.7.5-1.5.3-2.6-.3-3.7-.2-.3-.4-.6-.7-1h0c-.2-.3-.5-.6-.8-.9h0s1.6.8,1.6.8c.1-.1.2-.2.3-.3,1.9-2.1,1-5.3-.9-7.2-.2-.2-.3-.3-.5-.5.4-.1.8.2,1.2.4.3.2.6.4.8.3h0c.3-.2.8-.9,1-1.3,0,0,0-.1,0-.2,0-.5,0-1.1-.1-1.7-.2-.7-.4-1.3-.9-1.6-.7.4-1.4.8-2.1,1.3-.3.2-.5.4-.7.6-.2.2-.5.5-.7.7-.2.2-.3.4-.4.6-.5.7-.7,1.6-.7,2.5-.2,0-.3-.5-.3-.6,0-2.3,2.3-4.4,4-5.6l-1.8-.5-.8-.8c.4.2.7.3,1.1.5.4.1.7.2,1.2.2.7,0,1.8,0,2.5-.3.2,0,.3-.2.4-.3-1.1-.3-2.2-1.1-3-2-.3-.4-.6-.8-.7-1.3,0-.2-.2-.4-.2-.7,0,0,0,0,0,0,.5.4.6,1.1,1.1,1.5.2.2.4.3.6.5t0,0c.2.1.4.2.5.3.5.3,1,.6,1.4.9l-.6-2.7.3-.2c0,.3,0,.6.2.8,0,.2.1.4.2.6.1.2.3.4.4.6.1.2.3.4.5.5.5.4,1,.7,1.6.9.7.2,1.5.2,2.4,0h0c.2-.1.2-.6.1-1,0-.2,0-.4,0-.5,0,0,0-.1,0-.1,0,0,0,0,0,0,0,0,0,0,.2,0,0,.5,0,.9.2,1.2,0,0,0,.2.1.3.4.8,1.1,1.3,2.1,1.5,0,0,.1,0,.2,0,0,0,0,0,.1-.1.2-.3,0-.9.5-.8-.4,1.5.7,3.2,2.4,2.8l.5-.9s0,0,0,.1c0,.1,0,.2,0,.4,0,.2-.1.3-.1.5s0,.1,0,.2c.5,1.5,3,1.6,4.1.7h0s0,0,0,0l-.3.5-.3.5c0,0,0,.2.1.3.5.6,2.9,1,3.4.9l-.3-.9h0c.3-.3.3.1.4.3,0,0,.2.2.3.3.6.6,1.4,1,2.3,1.2,0,0,0,0,0,0,.8,0,1.8,0,2.6,0s.2-.2.1-.5c0-.1-.1-.3-.2-.4,0,0,0,0,0-.1,0-.2-.2-.4,0-.5,0,0,0,0,0,0h0c0,0,.1,0,.1.1,0,0,0,.2.1.3,0,0,0,0,0,.1,0,0,0,.1.1.2.9,1,3.6,1.2,5.4.6.1,0,.2,0,.3-.1.2,0,.3-.2.5-.3.3-.1.5-.3.6-.5.2-.2.3-.4.3-.7h.3c.1.2-1.1,1.4,1.1,1,.1,0,.2,0,.3,0,.2,0,.4,0,.6-.2.4-.2.8-.3,1.1-.6.2-.1.3-.2.5-.4,0,0,0,0,0,0h0c0,0-.3-.2-.4-.3,0,0-.1-.2,0-.3,1.2.6,2.7.5,3.4-.3,0,0,.2-.2.2-.3.2-.4.3-.9,0-1.5,0,0,0-.2-.1-.3h0c.3,0,.4.2.5.3,0,0,.1.1.2.2.2.3.3.5.6.7.2,0,.4,0,.8,0,.1,0,.3,0,.4,0,.2,0,.3-.1.4-.2,0,0,0,0,.1-.1,0,0,.2-.2.2-.3,0,0,0-.2.1-.3,0-.2,0-.4,0-.6,0-.5,0-1,0-1.4,0,0,0,0,.1,0,0,0,0,0,0,0,0,0,0,0,0,.1,0,.1.1.3.2.5,0,.1,0,.3,0,.3.2,0,.3,0,.5-.1.5-.2.9-.4,1.3-.7.5-.5.9-1.2.7-2,.3,0,.2,0,.3.2.3.4.3,1,.3,1.5,1.7.4,3.3,0,4.3-1.2.7-.8,1.1-1.8,1-3,0,0,0,0,0,0,0,0,0,0,0,0,.1,0,.1.3.1.4.1.9-.2,1.6-.5,2.3,0,.2-.2.4-.3.6h0c.9,0,1.7-.5,2.3-1.1.3-.4.6-.8.8-1.2,0,0,0-.2,0-.3,0,0,0-.2,0-.3h0s.3.2.3.2l-1,1.9h0l-1.5,1.3h0c.1.1.3.3.5.3.5.3,1,.5,1.5.9,1.5,1,3,3,3,4.9l-.2-.5-.5-1.3c-.2-.4-.5-.8-.9-1.2-1.3-1.3-3.3-2.6-4.6-2.5-1.3,0-1.1,2-.3,2.8.1.1.3.2.4.3l.7-1.4.6-.4c-.3.4-.5.8-.6,1.2-.5,1.5-.2,3,1.4,3.9l1.2-1h0c0,.3-.3.6-.5.9-.2.3-.5.5-.6.8-1,1.8-1.3,4.6.2,6.2.1.1.2.2.3.3l1.1-.5,1-.5h0s-1.3,1.1-1.3,1.1c-.3.3-.6.7-.7,1,0,.2-.2.4-.2.6-.2.5-.2,1.1-.2,1.7,0,.3,0,.7.2,1h0c0,.2,0,.4.1.5h0c0,0,.8-.5,1.1-.6,0,0,0,0,0,0,0,0,0,0,0,0,0,0,0-.1.3.1-.5.5-.9,1.1-1.3,1.7-.2.3-.3.6-.4,1-.2.4-.3.8-.3,1.3,0,.6,0,1.2.1,1.8,0,.4.2.7.4,1.1.2.2.3.4.5.6.3-.1.7-.2,1.1-.3.3-.1.7-.2,1.1-.3h0c0,0,0,0,.1,0,0,0,0,.2,0,.2,0,0,0,0,0,0,0,0-.1,0-.2,0,0,0,0,0-.1,0-.2,0-.4.1-.5.2-.2.1-.5.3-.7.4-.2.2-.4.3-.6.5-.2.2-.3.3-.5.5-1.3,1.4-1.5,3.2-.6,5.4.7-.2,1.4-.4,2-.3,0,0,.2,0,.3,0-.5.3-1.1.4-1.7.7-.6.3-1.1.6-1.5,1.1-.1.1-.3.3-.4.5-.2.3-.4.7-.5,1.1-.2.7-.3,1.4,0,2.2l1.2.3,1.2.2s0,0,0,0c0,.1,0,.2-.1.2s-.2,0-.3-.1c0,0,0,0,0,0h-2.3c-.4,0-1,.1-1.5.4-.8.3-1.5.7-2.1,1.1-.1,0-.3.2-.4.3s-.2.2-.3.3c-.3.4-.6.8-.8,1.2-.2.3-.4.6-.6,1h0c0-.3,0-.5.1-.7.1-.3.3-.7.5-1,.2-.3.4-.6.6-.9,0,0,0,0-.1,0-.2,0-.4,0-.6,0-.2,0-.4.2-.6.3-.4.2-.7.4-.9.6-.3.3-1.1,1.6-1.4,1.4,0-.1.2-.2.2-.3,0-.2,0-.3,0-.4,0,0,0,0,0-.1-.1-.1-.3-.2-.5-.2,0,0-.1,0-.2,0-.2,0-.5,0-.7,0-.2,0-.3,0-.5,0-.1,0-.3,0-.4,0-.3,0-.5.2-.7.3,0,0,0,0-.1,0l-.8.8c-.1-.6.3-.8.5-1.2,0,0,0,0,0-.2-1.3-.5-2.7-.4-3.8.5.1,0,.3.1.4.3.3.3.5.7.6,1.2t0,0l-.8-.6-.5-.3c-.6-.2-1.1-.3-1.7-.4-1.4-.3-2.8-.2-4.2.3l.2-.4c-1.7,0-3.3.2-4.8,1-.1,0-.2,0-.3.1,0,0,0,0,0,.2h0c.4-.2.8-.3,1.1-.4,2.6-.6,5.2.9,7,2.8.1.1.2.2.3.3s.2.2.3.4h0c-1-.5-1.7-1.5-2.6-2-1.5-.9-3.5-1.2-5.3-.8-.2,0-.3,0-.5.1-.2,0-.4.1-.6.2-.6.3-1.3.8-1.4,1.4l-.4-.3c-.3.6-.8,1.1-1,1.8-.1.4-.5,1.5-.5,1.8v2.2s0,0,0,.2c0,0,0,0,0,.1,0,0,0,0,.1,0h0c0,0,0-.2,0-.2,0,0,0,0,0,0,.1,0,.3-.1.4-.2,0,0,0,0,0,0t0,0c0,.3-.2.6-.3.9,0,.1-.1.3-.1.5,0,.2,0,.3,0,.5,0,.8.2,1.5.5,2.3,0,.1.1.3.2.4.1.2.2.4.3.7.4.7.8,1.3,1.1,2,0,0,.1.2.2.3.1.2.2.5.3.7.5,1.5.7,2.8,2.8,1.5,0,0,0,0,0,0,0,0,0-.1,0-.1,0,0,0,0,0,0,0,0,0,0,0,0,0,0-.1,0-.2,0-.2,0-.4,0-.5,0,0,0-.1,0-.2,0-.2,0-.4.3-.6.1,0,0,0,0,0-.1,0,0,0,0,0,0l1.1-.3.8-.2h0c0-.4.1-.9.2-1.3.2-.6.4-1.1.7-1.6.6-1.3,1.3-2.5,1.2-4,0-.2,0-.4-.1-.6-.1-.4-.3-.6-.5-.9-.2-.2-.5-.4-.8-.6-.1,0-.3-.2-.5-.2-.3-.1-.7-.2-1-.3,0,0,0-.1,0-.2.1-.2,1.1-.1,1.2-.1.5,0,.8.3,1.2.4.1,0,.3,0,.4.1h0l-1.2-1.3-.2-.6c.1,0,.2.2.3.3.2.3.3.6.6.9,1.1,1.1,2.8,1.1,4.3,1l.2-.2c.1-.3-.3-1.2.3-1.1,0,.3,0,.5.2.7,0,.2.2.4.3.6,0,.1.2.2.3.3.5.6,1.4.8,2.5.4h0l.3-.6v-.3c.2,0,.3.2.3.3,0,.1,0,.3,0,.4,0,.2,0,.3.2.5.5.5,1.2.6,1.9.4.2,0,.5-.2.7-.3.2-.1.4-.3.6-.4,0,0,.2-.2.3-.2s.1-.1.2-.2v.7c0,.5,1.2.5,2.3.3.4,0,.7-.1.9-.2.2,0,.3-.1.4-.2,0,0,0,0,0,0,0,0,0-.1,0-.2,0,0,0,0-.1-.1,0,0,0,0,0,0,0,0,0,0,0-.1h0c.7.3,2.2.5,3.4.3.1,0,.3,0,.4,0,.1,0,.3,0,.4-.1.3-.1.6-.3.8-.5s.2-.2.3-.3c.1-.3.2-.5.1-.9-1.2-.3-2.4-.7-3.3-1.5-.2-.1-.3-.3-.4-.5-.1-.2-.2-.3-.3-.5l1.8,1.2c.2,0,.4.2.6.2.7.2,1.4.3,2.1.3.7,0,1.4-.1,2.1-.4.2,0,.4-.1.6-.2.4-.1.7-.3,1-.5.5-.3,1-.6,1.4-1.1.8-.8,1.4-1.8,1.5-3h-1.4c.2-.2.4-.3.6-.4.4-.2.8-.3,1.2-.5.2,0,.4-.2.6-.3.2-.1.4-.3.6-.5.1,0,.2-.2.3-.3s.2-.2.3-.3c.2-.2.3-.4.5-.6h0c.2-.2.3-.5.4-.7,0,0,0,0,0,0,.1-.2.3-.5.4-.7,0,0,0,0,0,0,0-.2.2-.5.3-.7.1-.4.2-.8.2-1.1,0-.2,0-.3,0-.5,0,0-.2,0-.3.1-.2,0-.5.2-.7.1,0,0,0,0,0-.1.1,0,.3,0,.4-.2.2,0,.5-.2.7-.4,0,0,0,0,0,0,.2-.1.4-.3.6-.5.1,0,.2-.2.3-.3,0,0,.1-.1.2-.2,1-1.2,1.6-2.8,1.4-4.2,0-.3,0-.6-.2-.8,0-.1-.1-.3-.2-.4,0,0,0,0-.1,0,0,0-.2,0-.2.2,0,0-.2.1-.2.2,0,0-.2.1-.3.2,0,0-.2,0-.3,0h0c.1-.1.3-.3.4-.4.3-.3.5-.7.7-1ZM117.9,188.9l1.6-.8.6-1.1c.3,0,.1.7,0,.9,0,.2-.3.6-.4.7-.3.3-1.5.9-1.9.4ZM120.8,209.9c.8-1.5.6-3.1.1-4.7,1.2,1.2,1,3.4.1,4.8h-.3ZM122.3,212.5c0,.6.1,1.5.3,2,.5,1.7,3,2.4,4.4,3.3,1.2.8,2.4,1.7,3,3l-2.1-1.6c-2-1.3-5.3-1.8-6.1-4.3-.5-1.5,0-3.4.3-4.9h.3c0,.9,0,1.7,0,2.5ZM122,195.3c-.9.8-1.6,1.1-1.9,2.3-.4,1.8-.1,3.9.5,5.6-.3.3-.8-1.4-.9-1.5-1-3.5.4-5.8.5-8.9,0-.8-.2-1.5-.4-2.2,0-.3.2-.3.2-.2s.7,2.1.7,2.4c0,1,0,2.1-.3,3.1.5-.3.9-.6,1.5-.5ZM145.4,177.5l-2.2-.4c.6.9,1,1.9.1,2.7,0-1,0-2.2-.8-2.9-.4-.4-.9-.4-1.3-.6-.6-.4-1.3-.8-1.9-1.3-.3-.3-2-2.3-2-2.5,0-.1.1-.2.3,0,.6.4,1.4,1.4,2,1.9,1.7,1.3,3.7,2.2,5.8,2.8v.3ZM148.3,180.9c0,.2-.5.8-.7.6.6-1.1.9-2.4.1-3.5l-1-1c1.8.3,2.3,2.4,1.5,3.9ZM153.1,180.7c-.4-.2-.2-.8-.4-1.2-.2-.5-.9-1.1-1.4-1.3-.4-.2-.9-.1-1.1-.5,1.9-.2,3.3,1.1,2.9,3ZM158.5,181.9c-.1.2-.2.4-.4.3.7-1.5.5-2.8-.5-4,1.5.4,1.7,2.5,1,3.6ZM159.3,176.5c-.5.7-1.8,1.4-2.7,1l2-1,1.1-1.5c.2.4-.2,1.1-.4,1.5ZM172.3,169.4c-.3.8-.1,1.8,0,2.7-.4,0-.2,0-.3-.3-.2-.4-.4-1-.4-1.4,0-.4.5-2,1-1.8.4,0-.3.7-.3.9ZM181.8,217.2c0,.1,0,.3-.2.4-3.6,4.5-10.2,5.4-15.6,4.8l1.6-.3c5.3-.3,11.3-1.4,14.7-5.9.3.4-.3.6-.5.9ZM184.1,210.4c0,.2,0,.4-.3.5-.2-4.7,2.5-9.1,1.9-13.9,0-.3,0-.2.3-.2,0,.6.3,1.1.3,1.7.2,3.4-1.3,8.5-2.2,11.9Z"/>
    <path class="st3" d="M188.4,145.7c-.6,3.3-2.7,7.8-4.7,10.4-6,7.6-19.2,8.7-26.8,3,1.2,0,2.2-.5,3.1-1.1l.7-.8c-.4,0-.7.4-1.1.6-4.2,1.9-6.9-1.3-11-.9-2.1.2-6,2.2-7,4.1-4.6,8.3,5.9,11.1,12.1,10.7l1.3.3c-1,.3-2.1,0-3.2.1-.5,0-1.5,0-2,.1-.4,0-.7.5-1.2.4-.3,0-.6-.4-1-.5-1.3-.5-1.2-.5-2.2-1.2-.5-.4-2.3-1-2.9-1.1-1-.1-1.9.3-2.9-.2-.6-.4-1.3-1.9-1.5-2.6-2-6.5,2.7-12.2,7.9-15.4,2.2-1.4,5.9-3.4,8.4-4.1,3.1-.9,6.9-.2,9,2.4l-.6-1.1-2-1.6c3.9-1.1,4.9-6.5,3.4-9.8-.6-1.4-1.7-2-2.4-3.2-.2-.4-.3-1-.6-1.1l.2,1.2.6,1.3c-3.5-1.6-5.9-4.9-6.6-8.7-.4-2-.4-3.8-.4-5.8,0-7.2,0-14.4,0-21.6h2.5c0,2,0,3.9,0,5.8,0,4.6-.4,10.4.6,14.8.5,2.2,1.7,5.4,4.3,5.7,0,.1-.8,1.5-.8,1.8v2c.4-.2.2-.9.3-1.3.6-2.4,2.3-3.4,4.5-4.3,12-4.8,24.2,10.1,22.2,21.5Z"/>
    <path class="st3" d="M145.7,148.6c-.6.9-1.7,1.4-2.3,2.1s-.6,1.2-1,1.3-.5-.7-.6-.9c-.1-.5-.2-1-.2-1.5-.4,0-.2,1-.3,1.1l-1.1-.5v-.3c2.6-1.1,3.2-3.8,3.4-6.3,0-.3.1-.7-.3-.6,0,2.6-1.3,6.2-4.1,6.8s-.6-.1-1,0-1.5,1.2-2.1.8-.3-1.1-1.7-.7c-1.5.4-2.1,1.6-3,2.7s-1.2,1.1-1.7,1.9c-1.7,2.5-1.6,6-4.4,7.6-5.5,3.2-6.6-3.3-7.1-7.3-.9-7.3-.7-14.1,2.5-20.8,4-8.4,12.9-9.6,21-6.5l1.7,1.2c-.6-1.1-1.7-1.6-2.7-2.1l-1.9-.6,4-.3,3.4-.5c2.7-.2,5.4-.1,8.1,0,0,4.1,2.4,8.7,5.9,10.8s3.4,1.2,3.2,2.3c0,.3-1.9,2.3-2.2,2.6-4.7,4.7-11.8,7.2-17.5,10.5-.2-.1,0-.3.1-.4.4-.4,3-2,3.7-2.3s1.6-.5,2.3-.9c1.1-.6,1.8-1.8,2.9-2.4s2.1-.7,3-1.1c2.1-.9,4.3-2.1,5.4-4.1h-.3c-1.1,2-4,3-6.1,3.7s-.7,0-1,.1c-2.7.8-3,2.5-5.1,3.5s-2.7.8-4.1.9-1,.2-1.6.1c0,0,.2.3.2.3h2.2Z"/>
    <path class="st3" d="M140.6,193.1c-.4,0-.6,0-1-.3-2.3-1.7-4.5-8.2-6.8-10.6-.9-1-2.6-1.7-2.6-3.2-.6,1,.5,2,1,2.8,0,.2-.6,1.1-.7,1.3-.3.3-.8.3-1,.7l1.5-.3c-.2,1.1-.5,2.2-.4,3.4.6-.2.5-2.1.8-2.3.7-.2,1.4,0,2.1.4l4.7,7.1.4,1.4c-1.5.7-2.8,1.3-3.8,2.6l-1,2c-1.3,0-1.6-1.6-2.3-2.1s-1.3-.5-1.8-.9-1.2-1.5-1.6-1.8-1,0-1.2-.4c-.3-.5-.3-1.5-.8-2,0-.3.4-.4.5-.7s.5-1,.5-1c.6-.5,1.2.2,1.7.3,1.2.2,1.5-.3,2.5.9s1.9,2.7,2,3.4-.2,1.4.2,2.2,0,.3.3.3c-.6-1,0-1.8.2-2.8-.4-.6-2.3-4-2.3-4.5s.9-.8.8-1.3c-1.2,1.2-2.5,1.5-4.1,1.1l.8-.7c-.6.2-1.2.2-1.9,0,.2-1.6-.1-3.2-1-4.6.8-.9,1.2.1,2.2,0-.2-.3-1.1-.4-1.1-.9s.8-.7.8-1.6-.2-.5-.1-.6.7-.4.9-.7c.6-.8.7-1.6.6-2.6.7.2,1.6.2,2.2.1s1-.4,1.1-.4c.1,0,.6.6.8.7,1.6,1.1,3,2.7,3.8,4.5s.4,1.6.9,2.4c.9,1.6,2.5,2.6,3.2,4.3-.8.3-1.2.6-1.6,1.4.6-.1.7-.7,1.3-.8s.6,0,.9,0c-.3.9.2.6.3,0,.3.9.7,1.5,1.6,1.8.3-.3-.4-.3-.6-.6-.4-.5-.5-1.1-.3-1.7.7,0,1.1.2,1.7-.1s1.6-1,1.4-1.3c-.5.1-.8.5-1.4.6-2.3.5-5.3-2.5-6.3-4.5l1.1.3c-1.3-.6-1.4-1.8-1.2-3.1.6.3.9.8,1.6.9s1.1,0,1.5,0,1.4,1,2.3,1.2,1.7,0,2.5.1,2.4,1,3.4,1.1,1.5-.4,2-.4,1.2.3,1.8.4c3.5.5,8.1-1.2,11.3-2.6s1.9-1.1,3-1.1l-.2,1.2c.4-.7.9-1.6,1.5-2.2s.7-.5,1.3-1.2c1.1-1.3,1.6-1.4,3.3-1.1s1.3.2,1.3.9c-.4,0-1,.2-1.4.3s-.3,0-.3.3c.7-.2,1.4,0,2,.4s.4.7.6.9.8.3.8.4c0,.2,0,1.1,0,1.5.2.8,1.2,1,1,1.8-.4,1.5-2.9,3.2-4.2,3.8-2.5,1.1-8,3.8-10.4,4.2-1.3.2-3.2,0-4.6.2s-4.2.9-4.5.9-1.5-.4-1.6-.4c-.2,0-.3-.2-.4-.3.4-.5.9-1,1.1-1.6s.3-.4,0-.3c-.3.6-1.5,2-2.2,2s-1.7-1.1-2.5-1.1c.6.6,1.3.7,1.6,1.6-.2.1-1.5-.2-1.5.1s1.4.2,1.8.5.4.6.4.7c.2.7-.8.6-1,1.1,1.7-.4,2.5-.7,3.1,1.2,0,.2-.1.4.3.3.1-.8-.5-1.4-.8-2,0,0,1.5-.8,1.7-.9,2.7-1,5.7-.9,8.6-1.1s3.8-.9,5,.7c0-.6-.6-.9-1-1.2s0-.1,0-.2c1.9-1.3,6.8-3.8,9-3.7s1.7,1.4,3.1,2.6c-.9,1.7-.6,3.2,0,4.9s.3.5,0,.4-.5-1.1-.6-1.4c-.6-.9-1.5-1.5-2.6-1.6,0-.5.3-.9.4-1.3s.1-.9-.1-1c-.2,2.5-1.9,1.8-3.6,2.1s-2.9.5-3.8,1.4-.7,1.4-1.4,1.5-1-.3-1.3-.3c-.5,0-1.6,0-2,0s-1.2.9-1.6.9-1.4,0-2,0c-3.5.3-5.1,1.2-8.2,2.5s-2.1-1.3-2.8-2.7v-.2c.2-.2.7,0,.5-.3-.2-.5-.8.3-1.1,0-.7-1-1.6-1.6-2.6-2.3,0-1.2.6-2,1.5-2.7-.3-.2-1.3.8-1.4.8.6-2.6,3.4-3.6,5.8-3.4s2,.7,3.1.9c2.9.6,5.9-.6,8.7-1.4v1.2c.4-.7.6-1.4,1.5-1.8,2.2-1.1,4.8-1.7,7.1-3,1.2-.7,2.2-1.9,3.8-1.6,0-.2-.4-.2-.5-.3-1.7-.2-3,1-2.9-1.7,0-.2,0-.4.1-.6-.3-.3-.5.9-.5,1,0,.4.3,1.2.2,1.4s-.9,1-1.1,1.1c-1.3,1-3.6,1.3-5.1,1.9-3.2,1.3-6,2.7-9.6,3-1.8.1-2.5-.6-4-.8s-2.3.1-3.4-.1c-2.6-.7-4.8-2.9-7.4-3.8l-1.5-1.6.8,1.7-.8.3c.2.5.7,0,1,0l5.6,3.1c.4.2.5,1,.3,1.4s-.4.3-.5.4c-.3.4-.8,1-1,1.4-.5,1.1,0,2.2-1.4,2.5s-1.6-.5-2.2-.9l.3,1c-.7,0-1.5,0-2.2,0Z"/>
    <path class="st3" d="M167.7,166.1h-.7c0,0,0-.1,0-.1,0,0,0,0,0-.1.1,0,.3,0,.3-.1-.2-.4-.5-.5-.8-.6-.2,0-.4,0-.6-.2-.3-.2-.6-.5-.8-.7,0,0,0,0,0,0-.4-.1-.9,0-1.3,0-.2,0-.3-.1-.5-.3-.2-.1-.4-.3-.6-.4-.2-.1-.4-.3-.7-.3-.1,0-.2,0-.3-.1-.2,0-.5,0-.7,0,0-.4,0-.7-.3-.9,0,0,0,0-.1-.1,0,0-.2-.1-.3-.2-.1,0-.3-.1-.4-.2-.2,0-.4-.1-.6-.2-.3,0-.5-.2-.7-.3-.5-.3-1.1-1.1-1.7-1.2-.2,0-.4,0-.6,0-.1,0-.3,0-.4,0,0,0-.1,0-.2,0-.2,0-.3-.1-.5-.2-.2-.2-.4-.4-.7-.5-.3-.2-.5-.4-.9-.5-.1,0-.3,0-.4,0-.7,0-1.3.1-1.9,0,0,0-.2,0-.2,0-.2,0-.3-.1-.5-.2-.2,0-.3-.2-.5-.2-.2-.1-.5-.2-.7-.2-.8,0-1.7.6-2.6.7l-.2.4v.2c0,0-.1,0-.1,0l.4.3-.7-.2h0s-.2.3-.2.3h-1.4c0-.1-.2.9-.2.9v.2s.8,0,.8,0h0c0,.2,0,.2,0,.3-.1,0-.3,0-.4.2,0,0,0,0,0,0h2.7c.2-.4-.3-.3-.3-.7l.7-.4h0l-.3-.8h0s0,0,.1.2c0,0,0,.1.2.2.7.7,1.8.9,1.9-.4h.8c0,.2,0,.3,0,.3,0,0,0,0,0,0,0,0-.2,0-.3,0-.1,0-.3,0-.3,0h0s0,0,0,0c0,0,0,.3-.3.5-.7.5-1.3-.1-2,.4h0c0,.1,0,.2,0,.3,0,0,0,0,0,.1.3.4,1.4.4,1.7.3,0,0,0,0,0,0h0c0-.1,0-.3.1-.5h.7c0,.2,0,.4,0,.5,0,0,0,0,0,0,0,0,0,0,0,.1.1.1.3.2.5.2.4,0,.8,0,1.2,0,0,0,.1,0,.2,0,0,0,0,0,0,0,0,.2,0,.4.2.6,0,0,.1,0,.2.1,0,0,.2.1.3.1.1,0,.3,0,.4,0s.3,0,.3,0l.3-.6c0,.4,0,.8.3,1,.3.4.8.4,1.5.1v.5c.5.3,1,.4,1.6.3,0,0,0-.1,0-.2,0-.1,0-.3-.2-.4,0-.1-.1-.2-.2-.3,0,0,0,0,0,0,0,0-.1-.1-.2-.2,0,0-.2-.2-.3-.2-.2,0-.7.4-.9.2,0,0,0-.2-.1-.3.3,0,.6,0,.9,0,0,0,.1,0,.2,0,.3-.1.5-.3.6-.7,0,0,.1,0,.1.1.1.2,0,.3-.2.5,0,0,0,0,0,0-.1,0-.2.2-.2.3h0s.4.2.4.2l.4.2h0c.2.3-.3.3-.3.3,0,.6,1.2,1.2,1.8,1,0,0,0-.2,0-.2,0,0,0,0-.1-.1,0,0-.2-.1-.2-.2,0-.1,0-.3,0-.4,0,0,0,0-.1,0-.2,0-.4,0-.5-.3,0,0,0-.5.3-.5,0,.1.1.3.3.4.6.5,1.8.9,2.1.3.4.4,1,.6,1.6.4-.2.3,0,.5.2.7.2.2.4.3.7.4h0c.1,0,.3.1.4.2,0,0,.1,0,.2,0,.1,0,.2,0,.3,0,.3,0,.5,0,.5,0,.1,0,.2-.2.3-.3,0,0,0-.1.2-.2,0,0,0,0,.2-.1h0s-.1.4-.1.4c.1,0,.2,0,.3,0,0,0,.1,0,.2.1.3.3.3.8.5,1,0,0,.1,0,.2,0s.2,0,.3,0c.3,0,.6,0,.8,0h0c0,0,0,.1,0,.1,0,0-.2.1-.3.1,0,0-.1,0-.2,0-.2,0-.5,0-.8,0-.3,0-.6,0-.9,0-.1,0-.3,0-.4,0h0c0,0,0,.1.1.2.3.3.8.5,1.3.6.3,0,.6,0,.8,0,0,0,.2,0,.3-.1,0,0,.1,0,.2,0,.1,0,.2-.1.3-.2.2,0,.4-.1.5-.1l-.9-.8ZM145.8,160.8c0,0,0,.6-.5.4.4-.5.6-.5.4-1.2.3.2.3.8.8.8-.1.5-.5-.1-.7,0ZM149,158.4c-.2.4.1.6.3,1-.4.3-1.1-1-.3-1ZM152.3,159.7c-1,0-.4,1.4-1.5,1.3,1.5-1.5,0-.8-.3-2,.5.6,2,1,1.5-.1l.5.2c-.3.7.6.6.6,1.2-.3,0-.6-.5-.9-.5ZM152.5,161.7v-.7l.7.2v.5c-.2-.2-.4,0-.7,0ZM154.3,160.2h-.5s.8-.7.8-.7c.1,0,0,.3,0,.4,0,0-.3,0-.2.2l.5.9h-.5c0-.1,0-.8,0-.8ZM154.6,162.3c.1-.3.5-.4.7-.6.2-.3-.2-.5.2-.5.5.5-.4,1.3-.9,1.1ZM156.5,161.4c0,0,0-.1,0-.2.2-.8,1-.3,0,.2ZM158.4,162l.3-.5c-.1.6.2.7.3,1.2l-.7-.8Z"/>
    <path class="st3" d="M174.8,194.4c.3.3.2.8.6.8l-.7-1.4c2.2.2,3.8,1.1,4,3.5s-.3,3.7,1.5,5.2c-2,1.8-2.1,4.2-1.4,6.7-1.4,1.2-2.1,3.2-1.8,5-1.4-.1-2.4,1.1-3.7,1.2.3-1,1-1.9,1.3-3,.8-2.2,1.1-5.9,1.1-8.3s-.2-.6-.1-.9c.5.5,1,.7,1.7.7s.5,0,.5-.1c-.8,0-1.4-.4-1.8-1s-1.4-3-1.4-3.8c-.1-1.3.6-1.4.9-2.5l-.9,1c-.7.4-1.1-.7-1.6-1.2-.8-.7-1.5-.7-2.5-.7,0,.5.5.2.8.3,1.8.6,1.6,1.7,2.1,3.1.4,1,1,1.9,1.3,3,.5,2-.1,4.1,0,6.1-.5-.4-.8-.9-1.5-1.1,0,.4.5.4.8.8.5.7.5,2,.4,2.8s-1.7,4.7-1.9,4.8-1.1.4-1.4.6-.6.7-1,.9l-2-.2c-.2,0-.3-.6-.2-.7s.9-2.4,1-2.8c.4-.9,1.2-2.8,1.6-3.5s.6-.8,1-1c0-.6-.8.3-1.1.2,0-.9,0-1.8.1-2.7s.2-.8.3-1.2,0-.8,0-1.1c0-.7,1-1.6,1.4-2-.4-.3-1.4,1.1-1.6.9l-1.1-2.9c.4.2.9.2,1.3.1s.4,0,.2-.3c-2.7-.2-3.1-3-1.2-4.6s3.8-1.8,4.9-.6Z"/>
    <path class="st3" d="M127.2,197.3l.6-.3.9,1.2v-1.8c0-.2,2.2.4,2.5.6s.6.8,1,1.1.9.4,1.3.6c-.2,2.1.6,4.2,2.6,5.1-1.1,4.3-6.5,2.3-8.6,0l-.6-1.4c0,.7.1,1.2.4,1.8s.8.9,1.3,1.3c.7.6,1.4,3.5,1.3,4.4s-.9,1.3-1.7,1.5c-.2-1.2-.9-2.2-1.9-3,.9-2.3.9-4.7-1.1-6.4l.6-.6c.8.4,1.7-.3,2.3-.3s2.4.9,2.6,1.2c-.2.9.1,1.7.5,2.5h.3c-.4-.6-.3-1.3-.3-2,1.2.2,1.4,1.1,2.8,1.2s.9,0,.9-.2c-1.1,0-1.7-.9-2.5-1.5s-2.4-1.5-3.1-1.7-.8-.3-1.2-.2l.4-1.6-1.2,1.2-.9.4c0-.8.2-1.5.1-2.2s-.7-2.2-.7-2.7.8-1.4.3-2.3c.6,0,1.6.9,1.6,1.4s-.5,2.2-.8,2.7Z"/>
    <path class="st3" d="M165.7,167.5c0,0-.2,0-.3-.1,0,0,0,0,0,0,0,0-.2-.1-.2-.2,0,0,0,0-.1,0,0,0-.1-.1-.1-.1,0,0-.2,0-.3.2s-.5.2-.8.1h0s0,0-.2,0c-.3-.1-.9-.3-1-.4,0,0,0,0-.1-.1-.1-.1-.2-.3-.3-.4,0,0,0,0-.1-.1,0,0,0,0-.1,0,0,0-.1,0-.2,0,0,0-.1,0-.2,0s-.2,0-.3,0c0,0,0,0,0,0-.2,0-.3.1-.5.2,0,0-.2,0-.3,0h0c0,.3.2.4.3.5,0,0,0,0,.1,0,.3.2.7.1,1,.1.1,0,.3,0,.4,0s0,0,.2,0c-.2.1-.3.2-.5.3-.3.1-.6,0-.9,0-.2,0-.4-.2-.6-.3-.1,0-.3-.1-.4-.1,0,0,0,0,0,0-.1,0-.2,0-.4,0h0,.5c0-.1,0-.5,0-.5,0,0-.1,0-.2,0-.1,0-.2-.1-.3-.2,0,0,0,0,0,0-.1,0-.2-.1-.3-.2,0,0-.1-.2-.2-.3,0-.2,0-.4.2-.8h0c-.6.3-1.2-.2-1.6-.3,0,0,0,0-.1,0h0c-.3,0-.6.2-1.1,0-.2,0-.5-.2-.8-.4,0,0-.2,0-.3-.1,0,0-.2,0-.3,0-.4,0-.8,0-.9-.1,0,0,0-.3-.3-.2h0s0,.3,0,.3l-.2.2.4.8h-.5c.1-.3.1-.5,0-.6,0,0,0,0,0,0-.1,0-.3,0-.3-.1,0,0,0,0-.1,0,0-.1,0-.2,0-.2,0,0,.1,0,.2,0,0,0,0,0,.1,0,0,0,0,0,0,0,0,0,0,0,0-.2l-1.9-.4.8,1h0c-.1,0-.3,0-.4-.1,0,0-.2-.1-.2-.2,0,0,0,0,0,0,0,0,0,0,0,0,0,0,0,0,0,0,0,0,0,0-.1,0,0,0,0,0-.1,0-.2,0-.4.2-.7.2-.2,0-.5-.2-.7-.5,0-.1-.1-.3,0-.4,0,0,.1.2.2.2.3.3.8.4,1.1.3,0,0,.2,0,.2-.1,0-.1,0-.3,0-.5l-3-.3h-.3s.3.8.3.8h0c-.2,0-.3,0-.4-.1-.1-.1-.1-.3-.2-.6h-.2c-.3-.1-.7-.2-1-.2-.3,0-.6,0-.7.2-.2,0-.2.3-.1.6,0,.1,0,.2.1.4-.1,0-.2,0-.3,0,0,0,0,0,0,0,0,0,0,0,0,0,0,0,0,0,0,0-.2,0-.3.2-.4.2-.1,0-.3,0-.4,0-.2,0-.3,0-.5,0,0,0-.1,0-.2,0,0,0,0,0,0,0,0,0,0,0-.1.2,0,0-.1.2-.2.2-.2.2-.3.4-.5.5,0,0-.1,0-.2,0,0,0,0-.2,0-.3h0s.3,0,.5-.3c0,0,0-.1.1-.2,0,0,0-.1.1-.2,0,0,0-.2.1-.2,0,0,0,0,0,0h0c.2-.1,1.8.2,1.9-.8h-.2c-.1,0-.3.1-.5.1-1.2.2-3,.3-3.6.8,0,0,0,0,0,.1,0,0-.1.2-.1.3,0,.3,0,.7,0,1.1v.5h0s0,0,0,0c.1,0,.2-.1.3-.2s.2-.2.2-.3c.2-.3.2-.7.1-1.1l.8.5v.3c0,0-.5-.1-.5-.1l-.5.9c0,.2.2.3.3.4.3.2.7.2,1-.2,0,.8,1.3,1.1,1.9.7h0c0,0,0,0,0-.1,0,0,0,0,0,0,0,0,0,0,0,0,0,0-.1,0-.2-.1-.2-.1-.5-.2-.5-.3v-.4c-.1,0-.3,0-.3,0,0,0,0,0,0,0,0,0,0,0-.1.2,0,0-.1,0-.2.1,0,0-.2,0-.3,0,.3-.3.3-.5.1-.9h0c0,0,.2,0,.3,0,.5.3,1,.3,1.4-.1,0,0,0,0,.1-.1,0,0,0,0,.1-.1,0-.1-.4-.4-.2-.5,0,0,0,0,0,0,0,0,0,0,.1,0,.2.3.3.5.5.7,0,0,.1,0,.2.1,0,0,0,0,0,0,0,0,.1,0,.2,0h0s0,0,0,0c0,0,0,0,0,0s0,0,0,0c-.2,0-.3,0-.4-.2,0,0,0,0-.1,0h0s0,0-.2,0c0,0,0,0,0,0,0,0-.2.1-.2.2-.1.1-.3.2-.4.2,0,0,0,.2,0,.3.2.2.5.4.6.4,0,0,0,0,0,0,.2,0,.5,0,.5,0h0c0,0,0,.5.3.7,0,0,.1.1.2.1,0,0,0,0,.2,0,.3,0,.5,0,.7,0,.1,0,.2,0,.3-.1.1,0,.3-.2.5-.3h0c0,.2,0,.4-.2.5,0,0-.2.2-.3.2-.5.2-1.1,0-1.5-.3-.1,0-.2-.2-.3-.3,0,0,0-.1,0-.2l-1.4.7c.3.7.6,1.1,1.4.9,0,0,.2,0,.2,0,.2-.1.4-.4.7-.3l-.7.7h0c.4,0,.8,0,1.2,0,0,0,0,0,.2,0,0,0,0,0,.1,0,0,0,0,0,.1,0,0,0,.1-.2.2-.3.1,0,.2.2.3.2.2.1.4.2.7.3.4,0,.9,0,1.4-.3h0c0,0,0,.1,0,.2,0,0,0,0,0,.1,0,0,0,0-.1,0,0,0,0,0-.1,0,0,0-.2,0-.3,0-.1,0-.2,0-.3,0h0s0,0,0,0c.1.2.3.3.5.4.4,0,.9-.1,1.3-.1.5,0,1,.2,1.6.3.2,0,.3,0,.5,0,.3,0,.6,0,.9,0s.6,0,.9.2l-1-.9c-.1,0-.3,0-.5,0-.1,0-.2,0-.3,0-.3,0-.7,0-.9-.2,0,0-.2,0-.2-.1,0,0-.1-.1-.2-.2,0,0,0-.1,0-.2,0,0,0,0,0,0,.1,0,.5.2.6.3,0,0,.1,0,.1,0,.2,0,.9,0,1,0l.3-.6-.5-.7s0,0,0,0c-.1,0-.2,0-.3,0,0,0-.2,0-.3.1-.2,0-.3.2-.5.3,0,0-.1.1-.2.2-.2.2-.4.3-.7.4-.3,0-1.2,0-1.6-.3,0,0-.1,0-.1-.1,0,0,0,0,0-.1,0,0,0-.2,0-.2,0,0,.2,0,.3,0,0,0,.2,0,.2.1,0,0,.1,0,.2.1h0s.1,0,.2,0c.2,0,.4,0,.6,0,0,0,.1,0,.2,0h0c.1,0,.2,0,.3-.1,0,0,0,0,0,0,.1,0,.2-.1.2-.2,0,0,0-.1,0-.2,0-.1,0-.3-.2-.3,0,0,0,0,0,0-.4-.3-1.1-.4-1.6-.4,0,0-.2,0-.2,0v-.5c.1.1.3.2.4.2.3,0,.5,0,.8,0,.1,0,.3,0,.4,0,0,.6.5.8,1,.8s.3,0,.4,0c0,0,0,0,0,0,.1-.1,0-.3.2-.4,0,0,0,0,0,0,0,0,0,0,0,0s0,0,.1,0c0,.2,0,.4,0,.6,0,.1.1.3.2.4,0,0,.2.2.3.2.3.1.8.1,1.1-.2v.8c.1,0,.1,0,.1,0,0,0-.2-.1-.3-.2,0,0-.2,0-.3,0,0,0-.1,0-.2,0-.2,0-.5,0-.8,0,0,.8,1,1.5,1.8,1.3.2,0,.3-.2.5-.3,0,0,.1,0,.2,0,0,0,0,0,0,0h0s0,0,0,0l-.3.5h0c.2,0,.4,0,.6,0,.1,0,.2,0,.3-.1.1,0,.2,0,.3-.1,0,0,.1,0,.2,0,0,0,.1,0,.2,0,0,0,.2,0,.3,0s.2,0,.3,0c.4.1.8.4,1.2.3l-1-.9c-.3.1-.5.1-.7,0-.2,0-.3,0-.5-.1,0,0,0,0,0,0,0,0-.2,0-.3,0s-.2,0-.2,0c0,0-.1,0-.2,0-.3,0-.5.2-.8-.1h.8c.1-.2-.6-1.4-.8-1.4-.2,0-.6.2-1,0,0,0,0,0-.1,0,0,0,0,0,0,0,0,0,.2,0,.2-.1.3,0,.5,0,.9-.1,0,0,.1,0,.2,0,0,0,.1,0,.2-.1.1-.1.2-.2.2-.4l.2.3h0l-.6.4h0s0,0,0,.1c0,.2.3.1.3.3h0s0,0,0,.1c0,0,0,.2,0,.3,0,0,0,.1.1.2.3.4.9.7,1.4.5.1,0,.2,0,.3-.2,0-.1,0-.3,0-.4-.3-.3-.8-.5-.7-.9h0c0,0,.2,0,.2,0,0,0,0,0,0,.1,0,0,0,.2,0,.2,0,0,0,.1,0,.2.2.1,1.3.6,1.5.6.2,0,.3,0,.5-.1,0,0,.2-.1.2-.1.1,0,.4.3.6.4.1,0,.3,0,.4,0,0,0,0,0,.1,0,0,0,0,0,0,0h0s0,.3.2.4c.4.3,1,.4,1.5.2,0,0,.2,0,.3-.1,0,0,0,0,.1,0,0,0,.2-.1.3-.2,0,0,.2-.2.2-.4l.5.4c.1,0,.2,0,.4,0,.3,0,.7,0,.9-.2h0s-.1,0-.2,0ZM146.8,164.9c0,.2.6.6,0,.6l-.5-.8.8-.4c0-.2-.6-1.2,0-1.1-.3.8.5,1.2,1.3,1.1.3,0,.8-.7.8-.2-.8,1-1.8,0-2.5.8ZM147.7,166.1c0-.4.1-.2.3-.3.3-.2.6-.3.9-.5,0,.6-.7.9-1.2.8ZM148.8,165.1v-.3h.8c0,.2-.1.5.1.7l-1-.4ZM149,163.5c.3,0,.8-.1,1,.3-.3,0-.8.1-1-.3ZM150.3,164.8l.8-1.1c0,.5-.3.9-.8,1.1ZM151.4,164.2l.2.5c-.4,0-.6-.3-.2-.5ZM152.8,165.4h-.5c0-.1-.3.1-.3.1v-.7l.6.2.2-.3v.7ZM154,165.9c0,0,.9-.3.7-.8h.4c.1,0-.8,1.5-1.1.8ZM157.1,164.9h.3c0,0,1.2,1.6,1.2,1.6-.4.3-1.2-1.3-1.5-1.6ZM144.4,166.7s0,0,0,0c0,0-.5,0-.7,0,0,0,0,0-.1,0,0,0-.2,0-.3-.1-.3-.1-.7-.3-1.1-.4-.1,0-.2-.1-.3-.2,0,0,0,0-.1,0,0,0,0,0-.1,0h0c0,.6.2,1.5.8,1.7,0,0,.2,0,.3,0,0,0,.1,0,.2,0,0,0,.2,0,.2,0,0,0,.2,0,.3,0,.4,0,.6.3,1,.3v-.5c-.1,0,0,0,0,0,0,0,0-.2,0-.2Z"/>
    <path class="st3" d="M137.8,207.5c1.5-.3,3.4,2.1,2.5,3.3s-.3,0-.4,0,0,.2,0,.3c-1,1.4-3,.9-4.4,1s-3.4.7-4.8,1.6c-.6-.1-2.7-.8-2.2-1.6,1.1-.2,2.2-1.1,2.3-2.3.1-.1,1,.5,1.3.6,2.2.9,4.2,1,6.5.4.2-.2,0-.2-.2-.3-.6,0-1.7.3-1.9-.5s-.2-1.4.1-1.9.6-.3.6-.7c-1,.3-1.6,1.1-1.8,2.1-2.3.8-4.9-.6-5.2-3.1,1.7,1.2,4.3,1.1,5.8-.4.7-.7.5-1.4,1.7-.9s1.3,1.3,1.9,1.9c-.2.3-.2.1-.4.1-.4,0-1.2-.2-1.4.2Z"/>
    <path class="st3" d="M167.5,215.1c-1.9,1.3-4.2,1.4-6.4,1.7s-2,.3-3,.3-2.1-.4-3,0c-.3-.4,2.2-2.8,2.7-2.9s2,.2,2.8,0c1.3-.2,2.2-1,3.3-1.4,1.1-.4,3-.5,4.1,0,0-.5-.8-.6-1.1-.7.9-.5,1.8-.8,2.4-1.7l-1.7,4.9Z"/>
    <path class="st3" d="M132.9,154.2c-.1-.7-.2-1.4-.2-2.2-.5.4-.9,1.3-1.2,2-.7,1.6-1.9,5.4-1,7.1,0,.1.1.3.2.4h0c.6.8,2.5.5,3-.4.9-1.6-.5-5.1-.8-6.9ZM131.5,161.6c-.2,0-.9-.6-.7-.8.1-.1,1.1,1,1.9-.2,1.2-1.6-.3-4,0-5.8l1.1,4c.1,1.2-.8,3.2-2.3,2.7Z"/>
    <path class="st3" d="M138.7,150.5v2c0,.4.6.6,1,.6s1.3-.7.9-.2c-2,1.3-4.2,2.4-6.5,3.1-.1-1.3-.8-2.6-.5-4l1.8-.5c1.4,2.6,1.9-.9,3.3-1Z"/>
    <path class="st3" d="M140.8,207.3c-.3,0-.3-.1-.4-.2-.9-.9-1-1.6-2.2-2.4s-1.3-.4-1-.7c1.3,0,2.5-.3,3.5-1,0,.5.3,1.1.3,1.6,0,.8-.4,1.9-.1,2.7Z"/>
    <path class="st3" d="M162.5,164.7h-1.4c0-.1,0,.4,0,.4,0,0,.2-.2.3-.2.4,0,2.3.1,2.4.6.1.8-2.3.5-2.5-.2-.2.1,0,.5-.3.6-1.1.5-2.2-.9-.7-1.1-.4-.4-1.2-.5-1.2-1.2,0,0,1.1.4,1.3.4s.4-.2.6-.2c.3,0,1.4.5,1.5.9Z"/>
    <path class="st3" d="M167.6,164.6c0,0,0,.4.2.6s1.3,1.1,1.1.5-1-.4-1-1c.5.1,2.5.4,2.4,1l-.8.3.3.4c-1.4.3-1.7-.6-2.7-1.3-.1-.2.6-.3.1-.4s-.6.1-1,0-.7-.3-.9-.6h1.1c.2,0,1.1.3,1.2.4Z"/>
    <path class="st3" d="M139.4,152.3v-2c.5-.3,1.2.3,1.6.7s1.2,1.6.3,1.4c-.5-.7-1.2-.2-1.9,0Z"/>
    <path class="st3" d="M128,179.7c-.1-.8-.8-1.2-1.2-1.8.8-.1,1.6-.3,2.2-.8,0,.9.1,2.3-1,2.6Z"/>
    <path class="st3" d="M162,168.1c-.2.6-.9.2-1,.2-.2,0-.4.4-1.1.4s-1.4-.7-1.3-1,.8,0,1,0c.8-.2,1.6.2,2.4.4Z"/>
    <path class="st3" d="M164.8,166.8c-.5.1-.9,0-1.4,0s-.8-.3-.9-.5c.7,0,1.7.2,1.7-.8.4.4.5.9.6,1.4Z"/>
    <path class="st3" d="M128.7,159l.5-1.5.9-1.8c-.3,1.2-.1,2.6-1.4,3.3Z"/>
    <path class="st3" d="M177.9,187.9l-1.5-.3,1.4-1.4c.2.5-.2,1.1,0,1.6Z"/>
    <path class="st3" d="M153.3,193.5c-.7.9-1.5.6-1.9-.4.8-.3,1.1.4,1.9.4Z"/>
    <path class="st3" d="M146.5,158.6c.2.7-1.4,1.2-1.8.8s.2-.3.3-.3c.4-.3,1-.5,1.5-.5Z"/>
    <polygon class="st3" points="132.9 183.9 131.5 183.8 131.7 182.3 132.9 183.9"/>
    <path class="st3" d="M166.1,166.5c-.7.1-1.2-.3-1.5-.8l.6-.4.9,1.2Z"/>
    <path class="st3" d="M151,212.6c-.4.4-1.1-2-.8-2.3l.5,1.8.3.5Z"/>
    <polygon class="st3" points="143.8 159.9 143.2 161 142.7 160.7 143.8 159.9"/>
    <path class="st3" d="M167.6,216.1s.2.5,0,.6c-.3.2-.7.2-1-.1l1-.5Z"/>
    <polygon class="st3" points="143 161.4 142 162 142.6 160.9 143 161.4"/>
    <polygon class="st3" points="165.2 163.2 164.1 163.5 163.5 163.1 165.2 163.2"/>
    <path class="st3" d="M139.4,193.1c.3.3-.6.3-.7.4v-1c-.1,0,.7.5.7.5Z"/>
    <path class="st3" d="M146.9,148.5l-1.4.7c.2-.5.8-.6,1.4-.7Z"/>
    <polygon class="st3" points="138.2 180.4 137.9 181.1 137.5 180.4 138.2 180.4"/>
    <path class="st3" d="M157.3,226.9c0,.2-.6.3-.7.3l-.3-.7,1,.4Z"/>
    <polygon class="st3" points="150.7 200.4 150.8 199.8 151.3 200.1 150.9 200.4 150.7 200.4"/>
    <path class="st3" d="M135.3,150.7c-.2.3-.8.2-1.1.3.2-.4.7-.2,1.1-.3Z"/>
    <polygon class="st3" points="156.5 214.1 156.7 213.4 157 213.7 156.5 214.1"/>
    <polygon class="st3" points="144.3 161.7 143.9 161.7 143.9 161.5 144.3 161.2 144.3 161.7"/>
    <path class="st3" d="M136.8,151.1l-.3.4-.2-.2c.1-.2.3-.2.5-.2Z"/>
    <path class="st3" d="M164.5,168.1h-.7s0-.1,0-.1c.3,0,.6-.3.7.1Z"/>
    <polygon class="st3" points="149.9 161.4 150.1 161.8 149.7 161.8 149.7 161.4 149.9 161.4"/>
    <path class="st3" d="M143.5,152.3c0,.2-.3.5-.5.4,0-.2.3-.5.5-.4Z"/>
    <rect class="st3" x="148.4" y="187.8" width=".4" height=".3"/>
  </g>
  <g>
    <path class="st16" d="M143.4,164.6s0,0,0,0h0s0,0,0,0ZM165.5,164.7h0s0,0,0,0h0ZM190.8,199.8c0-.2-.4-.4-.4-.5,0,0,.5-1.6.5-2.2s-.5-1.9-.5-2.3c0-.7.7-1.6.7-3,0-1-.8-2.3-.8-2.7,0-.3.3-.8.4-1.1.4-2.3.1-3.8-1.8-5.1,1.3-2.3,1-6-.6-8.2-.2-.3-.9-.8-1-1-.2-.3,0-.7,0-1-.1-.7-1.6-3.5-2-4-1-1-2-.8-3-1.4-.3-.1-.4-.5-.6-.6-1.8-1.1-3-1.2-5-.6-.4.1-1.1.5-1.3.6-.8,0-1.5-.1-2.5.2s-2,1.3-2.7,1.5c-.8.3-2,.2-3,.6-.7.3-1.7,1-2.1,1.1-.4.1-1-.2-1.4-.2-.8,0-2.4.5-3.1,1-.4.3-.8.9-1.3.9s-.5-.2-.8-.3c-4.3-.6-10.7,0-14.4-2.3-.4-.3-.8-.6-1.2-.9,0-.3.5-.3.6-.3.5,0,1.8.9,2.6,1,.8,0,1.7-.3,2.1-.3.4,0,1,.7,1.5.8.6,0,1.4,0,2,0,1.2,0,2.4.5,3.7.4.8,0,1.9-.5,2.6-.5.4,0,.8.2,1.2.3,1.4.1,2.4-.5,3.8-.7,2.5-.3,5.1-.7,7.4-1.9.3-.1.8-.5.8-.8.3-1.9-2.5-2-3.7-2.5-.2,0-.4,0-.4-.2,5.8.2,12.3-1.6,16.4-6,2.7-2.8,5.6-8.9,5.8-12.8.9-11.9-9.9-25.1-22.5-21.5-.9.3-4.1,2-4.4,2s-1-.5-1.3-.7c-2.4-2-2.8-7.7-2.9-10.6-.2-4.7,0-9.5,0-14.4h-.8c0,2,0,3.9,0,5.8,0,4.6-.4,10.4.6,14.8.5,2.2,1.7,5.4,4.3,5.7,0,.1-.8,1.5-.8,1.8v2c.4-.2.2-.9.3-1.3.6-2.4,2.3-3.4,4.5-4.3,12-4.8,24.2,10.1,22.2,21.5-.6,3.3-2.7,7.8-4.7,10.4-6,7.6-19.2,8.7-26.8,3,1.2,0,2.2-.5,3.1-1.1l.7-.8c-.4,0-.7.4-1.1.6-4.2,1.9-6.9-1.3-11-.9-2.1.2-6,2.2-7,4.1-4.6,8.3,5.9,11.1,12.1,10.7l1.3.3c-1,.3-2.1,0-3.2.1-.5,0-1.5,0-2,.1-.4,0-.7.5-1.2.4-.3,0-.6-.4-1-.5-1.3-.5-1.2-.5-2.2-1.2-.5-.4-2.3-1-2.9-1.1-1-.1-1.9.3-2.9-.2-.6-.4-1.3-1.9-1.5-2.6-2-6.5,2.7-12.2,7.9-15.4,2.2-1.4,5.9-3.4,8.4-4.1,3.1-.9,6.9-.2,9,2.4l-.6-1.1-2-1.6c3.9-1.1,4.9-6.5,3.4-9.8-.6-1.4-1.7-2-2.4-3.2-.2-.4-.3-1-.6-1.1l.2,1.2.6,1.3c-3.5-1.6-5.9-4.9-6.6-8.7-.4-2-.4-3.8-.4-5.8,0-7.2,0-14.4,0-21.6h-.7c0,7.4-.3,14.8-.2,22.1,0,.8.3,1.6,0,2.4-.3.4-1.4,0-1.8,0-4.6-.2-8.7.6-13.2.8-6.5.3-9.9-1-15.4,3.5-5.3,4.4-7,14.1-6.7,20.7.1,3.3.7,11.2,3.2,13.4,3,2.8,7.1-1,9.2-3.1-.1,2.3,1.6,4.3,3.9,3,1.9-1,1.3-4,1-5.6,2.4-.9,4.7-2,6.9-3.3l.4.4c-1,1.2-2.1,2.3-2.9,3.7-2,3.3-2.8,7.8-.7,11.3-.7-.2-1.8,0-2.4-.2-.3,0-.7-.6-1-.8-1.6-.8-2.9-.9-4.6-1.1-.5,0-1.1-.5-1.7-.6-1.2-.3-2.6-.2-3.7.2-.7.3-1.1.9-1.5,1.1-.7.3-1.3.3-2.1.7-1.2.7-2.3,2.8-2.7,4.1-.1.4,0,.8-.1,1.1,0,.3-1.1,1.3-1.5,1.8-1.3,2.1-1.8,5.3-.3,7.4-1.7,1.2-2.3,2.5-2,4.6,0,.5.6,1.4.6,1.5,0,0-.4.7-.5.9-.5,1.5-.5,2.6,0,4,.1.3.5.7.5.9s-.4.6-.5.9c-.3.9-.3,1.7,0,2.6,0,.3.4.6.3.7,0,.1-.3.3-.4.5-.6,1.3-.4,2.5,0,3.8.1.3.6,1,.6,1.2,0,.1-.4.6-.5.9-.6,1.7,0,3.9,1,5.4.3.4,1.2,1.1,1.3,1.3.2.3,0,.8.1,1.1.4,1.5,1.3,2.9,2.3,4.1.3.3,1.3.7,1.4.8.1.2.2,1.2.4,1.6.8,1.7,2.8,3.4,4.6,4,1.8.6,3.5.4,5.3,0,.4.7,1,1.3,1.2,2.1.3,1,0,2.7,1.5,2.8,1.7,0,.7-3.6.4-4.5-.1-.5-.9-2-.9-2.1,0-.2.3-.5.4-.7.3-.9.4-1.6.2-2.5,1.5-.8,3-.5,4.7-.7,2.4-.4,5.2-1.8,6.3-4.1.4.2.4.7.7,1,1.2,2,3,3.5,5.5,3.3.2.2-.7.7-.8.8-3.3,3.3-3.5,5.8-2.6,10.3.4,1.9,1.5,3.1,2.2,4.8.7,1.5.4,3.4,2.6,3.3,2.3-.1,2-1.8,2.6-3.4.7-1.9,2.2-3.7,1.8-5.9.9-.4,2-1.2,3.1-1,.3,0,.3.4.6.5.7.5,1.3.7,2.3.5.3,0,.7-.4.8-.4.1,0,.5.5.8.6,1.3.4,2-.3,2.9-.3s1.4.4,2,.4c1.2,0,2.1-.7,2.9-.8.3,0,.7.1,1.1.1,1.6,0,4.1-.7,4-2.7,2.6-.3,5.6-2,6.7-4.5.3-.5.3-1.5.5-1.8,0-.2.8-.4,1-.6,1.4-1.2,2.1-2.5,2.6-4.2.1-.4,0-1.1.3-1.4.1-.3,1-1,1.4-1.5.7-1.2,1.1-2.9,1-4.3,0-.5-.5-1.4-.5-1.6s.5-1,.6-1.4c.3-1,.3-2.8,0-3.8ZM162,168.1h0c0,.1,0,.2-.2.3-.3.2-.7,0-.8,0-.2,0-.4.4-1,.4h-.1s0,0-.1,0c0,0-.1,0-.2,0-.2,0-.4-.2-.6-.4-.1-.1-.3-.2-.3-.3,0,0,0-.1,0-.2,0,0,0,0,0-.1.2-.1.8.2,1,.2.4-.1.9,0,1.4.1.3,0,.7.2,1,.3h0ZM163.8,168.1h0c.2-.2.3-.2.4-.2s.2,0,.3.2h-.7ZM165.4,164.2h1.1s.1,0,.2,0c.3.1.9.3.9.3,0,0,0,.2,0,.4,0,0,0,.1,0,.2h0c0,.1.2.2.3.3.1,0,.2.2.3.2.3.2.6.3.5,0,0-.2-.3-.3-.5-.4-.1,0-.2-.1-.3-.2,0,0,0,0,0-.1,0,0,0-.2,0-.3h0s0,0,.1,0c0,0,.1,0,.2,0,.6.1,1.7.3,2,.7,0,0,0,.1,0,.2l-.8.3h0s.3.4.3.4c-.3,0-.6,0-.8,0-.2,0-.4-.1-.6-.3,0,0-.2-.1-.3-.2-.2-.1-.3-.3-.5-.4,0,0-.2-.2-.3-.2s-.2-.2-.3-.2c0,0,0,0,0-.1,0,0,0,0,0,0,0,0,0,0,.1,0s0,0,0,0c0,0,0,0-.1,0,0,0-.1,0-.2,0-.2,0-.5,0-.8,0-.3,0-.7-.3-.9-.6h0ZM165.2,163.2h0s-1.1.3-1.1.3l-.5-.4h.8c0,0,.8.1.8.1ZM144.8,159.1c0,0,.1,0,.2,0,.1,0,.2-.1.3-.2h0c.1,0,.2-.1.4-.1.1,0,.3,0,.4-.1.1,0,.3,0,.4,0h0c0,.2,0,.4-.3.6-.1,0-.3.2-.4.2-.4.2-1,.2-1.1,0-.1-.1,0-.2,0-.3ZM144.3,161v-.2s.3-1.1.3-1.1h1.4c0,.1.2-.1.2-.1h.8c0,.1-.4-.2-.4-.2v-.2c0,0,.3-.4.3-.4h0c.9-.1,1.8-.8,2.6-.7.2,0,.5.1.7.2.2,0,.3.2.5.2.2,0,.3.2.5.2,0,0,.2,0,.2,0,.7,0,1.2-.1,1.9,0,.1,0,.3,0,.4,0,.4,0,.6.3.9.5.3.2.5.4.7.5.2,0,.3.2.5.2,0,0,0,0,.1,0,.1,0,.3,0,.4,0,.2,0,.4,0,.6,0,.6.1,1.1.9,1.7,1.2.2,0,.4.2.7.3.2,0,.4.1.6.2.1,0,.3,0,.4.2.1,0,.2.1.3.2,0,0,.1,0,.1.1.2.2.3.5.3.9h0c.2,0,.4,0,.7,0,.1,0,.2,0,.3.1.2,0,.4.2.7.3.2.1.4.3.6.4.2.1.4.2.5.3.4,0,.9,0,1.3,0,0,0,0,0,0,0,.2.1.5.5.8.7.2,0,.4.1.6.2.3,0,.5.2.8.6,0,0-.1,0-.3.1,0,0,0,0,0,.1s0,0,0,.1h.7s0,0,0,0l.9.8c-.2,0-.3,0-.5.1-.1,0-.2.1-.3.2,0,0-.1,0-.2,0,0,0-.2,0-.3.1-.2,0-.5,0-.8,0-.5,0-1-.3-1.3-.6,0,0,0-.1-.1-.2.1,0,.3,0,.4,0,.3,0,.6,0,.9,0,.3,0,.5,0,.8,0,0,0,.1,0,.2,0,0,0,.2,0,.3-.1,0,0,0,0,0-.1-.2,0-.5,0-.8,0,0,0-.2,0-.3,0,0,0-.2,0-.2,0-.3-.2-.2-.8-.5-1,0,0-.1,0-.2-.1,0,0-.2,0-.3,0v-.4c0,0,0,0,0,0,0,0-.1,0-.2.2,0,0-.2.2-.3.3,0,0-.3,0-.5,0-.1,0-.2,0-.3,0,0,0-.1,0-.2,0-.1,0-.3,0-.4-.2h0c-.3-.1-.5-.3-.7-.4-.3-.2-.4-.5-.2-.7-.5.2-1.2,0-1.6-.4-.3.6-1.6.3-2.1-.3-.1-.1-.2-.3-.2-.4h0c-.2,0-.3.4-.3.5,0,.2.3.2.5.3,0,0,0,0,.1,0h0c0,0,0,.3,0,.4,0,0,.1.1.2.2,0,0,0,0,.1.1,0,0,0,.1,0,.2-.5.2-1.9-.4-1.8-1,0,0,.4,0,.3-.3l-.4-.2-.4-.2c0,0,0-.2.2-.3,0,0,0,0,0,0,.2-.2.3-.3.2-.5,0,0,0,0-.1-.1,0,.3-.3.5-.6.7,0,0-.1,0-.2,0-.3,0-.6,0-.9,0h0c0,.2,0,.3.1.3.3.3.8-.2.9-.2s.2,0,.3.2c0,0,.1,0,.2.2,0,0,0,0,0,0,0,0,.2.2.2.3,0,.1.1.3.2.4,0,0,0,.1,0,.2h0c-.6,0-1.1,0-1.6-.3h0v-.2s0-.3,0-.3h0c-.7.3-1.2.3-1.5-.1-.2-.2-.3-.5-.3-1l-.3.5c0,0-.2.1-.3.1s-.3,0-.4,0c-.1,0-.2,0-.3-.1,0,0-.1,0-.2-.1-.2-.2-.3-.4-.2-.6,0,0-.1,0-.2,0-.3.1-.8.2-1.2,0-.2,0-.4-.1-.5-.2,0,0,0,0,0-.1,0,0,0,0,0,0,0-.1-.1-.3,0-.5h-.7c0,.2,0,.4-.1.5,0,0,0,0,0,0-.3.2-1.3.1-1.7-.3,0,0,0,0,0-.1,0,0,0-.2,0-.3.7-.5,1.3,0,2-.4.3-.2.3-.4.3-.5,0,0,0,0,0,0h0c0,0,.2,0,.3,0,.1,0,.3,0,.3,0,0,0,0,0,0,0,0,0,0,0,0-.2h-.8c-.1,1.1-1.2,1-1.9.2,0,0-.1-.1-.2-.2,0,0,0-.1-.1-.2,0,0,0,0,0,0l.3.9-.7.4c0,.4.5.3.3.8h-2.7c0-.1,0-.1,0-.1,0,0,0,0,0,0,0-.1.3-.1.4-.2,0,0,0-.1,0-.3h-.8ZM159.4,164.2c-.2-.1-.3-.3-.3-.5,0,0,1,.4,1.3.4s.4-.2.6-.2c.3,0,1.2.5,1.4.8,0,0,0,0,0,0h0s-1.4-.1-1.4-.1v.5s.1-.1.3-.2c0,0,0,0,0,0,0,0,0,0,.1,0,.1,0,.3,0,.4,0,.2,0,.5,0,.7,0,0,0,.2,0,.3,0,0,0,.2,0,.3,0,0,0,.1,0,.2,0,.2,0,.3.1.4.2,0,0,0,0,0,0,0,.2,0,.3-.2.4,0,0-.2,0-.3,0-.3,0-.7,0-1.1,0-.2,0-.3-.1-.5-.2-.1,0-.3-.2-.3-.3,0,0,0,0,0-.1-.2.2,0,.5-.3.6-.9.4-1.8-.4-1.3-.9,0,0,.1,0,.2-.1h0c0,0,.2,0,.3,0-.2-.2-.6-.4-.9-.6ZM163.9,166c.1-.1.2-.3.2-.6.2.2.3.4.4.6,0,.3.1.5.2.7-.5.1-.9,0-1.4,0,0,0,0,0,0,0,0,0-.2,0-.3,0,0,0-.2,0-.3-.1-.1,0-.2-.2-.3-.2.5,0,1.2,0,1.5-.2ZM165.3,165.3l.9,1.2c-.5,0-.9-.1-1.3-.5,0,0-.1-.2-.2-.3,0,0,0,0,0,0h0s.3-.2.3-.2l.3-.2ZM149.9,161.5v.4c.1,0,.1,0,.1,0h-.4v-.4h.3ZM143.9,161.5l.3-.3h0s0,.6,0,.6h-.4v-.2ZM143.8,160l-.5,1-.5-.3,1-.7ZM142.6,160.9l.3.5-.9.6.6-1.1ZM142.3,167.4c-.6-.2-.9-1.2-.8-1.7h0s0,0,0,0c0,0,.1,0,.1,0,0,0,0,0,.1,0,.1,0,.2.2.3.2.4.1.8.3,1.1.4.1,0,.2,0,.3,0,0,0,0,0,0,0,.3,0,.7,0,.7,0,0,0,0,0,0,0,0,0,0,.2,0,.2l1.4-.7h0c0,0,0,.1,0,.2,0,.1.2.3.3.3.4.4,1,.5,1.5.3,0,0,.2-.1.3-.2.1-.1.2-.3.2-.5-.2,0-.4.2-.5.2-.1,0-.2.1-.3.1-.2,0-.4,0-.7,0,0,0-.1,0-.2,0-.1,0-.2,0-.2-.1-.3-.3-.2-.7-.3-.7,0,0-.3.1-.5,0,0,0,0,0,0,0-.2,0-.5-.3-.6-.4,0-.1-.1-.2,0-.3.2,0,.3,0,.4-.2,0,0,.2-.1.2-.2,0,0,0,0,0,0,0,0,.1,0,.1-.1,0,0,0,0,0,0,0,0,0,0,.1,0,.1,0,.3.3.4.2,0,0,0,0,0,0s0,0,0,0c0,0,0,0,0,0h0c0,0-.1,0-.2,0,0,0,0,0,0,0,0,0-.2,0-.2-.1-.2-.2-.3-.4-.5-.7,0,0,0,0-.1,0,0,0,0,0,0,0-.2,0,.2.4.2.5,0,0,0,0-.1.1,0,0,0,0-.1.1-.4.4-.8.4-1.4.1,0,0-.2,0-.3,0,.2.4.2.6-.1.9.1,0,.2,0,.3,0,0,0,.1,0,.2-.1,0,0,0-.1.1-.2,0,0,0,0,0,0,0,0,.2-.1.4,0v.4c0,0,.2.2.4.3,0,0,.2,0,.2.1,0,0,0,0,0,0,0,0,0,0,0,0,0,0,0,0,0,.1h0c-.6.4-1.9,0-1.9-.7-.3.4-.7.4-1,.2-.1,0-.2-.2-.3-.4l.5-.9h.5c0,.1,0-.2,0-.2l-.8-.5c0,.4,0,.8-.1,1.1,0,.1-.1.2-.2.3s-.2.1-.3.2c0,0,0,0,0,0h0c0-.1,0-.3,0-.5,0-.4,0-.8,0-1.1,0-.1,0-.2.1-.3,0,0,0,0,0-.1.6-.5,2.5-.7,3.6-.8.2,0,.3,0,.5,0h.2c0,1-1.6.7-1.9.8,0,0,0,0,0,0,0,0,0,.1-.1.2,0,0,0,.2-.1.2,0,0,0,.1-.1.2-.2.2-.5.2-.5.3,0,0,0,.2,0,.3,0,0,0,0,.2,0,.1,0,.3-.3.5-.5,0,0,.1-.2.2-.2,0,0,.1-.1.1-.2,0,0,0,0,0,0,0,0,0,0,.2,0,.1,0,.3,0,.5,0,.1,0,.3,0,.4,0,.1,0,.3-.3.4-.2,0,0,0,0,0,0,0,0,0,0,0,0,0,0,0,0,0,0,0,0,.1.1.3,0h0c0-.2-.1-.3-.1-.4,0-.3,0-.5.1-.6.2-.1.4-.2.7-.2.3,0,.6,0,1,0h.2c0,.4,0,.6.2.7,0,0,.2,0,.4.1l-.3-.8h.3s3,.3,3,.3h0c.1.2.1.4,0,.5,0,0-.1.1-.2.1-.3,0-.8,0-1.1-.3,0,0-.2-.1-.2-.2,0,.1,0,.2,0,.4.2.2.5.4.7.5.3,0,.6,0,.7-.1,0,0,0,0,.1,0,0,0,0,0,.1,0h0s0,0,0,0c0,0,0,0,0,0,0,0,0,0,0,0,0,0,.1.1.2.2.1.1.3.2.4.2h0s-.8-1-.8-1l1.9.4h0c0,0,0,.1,0,.2,0,0,0,0,0,0,0,0,0,0-.1,0,0,0-.1,0-.2,0,0,0-.1,0,0,.2,0,0,0,0,.1,0,0,0,.2,0,.3.1,0,0,0,0,0,0,.1.1.1.3,0,.6h.5l-.4-.8.2-.2v-.2c.3-.1.1.2.2.2h0c0,0,.5,0,.9.1.1,0,.3,0,.3,0,0,0,.2,0,.3.1.3.1.5.3.8.4.4,0,.8,0,1.1,0s0,0,.1,0c0,0,0,0,.1,0,.4.1,1,.6,1.6.3-.2.3-.3.5-.2.8,0,0,0,.2.2.3,0,0,.2.1.3.2,0,0,0,0,0,0,.1,0,.2.1.3.2,0,0,.1,0,.2,0h0v.3h-.5c0,.1,0,.1,0,.1.2,0,.3,0,.5,0,0,0,0,0,0,0,.1,0,.3,0,.4.1.2.1.4.2.6.3.3.1.5.1.9,0,.1,0,.3-.2.5-.3h0s-.2,0-.2,0c-.1,0-.3,0-.4,0-.4,0-.8,0-1-.1,0,0-.1,0-.1,0-.1-.1-.2-.3-.3-.5,0,0,.2,0,.3,0,.2,0,.3-.1.5-.2,0,0,0,0,0,0,0,0,.2,0,.3,0s.2,0,.3,0c0,0,.1,0,.2,0,0,0,.1,0,.1,0,0,0,0,0,.1.1.1.1.2.3.3.4,0,0,0,0,.1.1,0,0,.6.3,1,.4,0,0,.2,0,.2,0h0c.3,0,.6,0,.8-.1.2,0,.3-.1.3-.1s0,0,.1,0c0,0,0,0,.1,0,0,0,.1.1.2.2,0,0,0,0,0,0,0,0,.2.1.3.1,0,0,0,0,.1,0-.3.3-.6.2-.9.2-.1,0-.2,0-.3,0l-.5-.4c0,.1-.1.3-.2.4,0,0-.2.2-.3.2,0,0,0,0-.1,0,0,0-.2,0-.3.1-.5.1-1.1,0-1.5-.2-.2,0-.2-.3-.2-.4h0s0,0,0,0c0,0,0,0-.1,0-.1,0-.3,0-.4,0-.2,0-.5-.4-.6-.4s-.1,0-.2.1c-.1,0-.3.1-.5.1-.2,0-1.4-.4-1.5-.6h0s0,0,0-.2c0,0,0-.2,0-.2,0,0,0,0,0-.1,0,0-.1,0-.2,0,0,.4.5.6.7.9,0,.1.2.2.1.4h0c0,0-.2.2-.3.2-.5.2-1.1-.1-1.4-.5,0,0,0-.1-.1-.2,0-.1,0-.3,0-.3,0,0,0,0,0-.1,0-.1-.3,0-.3-.3s0,0,0-.1l.6-.4-.2-.3c0,.2-.1.3-.2.4,0,0-.1,0-.2.1,0,0-.1,0-.2,0-.4.2-.6,0-.9.1,0,0-.2,0-.3,0h0s0,0,0,0c0,0,0,0,.1,0,.3.1.7,0,1,0,.2,0,.9,1.2.8,1.3h-.8c.2.4.5.3.8.2,0,0,.1,0,.2,0,0,0,.2,0,.2,0,0,0,.2,0,.3,0,0,0,0,0,0,0,.2,0,.3,0,.5.1.2,0,.5,0,.7,0l1,.9c-.4,0-.8-.2-1.2-.3-.1,0-.2,0-.3,0s-.2,0-.3,0c0,0-.1,0-.2,0,0,0-.1,0-.2,0-.1,0-.2,0-.3.1-.1,0-.2,0-.3.1-.2,0-.4,0-.6,0l.3-.5h0c0,0-.2,0-.2,0-.2,0-.3.3-.5.3-.8.2-1.9-.5-1.8-1.3.3,0,.5,0,.8,0,0,0,.2,0,.2,0,0,0,.2,0,.3,0,0,0,.2,0,.3.1,0,0,0,0,0,0l-.2-.8c-.4.3-.8.3-1.1.2-.1,0-.2-.1-.3-.2-.1-.1-.2-.2-.2-.4,0-.2-.1-.3,0-.5,0,0,0,0-.1,0s0,0,0,0c0,0,0,0,0,0,0,0,0,.3-.2.4,0,0,0,0,0,0-.1,0-.3,0-.4,0-.5,0-1-.2-1-.8h0c-.1,0-.3,0-.4,0-.3,0-.5,0-.8,0-.1,0-.3-.1-.4-.2v.5c0,0,.1,0,.2,0,.5,0,1.2,0,1.6.4,0,0,0,0,0,0,.1,0,.2.2.2.3s0,.1,0,.2c0,0-.1.2-.2.2,0,0,0,0,0,0,0,0-.2.1-.3.1h0c0,0-.1,0-.2,0-.2,0-.5,0-.6,0,0,0-.1,0-.2,0,0,0,0,0,0,0,0,0-.1,0-.2-.1,0,0-.2,0-.2-.1-.2,0-.3-.1-.3,0,0,0,0,0,0,.2,0,0,0,0,0,.1,0,0,0,0,.1.1.4.3,1.3.3,1.6.3.3,0,.5-.2.7-.4,0,0,.1-.1.2-.2.1-.1.3-.3.5-.3,0,0,.2,0,.3-.1,0,0,.2,0,.3,0h0s.5.8.5.8l-.3.6c0,0-.8,0-1,0,0,0,0,0-.1,0-.2,0-.5-.3-.6-.3s0,0,0,0c0,0,0,0,0,.2,0,0,0,.1.2.2,0,0,.1,0,.2.1.3.1.6.1.9.2.1,0,.2,0,.3,0,.2,0,.4,0,.5,0l1,.9c-.3-.1-.6-.2-.9-.2s-.6,0-.9,0c-.2,0-.3,0-.5,0-.5-.1-1.1-.3-1.6-.3-.4,0-.9.2-1.3.1-.2,0-.4-.1-.5-.4h0c0,0,.2,0,.3,0,0,0,.2,0,.3,0,0,0,.1,0,.1,0,0,0,0,0,.1,0,0,0,0,0,0-.1,0,0,0-.1,0-.2-.5.3-.9.3-1.4.3-.2,0-.5-.2-.7-.3-.1,0-.2-.2-.3-.3h0c0,.1-.1.2-.2.3,0,0,0,0-.1,0,0,0,0,0-.1,0,0,0-.1,0-.2,0-.4,0-.8,0-1.2,0l.7-.7c-.3,0-.5.2-.7.3,0,0-.1,0-.2,0-.8.2-1.1-.3-1.4-.9h-.1c0,0,.1.5.1.5-.4,0-.6-.3-1-.3s-.2,0-.3,0c0,0-.2,0-.2,0,0,0-.2,0-.2,0-.1,0-.2,0-.3,0ZM143,152.7h0s0-.1,0-.2c.1-.2.3-.3.5-.3-.1.2-.3.4-.5.4ZM160.7,146.2c-1.7.6-3,0-4.7.2-.8,0-1.6.4-2.4.7,0-.4.1-.3.3-.3,1.8-1.2,3.7-2.1,5.4-3.4,1.8-1.3,3.3-2.8,4.7-4.5.7,2.9-.3,6.1-3.3,7.3ZM129.9,156.2c-.1.6-.1,1.2-.4,1.8-.1.3-.3.5-.5.7-.1.1-.3.2-.4.3h0s.5-1.5.5-1.5l.9-1.8c0,.2,0,.3-.1.5ZM133.8,161.2c-.5.9-2.4,1.2-3,.4,0-.1-.2-.3-.3-.4-.8-1.8.3-5.6,1-7.1.3-.7.7-1.5,1.2-2,0,.8,0,1.5.2,2.2.3,1.8,1.7,5.3.8,6.9ZM140.6,152.9c-.5.3-1,.6-1.5.9,0,0,0,0,0,0-.5.3-1,.6-1.6.8-1.1.5-2.2,1-3.4,1.3,0-.1,0-.3,0-.4-.2-.9-.5-1.9-.5-2.8s0-.5,0-.8h0l1.8-.5s0,0,0,0c.2.3.3.6.5.7.8.7,1.2-.5,1.9-1.2,0,0,0-.1.2-.2,0,0,.2-.2.3-.2.1,0,.2,0,.4-.1v2c0,.1,0,.2.2.3,0,0,0,0,.1,0,0,0,.2.1.3.1.1,0,.2,0,.3,0h0s.1,0,.3-.1c0,0,.1,0,.2,0,0,0,.2,0,.3-.1.2,0,.4-.1.2.1ZM135.3,150.7c-.2.2-.8.1-1,.2.2-.4.7-.2,1.1-.3,0,0,0,0,0,0ZM136.3,151.3s0,0,0,0c0,0,0,0,.1,0,0,0,.2,0,.4,0l-.3.4-.2-.2ZM141.6,152.3s0,0-.2,0,0,0-.1,0c0,0-.1-.1-.2-.2-.5-.4-1.1,0-1.8.1v-2c.4-.2.9,0,1.3.4,0,0,0,0,.1.1,0,0,0,0,.1.1h0c0,.2.1.3.2.4.2.4.5.8.3,1ZM141.6,149.6c0,0,0,0-.1,0,0,0,0,0,0,.1-.1.3,0,.8,0,.9h0l-1.1-.5h0v-.2c0,0,0,0,0,0,.2,0,.3-.1.5-.2,1.3-.8,2-2,2.4-3.3.2-.6.3-1.2.4-1.9,0-.3,0-.6,0-1v-.2c0-.2,0-.5-.3-.4h0c0,1.8-.6,4.1-1.9,5.5-.6.6-1.3,1.1-2.2,1.3-.1,0-.3,0-.3,0-.2,0-.4,0-.6,0-.2,0-.5.3-.8.5-.2.1-.3.2-.5.3-.3.1-.6.2-.8,0,0,0-.1,0-.2-.1,0,0-.1-.1-.2-.2,0,0,0-.2-.1-.2,0,0-.1-.2-.2-.2,0,0,0,0-.2,0-.2,0-.4,0-.9,0-.6.1-1,.4-1.4.8-.6.6-1.1,1.3-1.7,2-.3.3-.6.6-.9.9-.3.3-.6.6-.8,1-.3.5-.6,1-.8,1.5,0,0,0,0,0,0-.1.3-.3.7-.4,1-.6,1.6-1.1,3.2-2.3,4.3-.1.1-.3.3-.4.4-.2.1-.3.2-.5.3-2.4,1.4-4,1-5-.4,0,0,0,0,0,0-.2-.3-.4-.6-.6-1,0-.2-.2-.4-.3-.6-.3-.8-.6-1.7-.8-2.6,0-.2,0-.5-.1-.7-.1-.7-.2-1.3-.3-1.9-.1-1.2-.3-2.3-.3-3.5-.1-1.8-.2-3.6,0-5.3,0-.5,0-1,.1-1.5.1-1.6.4-3.3.8-4.8,0-.4.2-.8.3-1.1.3-.9.6-1.9,1-2.8.2-.6.5-1.2.7-1.7.5-1.1,1.1-2,1.8-2.9,3.7-4.7,9.4-6,15.3-4.8.7.1,1.3.3,2,.5.7.2,1.3.4,2,.7l1.7,1.2c-.6-1-1.7-1.5-2.7-2.1l-1.9-.6h.3s3.8-.3,3.8-.3l3.4-.5c1.9-.1,3.9-.1,5.8,0,.8,0,1.5,0,2.3,0,0,.8,0,1.6.3,2.4.2,1,.5,2.1,1,3.1.2.5.5,1,.8,1.4.4.7.9,1.3,1.5,1.9.2.2.4.4.6.6.6.6,1.2,1,1.8,1.4.3.2,1,.5,1.6.7.2,0,.4.2.5.3.3.2.6.4.8.6,0,0,0,.1.1.2,0,0,0,.1,0,.2,0,.1,0,.2,0,.3,0,0,0,.2-.2.3-.5.7-1.7,2-2,2.3-.9.9-1.8,1.7-2.9,2.5-1,.8-2.1,1.4-3.2,2.1-1.5.9-3,1.7-4.6,2.5-2.3,1.2-4.7,2.3-6.8,3.6-.2-.1,0-.3.1-.4.4-.4,3-2,3.7-2.3.2-.1.5-.2.7-.3.3-.1.7-.3,1-.4.2,0,.4-.2.6-.3.1,0,.3-.2.4-.3.7-.5,1.2-1.1,1.8-1.6.2-.2.5-.4.8-.5.9-.4,2.1-.7,3-1.1,1-.5,2.1-1,3.1-1.6.5-.3.9-.7,1.3-1.1.4-.4.8-.8,1.1-1.3h-.3c0,0,0,0,0,0-.5.9-1.3,1.6-2.3,2.2-.4.2-.8.5-1.3.6-.6.3-1.2.5-1.8.7-.3,0-.6.2-.8.3,0,0-.2,0-.2,0-.2,0-.3,0-.5,0,0,0-.2,0-.2,0-1.2.3-1.9.8-2.5,1.4,0,0-.2.2-.3.3-.2.1-.3.3-.5.5-.2.2-.3.3-.5.5-.4.3-.8.6-1.3.9-1.4.7-2.7.8-4.1.9-.5,0-1,.2-1.6.1h0c0,.1.2.3.2.3h2.3c-.1.2-.3.4-.5.6-.5.5-1.1.8-1.5,1.3,0,0-.2.2-.3.3h0c-.3.4-.6,1.2-1,1.3-.2,0-.5-.8-.5-.9-.2-.5-.2-1-.2-1.5ZM145.6,149.2c0,0,0-.1,0-.2,0,0,0-.1.1-.2,0,0,.2-.2.3-.2.2,0,.5-.1.8-.2l-1.4.7h0s0,0,0,0h0ZM157.1,227.1s0,0-.1,0c-.2,0-.3,0-.4,0h0s-.3-.7-.3-.7h0l.9.4c0,0,0,.1-.2.2ZM190.3,203c-.2.6-.4,1.2-.8,1.7-.2.4-.5.7-.7,1-.1.1-.2.3-.4.4h0c.1,0,.2,0,.3,0,0,0,.2,0,.3-.2,0,0,.2-.1.2-.2,0,0,.2-.1.2-.2,0,0,0,0,.1,0h0c0,.2.1.3.2.4.1.3.2.6.2.8.2,1.5-.4,3-1.4,4.2,0,0,0,.1-.2.2,0,.1-.2.2-.3.3-.2.2-.4.4-.6.5,0,0,0,0,0,0-.2.1-.5.3-.7.4-.1,0-.3.1-.4.2h0c0,0,0,0,0,.1.2,0,.4,0,.7-.1.2,0,.3-.2.4-.2,0,.2,0,.3,0,.5,0,.4-.1.8-.2,1.1,0,.2-.2.5-.3.7,0,0,0,0,0,0-.1.2-.2.5-.4.7,0,0,0,0,0,0-.1.2-.3.4-.4.7h0c-.2.2-.3.4-.5.6,0,0-.2.2-.3.3s-.2.2-.3.3c-.2.2-.4.3-.6.5-.2.1-.4.2-.6.3-.4.2-.8.3-1.2.5-.2,0-.4.2-.6.3h1.4c0,0,0,0,0,0-.2,1.2-.7,2.2-1.5,3-.4.4-.9.8-1.4,1.1-.3.2-.7.4-1,.5-.2,0-.4.1-.6.2-.7.2-1.4.3-2.1.4-.7,0-1.4,0-2.1-.3-.2,0-.4-.1-.6-.2l-1.8-1.2h0c0,.2.2.3.3.5.1.2.3.3.4.5.9.8,2.1,1.2,3.3,1.5,0,.3,0,.6-.1.9s-.2.2-.3.3c-.2.2-.5.4-.8.5-.1,0-.3,0-.4.1-.1,0-.2,0-.4,0-1.2.2-2.6,0-3.4-.3,0,0,0,0,0,.1,0,0,0,0,0,0,0,0,0,0,.1.1,0,0,.1.2,0,.2,0,0,0,0,0,0,0,0-.2.1-.4.2-.3,0-.6.2-.9.2-1,.2-2.2.2-2.3-.3v-.7c0,0,0,.1-.2.2,0,0-.2.2-.3.2-.2.1-.4.3-.6.4-.2.1-.5.2-.7.3-.7.2-1.4.2-1.9-.4-.1-.2-.2-.3-.2-.5,0-.1,0-.3,0-.4,0,0,0-.2-.2-.3v.3c-.1,0-.5.6-.5.6-1.1.5-1.9.3-2.5-.4,0,0-.2-.2-.3-.3-.1-.2-.2-.4-.3-.6,0-.2-.1-.5-.2-.7h0c-.5,0-.2.8-.3,1.1h0s-.2.2-.2.2c-1.5,0-3.2.1-4.3-1-.3-.3-.4-.6-.6-.9,0,0-.1-.2-.3-.3l.2.6,1.2,1.3h0c-.2,0-.3,0-.4-.1-.4-.2-.7-.4-1.2-.4-.1,0-1,0-1.2.1,0,0,0,0,0,.2.4,0,.7.2,1,.3.2,0,.3.1.5.2.3.2.5.3.8.6.2.2.4.5.5.9,0,.2,0,.4.1.6.2,1.5-.5,2.7-1.1,4-.3.5-.5,1.1-.7,1.6-.1.4-.2.8-.3,1.3h0s-.8.2-.8.2l-1.1.3h0s0,0,0,0c0,0,0,.1,0,.1.2.2.4,0,.6-.1,0,0,.1,0,.2,0,.1,0,.3,0,.5,0,0,0,.1,0,.2,0,0,0,0,0,0,0,0,0,0,0,0,0,0,0,0,0,0,.1h0c0,0,0,0,0,0-2.1,1.3-2.3,0-2.8-1.5,0-.2-.2-.5-.3-.7,0-.1,0-.2-.1-.3-.3-.6-.7-1.3-1.1-2-.1-.2-.2-.4-.3-.7,0-.1-.1-.2-.2-.4-.3-.7-.5-1.5-.5-2.3,0-.2,0-.3,0-.5,0-.2,0-.3.1-.5.1-.3.2-.6.3-.9,0,0,0,0,0,0,0,0,0,0,0,0-.1,0-.3.1-.4.2,0,0,0,0,0,0,0,0,0,.1,0,.2,0,0,0,0-.1,0,0,0,0,0,0-.1,0,0,0-.2,0-.2v-2.2c0-.3.3-1.5.5-1.8.3-.7.7-1.1,1-1.8h0s.4.3.4.3c.1-.6.8-1.1,1.4-1.4.2-.1.4-.2.6-.3.2,0,.3,0,.5-.1,1.7-.4,3.8,0,5.3.8,1,.6,1.6,1.6,2.6,2,0-.1-.2-.2-.3-.3-.1-.1-.2-.2-.3-.3-1.9-1.9-4.4-3.4-7-2.8-.4,0-.8.2-1.1.4h0c0-.1,0-.2,0-.3,0,0,.1,0,.3-.1,1.5-.8,3.1-1,4.8-1l-.2.4h0c1.4-.5,2.8-.5,4.2-.3.5,0,1.1.2,1.7.4l.5.3.8.6h0c0-.4-.3-.9-.6-1.2-.1-.1-.2-.2-.4-.3,1.1-.9,2.6-1,3.8-.5h0s0,.1,0,.2c-.2.4-.6.6-.5,1.2l.8-.8h0s0,0,.1,0c.2,0,.5-.2.7-.3.1,0,.3,0,.4,0,.1,0,.3,0,.4,0,.2,0,.5,0,.7,0,0,0,.2,0,.2,0,.2,0,.4.1.5.2,0,0,0,0,0,.1,0,.1,0,.2,0,.4,0,0-.1.2-.2.3h0c.3.1,1.1-1.2,1.4-1.4.2-.1.5-.4.9-.6.2,0,.4-.2.6-.3.2,0,.5-.1.6,0,0,0,0,0,.1,0h0c-.2.3-.4.6-.6.9-.2.3-.4.6-.5,1,0,.2-.1.5-.1.7,0,0,0,0,0,0,.2-.3.4-.6.6-.9.2-.4.5-.8.8-1.2,0,0,.2-.2.3-.3,0,0,.2-.2.3-.3.5-.4,1.3-.8,2.1-1.1.6-.2,1.1-.4,1.5-.4h2.3s0,0,0,0c0,0,.2.1.3.1s.1,0,.1-.2h0c0-.1-1.2-.3-1.2-.3l-1.3-.2c-.2-.8-.1-1.5,0-2.2.1-.4.3-.7.5-1.1s.2-.3.4-.5c.4-.5.9-.8,1.5-1.1.6-.3,1.2-.3,1.7-.7,0,0,0,0,0,0,0,0-.2,0-.3,0-.7,0-1.4.2-2,.3-1-2.2-.7-3.9.6-5.4.1-.2.3-.3.5-.5.2-.2.4-.3.6-.5.2-.2.4-.3.7-.4.1,0,.3-.1.5-.2,0,0,0,0,.1,0,0,0,.2,0,.2,0,0,0,0,0,0,0h0s0-.2,0-.2c0,0,0,0-.1,0,0,0,0,0,0,0-.4,0-.7.1-1.1.3-.4.1-.7.2-1.1.3-.2-.2-.3-.4-.5-.6-.2-.3-.3-.7-.4-1.1-.2-.6-.2-1.2-.1-1.8,0-.4.2-.8.3-1.3.1-.3.3-.7.4-1,.3-.6.8-1.2,1.3-1.7-.2-.2-.2-.2-.3-.1,0,0,0,0,0,0s0,0,0,0c-.2,0-1,.7-1.1.6,0-.2,0-.3-.1-.5h0c0-.3-.1-.7-.2-1,0-.6,0-1.2.2-1.7,0-.2.1-.4.2-.6.2-.4.4-.7.7-1l1.3-1.1-1,.5-1.1.5c-.1,0-.2-.2-.3-.3-1.4-1.6-1.1-4.4-.2-6.2.2-.3.4-.5.6-.8.2-.3.4-.5.5-.8l-1.2.9c-1.5-.9-1.9-2.5-1.4-3.9.1-.4.3-.8.6-1.2l-.6.4-.7,1.4h0c-.2,0-.3-.1-.4-.3-.8-.8-1-2.7.3-2.8,1.3,0,3.4,1.2,4.6,2.5.4.4.8.9.9,1.2l.5,1.3.2.5c0-1.9-1.5-3.9-3-4.9-.5-.3-1-.6-1.5-.9-.2,0-.3-.2-.4-.3l1.5-1.3,1-1.9-.3-.2h0c0,0,0,.2,0,.3,0,0,0,.2,0,.3-.2.4-.4.9-.8,1.2-.6.7-1.5,1.2-2.3,1.1.1-.2.2-.4.3-.6.4-.7.6-1.4.5-2.3,0-.2,0-.3-.1-.4,0,0,0,0,0,0,0,0,0,0,0,0h0c.1,1.3-.3,2.3-.9,3-1,1.1-2.7,1.6-4.3,1.2,0-.5,0-1-.3-1.5,0-.1,0-.2-.3-.2.1.9-.2,1.5-.7,2-.3.3-.8.5-1.3.7-.2,0-.3,0-.5.1,0,0,0-.2,0-.3,0-.1-.1-.3-.2-.5,0,0,0,0,0-.1,0,0,0,0,0,0,0,0,0,0-.1,0h0c0,.5,0,1,0,1.4s0,.4,0,.6c0,.1,0,.2-.1.3,0,0-.1.2-.2.3,0,0,0,0-.1.1-.1,0-.2.1-.4.2-.1,0-.2,0-.4,0-.4,0-.6,0-.8,0-.3-.1-.4-.4-.6-.7,0,0,0-.1-.2-.2-.1-.1-.3-.3-.5-.3,0,0,0,.2.1.3.2.6.2,1.1,0,1.5,0,0-.1.2-.2.3-.7.8-2.3.8-3.4.3h0c0,.1,0,.2,0,.3.1.1.3.2.4.3h0s0,0,0,0t0,0c-.1.1-.3.3-.5.4-.3.2-.7.4-1.1.6-.2,0-.4.1-.6.2-.1,0-.2,0-.3,0-2.2.4-.9-.8-1.1-1h0s-.3,0-.3,0h0c0,.3-.2.5-.3.7-.2.2-.4.4-.6.5-.2,0-.3.2-.5.3,0,0-.2,0-.3.1-1.8.6-4.5.4-5.4-.6h0s0,0,0-.2c0,0,0,0,0-.1,0,0,0-.2-.1-.3,0,0,0,0-.1,0h0c0,0,0,.3,0,.5,0,0,0,0,0,.1,0,.1.1.3.2.4,0,.3.1.5-.1.5-.8,0-1.8,0-2.6,0,0,0,0,0,0,0-.9-.1-1.7-.6-2.3-1.2,0,0-.2-.2-.3-.3-.1-.1-.1-.6-.4-.3l.3.9c-.5.1-2.9-.3-3.4-.9,0,0-.1-.2-.1-.3l.3-.5.3-.4c-1.1.8-3.6.8-4.1-.7,0,0,0-.1,0-.2,0-.2,0-.4.1-.5,0-.1,0-.3,0-.4,0,0,0,0,0-.1l-.5.9c-1.7.3-2.9-1.3-2.4-2.8-.4,0-.3.5-.5.8,0,0,0,0-.1.1,0,0,0,0-.2,0-1-.3-1.8-.7-2.1-1.5,0,0,0-.2-.1-.3-.1-.4-.2-.8-.2-1.2h0c-.2,0-.2,0-.2,0,0,0,0,0,0,0v.2c0,.1,0,.3,0,.5,0,.4,0,.9-.1,1-.8.3-1.6.3-2.4.1-.6-.1-1.1-.4-1.6-.9-.2-.2-.3-.3-.5-.5-.1-.2-.3-.4-.4-.6,0-.2-.2-.4-.2-.6,0-.3-.2-.5-.2-.8h0s-.3.2-.3.2l.6,2.7c-.4-.3-.9-.6-1.4-.9-.2,0-.4-.2-.5-.3t0,0c-.2-.1-.4-.3-.6-.5h0c-.4-.5-.6-1.2-1.1-1.6,0,.2.1.4.2.7.2.4.4.9.7,1.3.8,1,1.8,1.7,3,2-.1.1-.3.2-.4.3-.7.3-1.8.3-2.5.2-.4,0-.8-.1-1.2-.2-.4-.1-.7-.3-1.1-.5l.8.8,1.8.5c-1.8,1.2-4,3.3-4,5.6,0,.1,0,.7.3.6,0-.9.3-1.8.7-2.5.1-.2.3-.4.4-.6.2-.3.4-.5.7-.7s.5-.4.7-.6c.6-.5,1.4-1,2.1-1.3.4.3.7,1,.9,1.6.1.6.2,1.2.1,1.7,0,0,0,.1,0,.2-.2.5-.7,1.2-1,1.3-.2,0-.5,0-.9-.3-.4-.3-.8-.6-1.2-.4.2.1.4.3.5.5,1.9,1.9,2.8,5.1.9,7.2-.1.1-.2.2-.3.3l-1.6-.9h0c.3.3.5.6.8.9h0c.3.3.5.6.7,1,.6,1.1.8,2.2.3,3.7-.2.2-1.4-1-1.9-.7,0,0,0,0-.1.2.6.3,1.2.7,1.5,1.2.2.3.3.6.5.9.1.3.2.6.3,1,0,.5.1,1,.1,1.5,0,1-.2,1.9-.9,2.6,0,0-.2.2-.3.3h-1.9c.1,0,.2.1.3.2.1,0,.3,0,.4.1.1,0,.3,0,.4.1,0,0,.1,0,.2,0,0,0,.1,0,.2,0,0,0,.1,0,.2.2.5.4,1.1,1.1,1.3,1.6.7,1.5.3,2.8-.3,4.3h0c-.1,0-.3,0-.4,0-.2,0-.4,0-.6,0-.1,0-.7-.1-.7.1.3,0,.5,0,.8.2s.5.2.7.3c.2.1.4.2.6.4,0,0,.2.2.3.3,1,.9,1.5,2.3,1.2,3.8-.8.3-1.4.3-2.1.8,0,0-.4.1-.3.3,0,0,0,0,0,0,0,0,0,0,.2,0,.3-.1.9-.3,1.1-.4.3,0,.8,0,1.4,0,.5,0,1,.1,1.4.3.1,0,.3,0,.4.1.3.1.5.2.6.4,0,0,.2.3.2.5,0,.2.1.4.2.6,0,0,0,0,.1.1,0,0,0,0,.2,0h0s0,0,0,0c0-.3-.3-.8,0-1.1,0-.1,1.4-1.1,1.7-1.2.4-.2.8-.4,1.2-.6,0,0,.2,0,.3-.1.1,0,.3,0,.4-.1.1,0,.3,0,.4,0,.3,0,.6,0,.8,0,.4,0,.9.1,1.4.3.3.1.7.3,1,.4.3.2.6.4.8.6.1,0,.2.2.3.3v-.6c-.1,0-.7-.9-.7-.9,1,.2,1.7-.8,2.6-.8.5,0,.9.3,1.2.4.2,0,.4.2.6.2h0c0,0-.1-.2-.2-.2,0,0-.1-.2-.2-.2-.1-.2-.3-.3-.5-.4-.3-.2-.7-.4-1.1-.5.4-.6.6-1.2.6-1.9.1-1,0-2.1,0-3.1,0-.4.1-.7.1-1.1,0-1-.3-2.3,0-3.3,0-.3.1-.5.3-.7,0,0,0,0,0-.1.2-.2.5-.4.4-.7h0c-.3.1-.6.3-.8.5-.1,0-.2.2-.3.3,0,.1-.2.3-.2.4l-.6-.9.2-1.1c-.6.8-.6,1.8-.2,2.7-.4.1-.8.3-1.2.5-.3.1-.5.2-.8.3-.5.2-.9.3-1.4.2-.1,0-.3,0-.4,0-.1,0-.3,0-.4-.1-.2,0-.3-.1-.5-.2-.1,0-.3-.2-.4-.3-1.1-1-1.6-2.9-1-4.2,0-.2.2-.4.4-.5.2-.2.3-.3.5-.4h-.3c0,0-.2-.2-.2-.2h0c0-.2.2-.3.3-.5t0,0c.4-.6,1-1.1,1.5-1.5.7-.5,1.5-.9,2.4-1.1,1.3-.4,2.8-.5,4.1-.4.4,0,.7,0,1,0,2.6.4,4.1,1.7,5,3.5.2.5.4.9.5,1.4.6,2.1.6,4.5.3,6.9-.1,1.3-.7,3.8-.6,5.6,0,.5.1.9.3,1.3.1.2.2.3.3.4.8.8,1.7.3,2.8.8h0c0-.1,0-.2-.1-.3,0,0,0,0-.1-.1-.3-.2-.6-.4-.6-.5h0c.1,0,.3-.1.4-.1.6-.1,1.2,0,1.8.3.1,0,0-.2-.1-.3,0,0-.1,0-.2-.1,0,0-.1,0-.2-.1-.2,0-.4-.2-.6-.2,0,0,0,0,0,0-.4,0-.7,0-1,0-.2,0-.4,0-.6.1h0s-1.1-4.1-1.1-4.1c0-.4,0-.8.2-1.3,0-.3.1-.6.2-.9,0-.2,0-.3,0-.5,0-.3,0-.6.1-.8,0-.4,0-.8,0-1.2,0-.9,0-1.9.4-2.5,0,0,0-.1.1-.1.1-.1.2-.2.4-.3.3-.1.6-.2,1.1-.3l-.4-.3h0s0,0,0,0c0,0,0,0,0,0,.2-.1.5-.3.9-.4,0,0,.2,0,.3-.1.1,0,.2,0,.3,0,.2,0,.3-.1.4-.1,0,0,0,0,0,0,1.2-.4,2.3-.5,3.5-.5.3,0,.7,0,1,0,.3,0,.7,0,1,0,.2,0,.3,0,.5,0,.7-.1,1.3-.3,2-.5.2,0,.4-.2.6-.3,1-.5,2-1.1,3.1-.6h0l-.8-.5h0s2.2.4,2.2.4c0,.3,0,.5,0,.8,0,.2,0,.4.1.7,0,.1,0,.2.2.4.2.3.4.6.6,1,.4.9.6,2,1.2,2.9l-1.9.9h1.9c-.3.7-.5,1.3-.9,1.7,0,0-.1.1-.2.2-.2.1-.3.3-.5.4-.3.1-.6.3-1,.3-.3,0-.5.1-.8.2,0,0,0,0,0,0-.6.2-1.2.4-1.8.6-.6.2-1.3.4-1.9.6-.9.3-1.8.5-2.5.6-.3,0-.7,0-1.1,0h0c-.2,0-.4,0-.5,0,0,0,0,0,0,0-.1,0-.2.2-.3.4,0,0,0,0-.1.1-.2.1-.3.2-.5.3,0,0-.2,0-.3.2,0,0-.2.1-.2.2,0,0,0,.1,0,.2,0,0,0,0,0,0,0,0,.1,0,.2,0h0c.1,0,.2-.1.4-.2t0,0c.2-.1.3-.2.5-.3.2,0,.4-.2.7-.1,0,0-.2.2-.3.2-.2.2-.3.3-.5.5-.4.4-.7,1-.6,1.7,0,0,0,.1,0,.2h0c.2-.2.3-.5.5-.7.1-.3.3-.5.5-.7.2-.2.5-.4.8-.5h0c.2,0,.4-.1.7-.2,1.3-.4,3.6-1,4.3-.9,0,0,.1,0,.2,0,.3,0,.5.3.8.3h0c0-.1,0-.2-.1-.3,0,0,0,0-.1,0,0,0-.2,0-.3-.2h0s0,0-.1,0c0,0,0,0,0-.1,0,0,0-.1,0-.2h0s4-1.3,4-1.3c0,0,.1-.1.2-.2.2-.2.4-.3.6-.5l.2-.2c.2-.2.3-.4.3-.7.1,0,.2,0,.3,0,0,0,0,0,0,.2-.1.8-.2,1.7-.3,2.5,0,1,0,1.6-.1,2,0,0,0,.1,0,.2,0,0,0,0,0,0,0,.2-.3.4-.6.5,0,0-.2,0-.3.1-.2,0-.4.2-.7.3-.4.2-.8.2-1.1.3-.2,0-.9.6-1,.5v-1.9c-.2.3-.1.6-.2.9,0,.1,0,.3,0,.4,0,0,0,.1,0,.2,0,.1-.1.2-.2.3,0,.1-.2.2-.3.3-.6.4-1.4.4-2.1.7-.1,0-.3.1-.4.2-.2.1-.5.3-.7.5-.1,0-.3.1-.4.2-1.2.6-3,.7-4.3,0-.3-.2-.6-.4-.8-.6h0s-.2-.6-.2-.6l-.7-3h0s.4,0,.4,0h.5c0,0,0,0,0,0-.1,0-.3-.1-.4-.2-.1,0-.2-.1-.3-.2,0,0-.2-.2-.2-.3-.1-.2-.2-.3-.3-.5-.2-.4-.3-.8-.4-1.2.3-1.4,1.5-2.4,2.9-2.6.2,0,.4,0,.6,0s.3,0,.5,0c.2,0,.4.1.6,0h0c.7,0,1.4-.2,2-.3.2,0,.5,0,.7,0v-.3c0,0-.1,0-.1,0h0s3.9-1.4,3.9-1.4l1.3.8c-.7-.6-.6-1.3-.4-2,0-.2.2-.4.2-.7.1-.4.2-.8.2-1.1-.4.3-.3.8-.6,1.2-.6.9-3.2,2-4.3,2.2-1.2.3-2.3.3-3.5.3-1.1,0-2.3,0-3.4.4h0s0-.3,0-.7c0-.2,0-.5-.2-.6,0,0,0,0-.1,0,0,0,0,0,0,0,.2.3.2.7.1,1-.1.7-.7,1.2-.9,1.8,0,0,0,.1,0,.2-.4,1.4,1.2,4.9,1.5,6.8,0,.1,0,.3,0,.4.2,1.8,0,3.1-1.1,4.2-.3.3-.6.6-1,.8-.2-.2.2-.5.2-.8,0-.1,0-1.2-.2-1.4,0,0,0,0-.1,0,0,0,0,0,0,0h0c0,.1,0,.2,0,.3,0,.3,0,.6,0,.9,0,.2,0,.3-.2.4,0,0-.1.2-.2.3-.2.3-.4.5-.7.6-1.6.7-3.5,0-4.9-1.1-.2-.2-.4-.3-.5-.5h0c-.2-.2-.3-.4-.5-.6-.1-.2-.3-.4-.4-.6-.6-1.2-.5-1.7-.3-2.4,0-.2.1-.4.2-.6,0,0,0-.1,0-.2,0-.2,0-.4.1-.6,0,0,0-.2,0-.3,0-.1,0-.3,0-.4h0c0-.5,0-1,.1-1.5,0-.7,0-1.3.1-1.9,0-.8,0-1.5,0-2.3,0-.5,0-1,0-1.5,0-.2,0-.5,0-.7-.1-1-.3-1.9-.7-2.8.5.2,1.2,0,1.6-.3.2-.2.3-.4.4-.6h0s0,0-.1,0c-.3,0-.4.4-.7.5,0,0,0,0-.1,0,0,0,0,0-.1,0-.2,0-.3,0-.5,0-.1,0-.3,0-.4-.1-.7-.3-1.4-1.1-2-1.4-.7-.4-1.3-.5-2-.5s-.6,0-.9,0c0,0-.2,0-.3,0h0c-.2,0-.4.2-.7.3-.2,0-.5.2-.7.3-.3.1-.6.3-.8.3-.4,0-.8-.6-1.3-.5l.8.8h0c-.1.6-.7,1-.4,1.7l1.2-1.4c2.4-.9,3.9-.8,4.9,0,.1,0,.3.2.4.3.7.6,1.1,1.5,1.3,2.6,0,.2,0,.4,0,.6.3,2,0,4.3,0,6.3,0,.5,0,.9,0,1.3,0,1.2-.1,2.1-.8,3.5-.2.4-.4.8-.7,1.1-.3.3-.5.7-.8.9-.6.6-1.2,1-1.9,1.4-.2,0-.4.2-.6.3-.2,0-.4.2-.6.2-.9.3-1.9.5-2.9.5-.4,0-.8,0-1.2,0,.5-.6.6-1.3.5-2.2h-.4c0,.9-.4,1.7-1.1,2.3-.8.7-2,1-3,.3-.1,0-.3-.2-.4-.3h0s0,0,0,0c0,.2.5.6.9,1,.2.1.3.3.4.3,0,0,0,0,0,0,0,.2,0,1.3,0,1.9,0,.2,0,.3,0,.4h0c0,0-.1,0-.2,0,0,0,0,0-.1,0s-.1-.2-.2-.3c0,0,0,0-.1-.1h0s0,0-.1,0c-.5-.3-1.5-.1-1.8.5,0,0,.2,0,.3,0,.4-.1.6-.3,1.1,0,0,0,.1,0,.2.2.5.5,1.2,1.8,1.4,2.3,0,.2.2.7.4,1.2.3.9.5,2.1.4,2.8,0,.2,0,.3,0,.4-.2,0-.4,0-.5-.1,0,0-.2-.2-.2-.4,0-.2,0-.3-.1-.5,0-.1,0-.2,0-.3,0-.3,0-.6-.1-.8-.1-.4-.3-.8-.5-1.1s-.5-.6-.7-.9c-.4-.4-.9-.8-1.3-1.2-.1-.1-.3-.3-.4-.4h0s.4,1.1.4,1.1c-.2,0-.4,0-.5.2-.2,0-.3.2-.5.2-2,.5-4.5-.6-6.1-2.2-.8-.8-1.5-1.8-1.7-2.8,0,0,0,0,0,0,.3,0,1.2.1,1.7,0,0,0,.1,0,.2,0,0,0,0,0,.1-.1h0c-1.3.2-2.7-.7-3.6-1.5-.1-.1-.3-.3-.4-.4-.3-.3-.5-.6-.8-.9-.6-.9-.9-1.9-.9-2.9,0,0,.3,0,.6,0,0,0,0,0,0,0,.1,0,.2,0,.3,0s.2,0,.3,0c.2,0,.4-.1.5-.3h0c-.5,0-1-.1-1.4-.3-1.3-.5-2.2-1.6-2.7-3-.4-1.3-.5-2.7.1-3.9h0c.3.1.5.3.8.4.4.2.9.3,1.4,0-.6,0-1.2-.4-1.7-.9-.2-.2-.3-.4-.5-.5-.7-1-1.1-2.3-.8-3.4,0-.3.2-.6.4-.9l1,.8,1.4.8c-.4-.5-1-.9-1.5-1.3-.2-.2-.3-.3-.4-.5-.3-.6-.5-1.2-.6-1.7,0,0,0,0,0,0,0-.6,0-1.2.2-1.8.4-1.1,1.5-2,3-2.3-.4-.1-.8,0-1.2,0-.2,0-.4.1-.6.2-.4.2-.7.4-1.1.5h0c-.7-1.6-.7-3.2,0-4.8h0c0,0,.2,0,.3.1.1.1.3.3.4.4.4.3.8.7,1,.5,0,0,0,0,0,0-1.7-1.2-2.8-4.3-1.5-6.1,0,0,.1-.1.2-.2,0,0,0-.1.2-.2,0,0,.1-.1.2-.2.3-.2.5-.4.6-.4,0,0,.2,0,.3,0,0,0,.2,0,.3.1.1,0,.3.2.4.2,0,0,.2,0,.2,0,.4,0,1.4.2,1.7,0-.8,0-1.4-.2-1.9-.6-.4-.3-.7-.7-.9-1.1-.1-.2-.2-.5-.3-.7,0-.3-.2-.5-.2-.8-.4-2.2.4-5,1.9-6.2,0,.3.2.5.3.8.2.5.4,1,.8,1.4.2.2.3.4.5.6h0c0,0,0,.1,0,.1,0,0,0,0,.3,0-.2-.3-.4-.5-.6-.8-.9-1.5-1-3.5-.3-5.2l.5.7c-.3-1.1.1-2,.8-2.6.5-.5,1.3-.9,2-1,0,0,.1,0,.1,0,0,0,0,0,0,.2,0,.7,0,1.4.3,2h0s0,0,0,0c.2-.3,0-.6,0-.9,0-.3,0-.5.1-.7,0-.2.1-.4.2-.6h0c0-.2.2-.3.3-.5.2-.3.5-.5.8-.6.2,0,.3-.1.5-.2,1.1-.3,2.5,0,3.7.3h0l-1.4,1.4-.3.5c.1,0,.3-.2.4-.3.3-.3.6-.7,1-.9,1.2-.6,2.7-.4,4,0,.4.2.8.4,1.2.6,0,0,.1,0,.2.2.2.2.6.5.9.8h.1c.1.3.2.4.3.5,0,0,0,.1,0,.2,0,0,0,0,0,0-.1,0-.3-.1-.4-.2-1.2-.3-2.3.7-2.2,2,.2-.2.4-.5.5-.7.1-.2.2-.3.3-.4.2-.2.5-.3.9-.3.5,0,.9.2,1.2.5.2.2.3.3.5.5.1.2.3.3.4.5,0-.6-.8-1.2-.9-1.6,0-.3,0-.6,0-.8,0,0,0-.2-.1-.3h0c.8,0,1.7.1,2.5.5.2,0,.3.1.5.2,1.1.5,2,1.3,2.7,2.2l-.2-1.3c.8-.1,1.5,0,2.2.2.2,0,.5.2.7.3.2.1.5.2.7.4.1.1,0,.3-.3.4-.1,0-.3.2-.4.2-.2.1-.3.3-.3.4,1.5-.7,3-.4,4.2.8h0l-.4.7h0c0,0,.1,0,.2,0h0c.1,0,.3-.2.4-.3,0,0,.1,0,.2-.2.1,0,.3-.2.4-.3.2,0,.3-.2.5-.2,0,0,.2,0,.3,0s.2,0,.4,0c.1,0,.3,0,.5,0,.3,0,.6,0,.9,0,.2,0,.5,0,.6,0,.2,0,.4,0,.5,0,.2,0,.4,0,.6,0,0,0,.1,0,.2,0s.1,0,.2,0c0,0,0,0,0,.2,0,0,0,.2-.2.3,0,.2-.2.3-.3.5s-.1.3,0,.5c.6-.7,1.3-1.5,2.3-1.8.1,0,.3,0,.4,0,.2,0,.4,0,.6,0,1.3,0,2.5.5,3.7,1.1h0c.2-.3-1.1-.8-1-1.2.6-.1,1-.1,1.5,0,.2,0,.3,0,.5,0,.1,0,.2,0,.3,0h0s0,0,0,0c0,0,0-.2-.2-.3-.2-.2-.6-.4-.9-.4,0,0,0,0,0-.2,0,0,0,0,0,0,0,0,.2-.2.3-.3.2-.2.5-.3.6-.3.9-.4,1.9-.3,2.8-.2l-.5,1.4h.3c.1-.2.2-.4.4-.6.2-.2.3-.4.5-.6.4-.4.8-.7,1.3-.9.3-.1.5-.2.8-.3.9-.4,2-.5,2.9-.4-.4.5-.8,1.1-1.1,1.6-1,1.7-1.8,3.4-3.6,4.5-.2.1-.3.2-.5.3-.3.1-.5.3-.8.4-.2,0-.4.1-.6.2-.3,0-.5.2-.8.2-.3,0-.5.1-.8.2-.1,0-.2,0-.4.1,0,0,0,0,0,0,0,0-.2,0-.2,0,0,0,0,0,0,.1.5,0,1.1,0,1.6-.1.3,0,.5,0,.8-.1.8-.1,1.5-.4,2.2-.8.5-.3.9-.6,1.3-1h0c1.3-1.2,2-3.2,3-4.9.2-.4.5-.7.7-1,.1-.2.3-.3.4-.5.1-.1.3-.3.4-.4.3-.3.6-.4,1-.6.2,0,.4-.1.6-.2.6-.2,1.6-.2,2.5,0t0,0c.5,0,.9.2,1.3.3,0,0,.2,0,.3.1.3.2.4.5.7.7,0,0,.2,0,.3.1h0c0-.2-.2-.4-.3-.5-.1-.2-.2-.3-.4-.5-.3-.3-.6-.5-1-.7h0c.3-.2.7-.3,1-.4,1.5-.3,3.1,0,4.1,1.1.1.2.3.3.4.5.2.4.4.8.5,1.3.3,0,.3-.4.2-.7,0-.3-.2-.6-.1-.7.1,0,.2,0,.3,0,.6.2,1.3.5,1.8.9,0,0,.2.2.2.2.2.3.4.5.5.8.3.8,0,1.7-.1,2.6,0,.2,0,.4-.1.6h0c.1,0,.2,0,.2,0,0,0,.1-.2.2-.3,0,0,0-.1,0-.2,0,0,0,0,0,0,0,0,0-.1,0-.2,0-.3.2-.5.2-.8l.4,1.3c0,.7,0,1.5,0,2.2,0,.3-.1.5-.2.7-.2.4-.4.8-.8,1,0,0,0,0,0,0,0,0,0,0,0,0,0,0,0,0,.1,0,0,0,0,0,.1-.1.9-.7,1-1.5,1.4-2.4,1.5,1.4,2.3,4.8,1.5,7-.2.5-.4.8-.7,1.2-.1.1-.2.2-.3.3-.1,0-.3.2-.4.3-.3.1-.6.2-.9.4-.1,0-.3.2-.4.3.4,0,.7,0,.9-.2.3,0,.5-.2.7-.2.4-.1.8-.1,1.1,0,.2,0,.3.2.5.4,0,0,.1.1.2.2.3.3.5.7.6,1.2,0,.2.1.4.1.6,0,.5,0,1,0,1.5,0,.3-.1.5-.2.8,0,.1,0,.3-.1.4-.2.4-.4.7-.6,1,0,0,0,0,0,0,0,0,0,0-.1.1,0,0-.2.1-.3.2,0,0,0,0-.1,0,0,0,0,0-.1,0,0,0,0,0,0,0,0,0,0,0,0,.1,0,.1.2.1.3,0h0c0,0,.1,0,.2-.1,0,0,.2-.1.3-.2,0,0,.2-.1.3-.2,0,0,.2,0,.2,0,.2.1.4.4.5.8,0,.2,0,.4.1.6,0,.5,0,1,0,1.5,0,.4-.1.8-.2,1,0,0,0,0,0,0,0,.3-.2.4-.4.5,0,0,0,0,0,0-.3-.2-.5-.3-.8-.4-.5-.2-1-.2-1.5,0,.9.3,1.7.7,2.1,1.2.1.1.2.3.3.4.4.6.5,1.4.4,2.4-.1.9-.7,1.7-.9,2.5l.8-.5c.1.1.2.3.3.4.4.8.4,1.7.2,2.6ZM157,213.8l-.5.3.2-.7.3.3ZM156.5,215.2c.3-.3.6-.6.9-.8.2-.2.3-.3.4-.3,0,0,0,0,.2,0,.3,0,.8,0,1.3,0,.5,0,.9,0,1.3,0,.3,0,.6-.1.9-.2.9-.3,1.6-.9,2.4-1.1,0,0,0,0,.1,0,.4-.1,1-.3,1.6-.3.9,0,1.8,0,2.4.2h0c0,0,0-.1,0-.2,0-.2-.3-.3-.5-.3,0,0-.2,0-.3-.1-.1,0-.2,0-.3-.1.5-.3,1.1-.6,1.6-.9.3-.2.5-.5.8-.8h0c0,0-.8,2.5-.8,2.5l-.9,2.4c-.5.3-1,.6-1.5.8-1.5.6-3.3.7-4.9.9-.7,0-1.4.2-2.1.3-.2,0-.5,0-.7,0h-.2c-.3,0-.7,0-1.1,0-.5,0-1-.1-1.5,0-.1,0-.3,0-.4,0,0,0,0,0,0,0,0-.3.6-1,1.2-1.6l.2-.2ZM170.4,209.9s0,0,0,0c0-.1.1-.2.2-.3.1-.2.3-.4.4-.6,0,0,.2-.2.3-.3,0,0,.2-.2.3-.2h0c0,0,0,0,0-.1h0s0,0,0,0c-.2-.2-.8.5-1,.4,0-.7,0-1.3,0-2,0-.2,0-.4,0-.6,0-.1,0-.2,0-.3,0-.3.2-.6.2-.9,0-.4,0-.8,0-1.1,0-.1,0-.2,0-.3,0-.2.2-.3.3-.5,0-.1.1-.2.2-.3.2-.2.3-.4.5-.5.1-.2.3-.3.4-.4h0c-.1,0-.3,0-.5,0-.5.3-1,1-1.2.8l-.5-1.4-.6-1.4h0c.4.2.9.2,1.3.1.2,0,.4,0,.2-.3-.6,0-1.1-.2-1.5-.5-.1,0-.3-.2-.3-.3-.6-.6-.8-1.6-.4-2.5,0-.2.2-.4.3-.6s.3-.4.5-.6c0,0,.2-.2.3-.3.1-.1.3-.3.5-.4.3-.2.7-.4,1.1-.5.3-.1.5-.2.8-.2.4,0,.8-.1,1.2,0,.4,0,.7.1,1,.3.1,0,.2.2.3.3s0,0,0,.1c0,0,0,.2.1.3,0,.1,0,.3.2.3,0,0,.1,0,.2,0h0l-.7-1.3c1.1,0,2,.4,2.7.9.7.5,1.1,1.4,1.2,2.5,0,1.3,0,2.6.4,3.7.2.4.4.8.8,1.2,0,0,.2.2.3.3h0c-1.8,1.6-2.1,3.8-1.5,6,0,.2.1.4.2.7h0c0,0-.1.1-.2.2,0,0-.2.1-.2.2,0,0-.1.1-.2.2-.1.2-.3.3-.4.5-.7,1.1-1,2.5-.8,3.9-.4,0-.8,0-1.1.2-.9.3-1.7,1-2.6,1.1.3-1,1-2,1.3-3,.8-2.2,1.1-5.9,1.1-8.3,0-.2,0-.4-.1-.5,0,0,0,0,0,0,0,0,0-.2,0-.3,0,0,.1.1.2.2.4.3.9.5,1.5.5,0,0,.2,0,.3,0,0,0,0,0,0,0,0,0,0,0,0,0s0,0,0,0h0c-.6,0-1.1-.2-1.5-.6-.1-.1-.2-.3-.3-.4,0,0,0,0,0-.1,0,0,0-.1,0-.2,0-.1-.1-.3-.2-.4,0-.2-.1-.3-.2-.5-.4-.9-.8-2-.8-2.5,0-.3,0-.5,0-.7s0-.2,0-.3c.2-.5.6-.8.8-1.5l-.8.9c-.8.4-1.1-.7-1.6-1.2-.5-.4-1-.6-1.5-.7-.3,0-.6,0-1,0h0c0,0,0,.2,0,.2,0,.1.2.1.4.1h.1c0,0,.2,0,.3,0,.2,0,.4.2.6.3.2,0,.3.2.4.3,0,0,.1.1.2.2,0,0,.1.1.1.2.2.2.3.5.4.8,0,.1,0,.3.1.5,0,.3.2.6.3,1,0,.3.2.5.3.7.3.6.6,1.2.9,1.8,0,.1,0,.3.1.4.1.6.2,1.1.2,1.7s0,1.3-.1,1.9c0,.5,0,.9-.1,1.4,0,.4,0,.8,0,1.1h0c-.1,0-.2-.2-.3-.3-.3-.3-.7-.6-1.2-.8,0,0,0,.1,0,.1,0,0,0,.1.2.2,0,0,0,0,0,0,0,0,.1,0,.2.1.1,0,.3.1.4.3,0,0,0,0,0,0,0,.1.2.3.2.4,0,.2.1.5.2.8,0,.2,0,.4,0,.5,0,.3,0,.5,0,.8,0,.1,0,.3,0,.4,0,0,0,.2,0,.3,0,0,0,.2,0,.3,0,.2-.2.4-.3.7-.2.5-.4,1.1-.7,1.7-.2.4-.3.8-.5,1.1,0,.2-.2.4-.2.5,0,.1-.1.2-.1.3h0c-.1.1-.7.3-1.1.5-.1,0-.2,0-.3.1,0,0-.2.1-.3.2-.3.2-.5.5-.8.7l-2-.3s0,0-.1-.1c0,0,0-.2,0-.3,0,0,0,0,0-.1,0-.1,0-.2,0-.3,0,0,.1-.5.3-.9.3-.7.6-1.7.7-1.9.2-.5.6-1.5,1-2.3.2-.3.3-.6.4-.9ZM164.3,195.7c0,0-.2,0-.2,0-.1,0-.3.1-.4.3-.2,0-.3.2-.4.3-.2.2-.4.3-.5.3-.1,0-.3,0-.5,0h0c-.5,0-1,0-1.5,0-1.3.1-2.4.3-3.3.6-1.1.3-2.1.8-3.3,1.2-.3.1-.7.3-1,.4-.2,0-.4.1-.6.2-2.2.9-2.1-1.3-2.8-2.7v-.2c.1,0,.3,0,.4-.1,0,0,.2,0,.2-.1s0,0,0,0c0,0,0-.1,0-.1,0,0-.2,0-.3,0-.2,0-.5.3-.7.1-.3-.4-.5-.7-.8-1-.3-.3-.6-.5-.9-.7-.3-.2-.6-.4-.8-.6,0-.2,0-.3,0-.4,0-.4.2-.8.4-1.1.1-.2.3-.4.4-.6,0,0,.2-.2.3-.3,0,0,.2-.2.3-.3,0,0-.2,0-.3,0-.1,0-.3.1-.4.2-.1,0-.3.2-.4.3t0,0c-.2.1-.3.3-.3.3h0c0-.3.2-.6.3-.8.2-.4.4-.7.7-1,.2-.2.4-.4.6-.5,1.2-.8,2.8-1.2,4.2-1,.1,0,.3,0,.4,0,.3,0,.5.1.8.2.4.1.8.3,1.1.4,0,0,0,0,.1,0,.2,0,.4.1.6.2,1.4.3,2.8.2,4.2-.1.9-.2,1.9-.5,2.8-.8.6-.2,1.1-.4,1.7-.5h0v.7c0,0-.2.5-.2.5h0c0-.1.1-.2.2-.3.1-.2.2-.3.3-.5.2-.2.3-.5.5-.7,0,0,.2-.1.3-.2,0,0,.2-.1.3-.2.8-.4,1.7-.8,2.6-1.1.9-.3,1.8-.7,2.7-1,.6-.3,1.2-.5,1.7-.8.1,0,.3-.2.4-.3.3-.2.5-.4.8-.5.2-.1.4-.3.5-.4.2-.1.4-.3.7-.3.1,0,.3-.1.4-.1.3,0,.6,0,1,0,0,0,0,0,0,0,0,0,0,0,0,0,0,0,0,0,0,0-.1,0-.3,0-.4,0-.3,0-.6,0-.8,0-.7,0-1.3.2-1.7,0-.2-.2-.3-.5-.4-1,0-.2,0-.4,0-.7,0-.1,0-.2,0-.3,0,0,0-.2.1-.3,0,0-.1,0-.2,0-.2.2-.3,1-.3,1,0,.4.3,1.2.2,1.4,0,0-.9,1-1.1,1.1-.8.6-2,1-3.2,1.3-.5.1-.9.3-1.3.4-.2,0-.4.2-.6.2-.4.2-.8.3-1.2.5-1.9.8-3.8,1.6-5.9,2.1-.8.2-1.7.3-2.5.4h0c-1.8.1-2.5-.6-3.9-.8-.3,0-.5,0-.8,0-.9,0-1.8.1-2.6,0-.3,0-.6-.2-.9-.3-.2,0-.3-.1-.5-.2-.6-.3-1.2-.6-1.8-1-1.4-.8-2.7-1.8-4.1-2.2l-1.5-1.6h0c0,0,.8,1.7.8,1.7l-.8.3c0,0,0,.2.1.2,0,0,0,0,0,0,.1,0,.3,0,.5,0,.1,0,.3-.1.4-.1l5.6,3.1c.4.2.5,1,.3,1.4,0,.2-.4.3-.5.4,0,0-.2.2-.3.3-.2.2-.4.5-.6.7,0,.1-.2.3-.2.4,0,.1-.1.3-.2.4,0,.3-.1.5-.2.8-.1.6-.3,1.1-1.1,1.4-.3,0-.7,0-1-.2-.2,0-.3-.2-.5-.3-.2-.2-.4-.3-.6-.5l.3.9c-.7,0-1.5,0-2.3,0-.3,0-.5,0-.8-.2,0,0-.2,0-.3-.2-.1,0-.3-.2-.4-.4-.1-.1-.3-.3-.4-.5-.1-.2-.3-.4-.4-.6-.4-.6-.8-1.3-1.3-2-1.4-2.5-2.8-5.6-4.3-7.2-.1-.1-.3-.3-.4-.4-.5-.4-1-.8-1.5-1.2s-.5-.5-.6-.8c-.1-.2-.2-.5-.2-.8h0c0,0,0,.2-.1.3,0,.2,0,.4,0,.6,0,.2.1.4.2.5,0,0,.1.2.2.3.1.2.3.4.4.5.1.2.3.3.4.5,0,.2-.4.9-.7,1.2,0,0,0,0,0,0-.2.3-.5.3-.8.5,0,0-.2.1-.2.2l1.5-.3h0c0,.4-.2.9-.3,1.3-.1.7-.2,1.4-.1,2.1h0c.3,0,.4-.6.5-1.2,0-.1,0-.3,0-.4,0-.2,0-.4.1-.5,0-.1,0-.2.1-.3.5,0,.9,0,1.3,0,.3,0,.5.2.8.3l4.7,7.1h0s.4,1.4.4,1.4h0c-.4.2-.7.3-1.1.5-.3.2-.7.4-1,.6-.3.2-.6.4-.9.7,0,0-.1.1-.2.2,0,0-.1.1-.2.2-.1.1-.3.3-.4.5l-1,2c-.2,0-.3,0-.5,0-.3,0-.5-.3-.7-.5s-.3-.4-.5-.7c-.2-.4-.4-.7-.6-.9,0,0-.2-.2-.4-.2-.2-.1-.5-.2-.7-.3-.3-.1-.5-.2-.7-.4,0,0-.1-.1-.2-.2-.1-.1-.3-.3-.4-.5-.1-.1-.2-.3-.3-.4,0,0-.2-.2-.2-.3-.2-.2-.3-.3-.5-.4-.3-.2-.9,0-1.1-.3,0,0,0,0,0,0,0,0,0-.1,0-.2-.2-.5-.2-1.1-.5-1.6,0,0,0-.2-.2-.2,0,0,0,0,0,0,0,0,0-.2.1-.2,0,0,.2-.1.3-.2,0,0,0,0,.1-.2.2-.2.5-1,.5-1,.2-.2.5-.2.7,0,.1,0,.2,0,.3.2,0,0,.2,0,.3.1.1,0,.3.1.4.1,1,.2,1.4-.1,2,.4,0,0,.1,0,.2.1.1,0,.2.2.3.4,0,0,0,0,.1.1,0,0,.2.2.3.3.3.5.8,1.1,1.1,1.7.3.5.5,1,.6,1.3.2.8-.2,1.4.2,2.2,0,.1,0,.2.1.3,0,0,0,0,.2,0h0c0,0,0-.1-.1-.2-.3-.6,0-1.2.2-1.8,0-.2.2-.5.2-.7,0,0,0,0,0,0,0-.1-.2-.3-.4-.6-.1-.2-.2-.4-.3-.6-.7-1.3-1.6-3-1.5-3.3,0-.2.9-.8.8-1.3-.2.2-.4.4-.7.6-.2.2-.5.3-.7.4-.1,0-.2,0-.4.1-.5.2-1.1.2-1.7.1h0c-.2,0-.4,0-.6-.1h0s.8-.7.8-.7c-.7.2-1.3.2-1.9,0,0-.8,0-1.5-.1-2.3,0-.2,0-.3-.1-.5-.1-.5-.3-.9-.5-1.4,0-.1-.2-.3-.3-.4h0c.8-.9,1.2,0,2.2,0,0,0,0,0-.1-.1-.2-.1-.5-.2-.7-.4,0,0-.1,0-.2-.1,0,0-.1-.2-.1-.3s0-.1.1-.2c0,0,.2-.2.3-.3,0,0,0,0,0,0,0-.1.2-.3.3-.4,0-.2.1-.4.1-.6,0,0,0,0,0-.2,0,0,0-.1,0-.2,0-.1,0-.2,0-.3,0,0,0,0,0,0,0,0,.2-.1.4-.3.1,0,.3-.2.4-.3,0,0,0,0,0,0,.6-.8.7-1.6.6-2.6.2,0,.5,0,.8.1.5,0,1,0,1.5,0,.1,0,.3,0,.5-.1.3-.1.6-.3.6-.3s0,0,0,0c0,0,.1,0,.2.2.2.2.4.4.5.5.2.1.4.3.6.4.6.5,1.1,1,1.6,1.5.7.8,1.2,1.6,1.6,2.5,0,.2.2.4.2.6,0,.2.1.4.2.6,0,.2.1.4.2.6,0,.2.1.3.2.5,0,0,0,0,0,.1.3.6.8,1.1,1.2,1.6.3.3.6.7.9,1,.4.5.8,1,1.1,1.7h0c0,0-.1,0-.2,0-.2,0-.4.2-.6.3,0,0-.1,0-.2.2-.1,0-.3.2-.4.4,0,.1-.2.3-.3.5,0,0,.1,0,.2,0,.1,0,.2-.1.3-.2,0,0,.2-.2.3-.3,0,0,0,0,.2-.1.1,0,.3-.1.4-.2.3,0,.6,0,.9,0-.2.5,0,.7,0,.5,0,0,.2-.3.3-.5.2.5.4,1,.8,1.3.1.1.3.2.5.3t0,0c0,0,.2,0,.3.1h0s0,0,0,0c0,0,0-.1,0-.1,0,0,0,0,0,0-.1-.1-.4-.2-.6-.3,0,0-.1-.2-.2-.2,0,0,0-.2-.1-.3-.1-.4-.1-.8,0-1.2.3,0,.5,0,.7,0,.2,0,.4,0,.6,0,.1,0,.3,0,.4-.1,0,0,.2,0,.3-.2.2-.2.5-.4.7-.5.2-.1.3-.3.4-.4,0,0,0-.1,0-.1,0,0,0,0,0,0h0c-.5.1-.8.5-1.4.6-1.4.3-3-.7-4.3-1.9-.9-.8-1.6-1.8-2-2.6l1.1.3c-.4-.2-.6-.4-.8-.6-.4-.5-.5-1.2-.4-2,0-.2,0-.3,0-.5,0,0,.2,0,.2.1.1,0,.2.2.4.3.3.2.6.4,1,.5.2,0,.4,0,.5,0s.4,0,.5,0c.2,0,.3,0,.5,0,0,0,.1,0,.2,0,.2,0,.4.3.7.4,0,0,.2,0,.2.2.2,0,.3.2.5.3.2.1.5.2.7.3.4.1.7.1,1,.1.5,0,1-.1,1.4,0,.3,0,.7.2,1.1.4.2,0,.3.1.5.2.5.2,1,.4,1.4.5.1,0,.3,0,.4,0,.2,0,.3,0,.5,0,0,0,.2,0,.3,0,.2,0,.3,0,.5-.1,0,0,0,0,.1,0,.2,0,.3,0,.4-.1,0,0,.1,0,.2,0,.3,0,.7,0,1,.2.3,0,.5.2.8.2h0c3.5.5,8.1-1.2,11.3-2.5,1-.4,1.9-1.1,3-1.1l-.2,1.1v.2c.4-.7.8-1.6,1.5-2.2,0,0,.1-.1.2-.2.3-.3.5-.4.9-.8,0,0,.1-.1.2-.2h0s.3-.3.3-.3c.9-1,1.5-1.1,3-.8.4,0,.8.1,1,.3.2.1.3.3.3.6h0c-.2,0-.4,0-.7.1-.1,0-.2,0-.4.1-.1,0-.2,0-.3.1,0,0,0,0-.1,0,0,0-.1,0-.2,0,0,0,0,.1,0,.3.7-.2,1.4,0,2,.4.2.2.4.7.7.9,0,0,.1,0,.2.1,0,0,.2,0,.3.1,0,0,0,0,.1,0,.1,0,.2,0,.2.1,0,0,0,.1,0,.2,0,.3,0,.7,0,1.1,0,0,0,.2,0,.2.1.4.5.7.7,1,0,0,0,.1.1.2,0,0,0,.1,0,.2,0,.1,0,.3,0,.4,0,0,0,.2-.1.3,0,.2-.2.4-.3.6-.2.3-.5.6-.7.9-.9.9-2.2,1.8-3,2.1-.2,0-.3.1-.5.2-1.4.7-3.5,1.6-5.5,2.4-.5.2-1,.4-1.4.6h0c-.5.2-.9.4-1.3.5h0c-.4.1-.8.3-1.2.3-.2,0-.3,0-.5.1-1.1.2-2.6,0-3.9.1-.3,0-.5,0-.7,0,0,0,0,0-.2,0s0,0,0,0c-.1,0-.3,0-.5,0-1,.2-2.5.6-3.3.7-.3,0-.4,0-.5,0s-.2,0-.5,0c-.5-.1-1.1-.3-1.1-.3,0,0-.2,0-.2-.1,0,0,0,0-.1-.2.2-.2.4-.5.6-.8.2-.3.4-.6.5-.9,0,0,.1-.2.1-.3s0,0-.2,0c-.3.6-1.5,2-2.2,2-.5,0-1.4-.8-2.2-1-.1,0-.2,0-.3,0,.3.3.6.4.9.6,0,0,.2.1.2.2l.2.2c.1.2.2.3.3.5h0c-.1,0-.7,0-1.1,0s-.2,0-.3,0c0,0,0,0,0,0,0,0,0,0,0,0,0,0,0,0,0,0,0,0,.1,0,.2,0,.4.1,1.3.1,1.6.3,0,0,.2.3.3.5,0,0,0,.1,0,.2,0,0,0,0,0,0,0,.2,0,.3-.1.5,0,0,0,0-.1,0-.2.1-.5.2-.7.4,0,0,0,0-.1.2h0c1.2-.3,1.9-.5,2.5,0,.1.1.2.3.3.5,0,.2.2.4.3.7,0,0,0,.2,0,.2s0,0,0,0c0,0,0,0,.2,0h0c0-.2,0-.3,0-.5,0,0,0-.1,0-.2,0,0,0-.2,0-.2,0,0,0,0,0,0,0-.1-.1-.3-.2-.4,0,0,0-.1-.1-.2,0-.2-.2-.3-.3-.4,0,0,0,0,0,0,.2-.1,1.5-.7,1.7-.8,2.7-1,5.7-.9,8.6-1.1.2,0,.4,0,.7,0,.5,0,.9-.1,1.4-.2h0c.8,0,1.5,0,2.2.3,0,0,0,0,0,0,.3.1.5.3.7.6h0c0,0,0-.1,0-.2,0-.1,0-.3-.2-.3,0,0,0,0-.1-.1-.2-.2-.5-.3-.6-.5-.1-.1,0-.1,0-.2,0,0,.1,0,.2-.1.2-.1.4-.3.7-.4.2,0,.3-.2.5-.3.3-.2.7-.4,1.1-.6.2,0,.4-.2.6-.3.4-.2.8-.4,1.3-.6.7-.3,1.3-.6,1.9-.8.4-.1.8-.3,1.2-.4.6-.2,1.2-.3,1.6-.2.6,0,1,.1,1.3.3.1,0,.3.2.4.3.3.3.4.6.6,1,.1.3.3.6.6.9,0,0,.2.2.2.2-.3.6-.5,1.1-.5,1.7-.1,1.1.1,2.1.5,3.3,0,0,0,0,0,.1,0,.1.1.3-.1.3,0,0,0,0,0,0-.1-.2-.4-1-.5-1.3,0,0,0,0,0,0-.1-.2-.3-.4-.5-.6-.6-.5-1.3-.9-2.1-1,0-.5.3-.9.4-1.3,0,0,0,0,0,0,0-.2,0-.7,0-.9,0,0,0,0,0,0h0c0,1.3-.6,1.7-1.2,1.9-.7.2-1.5,0-2.4.2-.2,0-.3,0-.5,0-1.2.2-2.5.6-3.3,1.3s-.3.4-.5.7c-.2.3-.3.5-.5.6-.1.1-.3.2-.4.2-.1,0-1-.3-1.3-.3,0,0-.1,0-.2,0-.5,0-1.4,0-1.8,0ZM150.9,200.4h-.2v-.7c0,0,.5.3.5.3l-.3.3ZM150.7,212.1l.3.5c0,0-.2,0-.2,0,0,0-.1,0-.1-.2,0,0,0-.1-.1-.2-.3-.6-.5-1.7-.3-1.9h0s.3.9.3.9l.3.9ZM148.4,188v-.3h.4v.3h-.4ZM138.8,193.5h0c0-.1-.1-.9-.1-.9h0s.3.2.3.2l.5.3h0c0,0,0,.1,0,.2,0,0,0,0,0,0,0,0-.1,0-.2,0,0,0-.2,0-.3,0,0,0-.1,0-.1,0ZM131.7,182.3l1.2,1.6h-1.4c0-.1.1-1.6.1-1.6ZM136.9,205.1c.1,0,.3,0,.5,0,.1,0,.2,0,.4.1.3.1.6.3.8.6,0,0,.2.2.2.3.3.4.6.8.8,1.1,0,0,0,0-.1.1,0,0-.1,0-.2,0,0,0,0,0,0,0h0c0,0-.2,0-.3,0-.3,0-.5,0-.8,0,0,0-.1,0-.2,0,0,0,0,0-.1.1h0c.2,0,.5,0,.7,0,0,0,.2,0,.2,0,.4.1.7.4,1,.7,0,0,.1.1.2.2,0,0,.1.1.2.2.5.7.7,1.5.2,2.1h0s0,0,0,0c0,0-.2,0-.3,0s0,0,0,0c0,0,0,.2,0,.3-.3.5-.8.7-1.3.8-.1,0-.3,0-.4,0-.4,0-.8,0-1.2,0-.6,0-1.2,0-1.7,0-.1,0-.2,0-.3,0-.4,0-.9.1-1.3.2-.1,0-.3,0-.4,0-.6.2-1.1.4-1.6.6-.4.2-.8.4-1.1.6,0,0,0,0-.1,0-.5-.1-1.4-.4-1.9-.8-.3-.2-.4-.5-.2-.8,1.1-.3,2.2-1.1,2.3-2.3.2-.1,1,.5,1.3.6,1.3.5,2.5.8,3.7.8s.9,0,1.4,0h0c.5,0,.9-.2,1.4-.3,0,0,0,0,0,0,0-.1-.1-.2-.3-.2-.6,0-1.7.3-1.9-.5-.2-.6-.2-1.4.1-1.9,0,0,0,0,0-.1,0,0,.1-.1.2-.2.2-.1.3-.2.3-.4-.5.2-.9.4-1.2.8-.1.2-.3.4-.4.6,0,.2-.2.5-.2.7h0c-1.5.5-3.1.1-4.1-.9-.2-.2-.3-.3-.4-.5s-.2-.4-.3-.6c0-.1,0-.2-.1-.3,0-.2-.1-.5-.2-.7h0c.2.1.4.3.6.4.5.2.9.4,1.4.4.8.1,1.6,0,2.3-.3.1,0,.3,0,.4-.2.4-.2.7-.4,1-.8h0c.3-.3.5-.7.6-.9,0,0,.2-.2.3-.2ZM140.7,203.4c0,.4.2.8.2,1.2,0,.6-.2,1.4-.2,2.1s0,.4,0,.6h0c-.3,0-.3-.1-.4-.2s-.2-.2-.3-.3c-.2-.2-.3-.4-.5-.6,0,0-.1-.2-.2-.3,0,0-.1-.2-.2-.3-.3-.3-.6-.6-1-.8,0,0-.1,0-.2,0-.2,0-.4-.2-.6-.2-.1,0-.2-.1-.3-.2,0,0,0-.1,0-.2,1.1,0,2.2-.2,3.2-.8.1,0,.2-.1.3-.2h0c0,.1,0,.3,0,.4ZM136.2,204c-.2.7-.4,1.2-.8,1.6-.2.3-.5.5-.8.6-2.1,1-5.4-.6-6.9-2.2l-.6-1.4c0,.7.1,1.2.4,1.8.3.5.6.8.9,1,.1,0,.2.2.4.3,0,0,0,0,.1.1,0,0,0,0,.1.2,0,.1.2.3.2.4.3.6.6,1.5.7,2.3.1.6.1,1.1,0,1.4,0,.3-.2.5-.4.7-.1.1-.3.3-.5.4-.3.2-.5.3-.8.3,0-.3-.1-.6-.3-.9-.1-.3-.3-.5-.4-.8,0-.1-.2-.3-.3-.4-.3-.3-.6-.7-.9-.9.3-.7.5-1.4.5-2.1.1-1.4-.2-2.7-1.2-3.9-.1-.1-.3-.3-.4-.4h0s.6-.6.6-.6h0c0,0,.2,0,.3,0,.3,0,.7,0,1,0,.4-.1.8-.3,1.1-.3,0,0,.2,0,.3,0,0,0,0,0,.2,0,.5.2,1.2.5,1.7.7,0,0,.2.1.2.2.1,0,.2.2.3.2,0,.4,0,.7,0,1,0,.2,0,.3.1.5,0,.3.2.6.4.9h.3c0,0-.1-.2-.2-.3-.2-.5-.1-1.1-.1-1.7h0c.3,0,.5.1.6.2.7.3,1.1.9,2.2,1,0,0,.1,0,.3,0,0,0,0,0,.1,0,.2,0,.5-.1.5-.2-.7,0-1.3-.3-1.7-.8-.3-.2-.5-.5-.8-.7-.2-.1-.4-.3-.6-.4-.1,0-.3-.2-.4-.3-.4-.3-.9-.5-1.3-.7,0,0,0,0,0,0-.3-.1-.5-.2-.7-.3-.2,0-.3-.1-.5-.2,0,0-.2,0-.3,0-.1,0-.3,0-.4,0l.4-1.6-1.2,1.2-.9.4c0-.5,0-.9.1-1.3,0-.3,0-.6,0-.9,0-.4-.2-.9-.4-1.5-.2-.5-.3-1-.3-1.3,0,0,0-.1,0-.2,0-.1,0-.3.1-.4,0-.1.1-.2.1-.4,0,0,0-.2,0-.3,0,0,0-.1,0-.2,0-.3,0-.5,0-.8,0,0,0,0,0,0,.1,0,.3,0,.5.2.2,0,.3.2.5.4.3.3.6.7.6.9,0,0,0,.2,0,.3,0,.2,0,.4-.2.7-.2.6-.5,1.3-.6,1.6l.6-.3.9,1.2-.2-1.8h0s0,0,0,0c.3,0,1.3.2,2,.4.2,0,.3,0,.4.1,0,0,.1,0,.2,0,0,0,.2.1.2.2,0,0,0,0,.1.2,0,.1.2.2.3.3,0,0,0,.1.1.2,0,0,.2.2.3.3.2.1.4.3.7.3.1,0,.2,0,.3.1.1,0,.2.1.3.2h0c-.2,1.7.3,3.3,1.5,4.4.3.3.7.6,1.2.8ZM127.3,177.8c.2,0,.3,0,.5-.1,0,0,0,0,.1,0,.1,0,.3,0,.4-.2.1,0,.2-.1.3-.2,0,0,.2-.1.2-.2h0c0,.5,0,1.1,0,1.6-.1.5-.4.9-.9,1,0-.3-.2-.5-.3-.7-.1-.1-.2-.3-.3-.4-.2-.2-.4-.4-.5-.6.2,0,.4,0,.6-.1ZM137.9,181.1l-.3-.7h.7l-.3.7ZM176.4,187.6l1.4-1.4c.1.3,0,.7,0,1,0,0,0,.1,0,.2,0,.1,0,.3.1.4h-.2s-1.3-.3-1.3-.3h0ZM151.9,193.8c-.2-.2-.3-.4-.5-.7h0c0,0,.1,0,.2,0,.4,0,.7.1,1.1.3.1,0,.3,0,.4.1,0,0,.2,0,.2,0h0c0,0-.1.2-.2.2-.4.4-.9.4-1.2,0ZM167.7,216.2c0,0,0,.2,0,.3s0,.2,0,.2h0c-.2.2-.5.2-.7,0,0,0,0,0-.1,0,0,0,0,0-.1-.1l.9-.5s0,0,0,0ZM165.5,164.7h0s0,0,0,0h0ZM143.4,164.6s0,0,0,0h0s0,0,0,0Z"/>
    <path class="st16" d="M122.3,212.5c0,.6.1,1.5.3,2,.5,1.7,3,2.4,4.4,3.3s2.4,1.7,3,3l-2.1-1.6c-2-1.3-5.3-1.8-6.1-4.3-.5-1.5,0-3.4.3-4.9h.3c0,.9,0,1.7,0,2.5Z"/>
    <path class="st16" d="M181.6,217.6c-3.6,4.5-10.2,5.4-15.6,4.8l1.6-.3c5.3-.3,11.3-1.4,14.7-5.9.2.4-.3.6-.5.9s0,.3-.2.4Z"/>
    <path class="st16" d="M186,196.8c0,.6.2,1.1.3,1.7.2,3.4-1.2,8.5-2.2,11.9,0,.2,0,.4-.3.5-.2-4.7,2.5-9.1,1.9-13.9,0-.3,0-.2.3-.2Z"/>
    <path class="st16" d="M120.1,190.4c.1.1.7,2.1.7,2.4,0,1,0,2.1-.3,3.1.5-.3.9-.6,1.5-.5-.9.8-1.6,1.1-1.9,2.3-.4,1.8-.1,3.9.5,5.6-.3.3-.8-1.4-.9-1.5-1-3.5.4-5.8.5-8.9,0-.8-.2-1.5-.4-2.2s.2-.3.2-.2Z"/>
    <path class="st16" d="M143.1,177.1c.6.9,1,1.9.1,2.7,0-1,0-2.2-.8-2.9s-.9-.4-1.3-.6c-.6-.4-1.3-.8-1.9-1.3s-2-2.3-2-2.5.1-.2.3,0c.6.4,1.4,1.4,2,1.9,1.7,1.3,3.7,2.2,5.8,2.8v.3c0,0-2.3-.4-2.3-.4Z"/>
    <path class="st16" d="M147.6,181.5c.6-1.1.9-2.4.1-3.5l-1-1c1.8.4,2.3,2.4,1.5,3.9s-.5.8-.7.6Z"/>
    <path class="st16" d="M121,210h-.3c.8-1.6.6-3.2.1-4.8,1.2,1.2,1,3.4.1,4.8Z"/>
    <path class="st16" d="M153.1,180.7c-.3-.2-.2-.8-.4-1.2-.2-.6-.9-1.1-1.4-1.3s-.9-.1-1.1-.5c1.9-.2,3.3,1.1,2.9,3Z"/>
    <path class="st16" d="M159.3,176.5c-.5.7-1.8,1.4-2.7,1l2-1,1.1-1.5c.2.4-.1,1.1-.4,1.5Z"/>
    <path class="st16" d="M158.1,182.2c.7-1.5.5-2.8-.5-4,1.5.4,1.7,2.5,1,3.6s-.2.4-.4.3Z"/>
    <path class="st16" d="M172.3,172.1c-.4,0-.2,0-.3-.3-.2-.4-.4-1-.4-1.4s.5-2,1-1.8-.2.7-.3.9c-.3.8-.1,1.8,0,2.6Z"/>
    <path class="st16" d="M119.8,188.5c-.3.3-1.5.9-1.9.4l1.6-.8.6-1.1c.3,0,.1.7.1.9s-.3.6-.4.7Z"/>
    <path class="st16" d="M147.2,163.2c-.3.8.5,1.2,1.3,1.1s.8-.7.8-.2c-.8,1-1.8,0-2.5.8,0,.2.6.6,0,.6l-.5-.8.8-.4c0-.1-.6-1.2,0-1.1Z"/>
    <path class="st16" d="M157.4,164.9l1.2,1.6c-.4.3-1.2-1.3-1.5-1.6h.3Z"/>
    <polygon class="st16" points="152.8 165.4 152.3 165.3 152 165.5 152 164.9 152.6 165 152.8 164.7 152.8 165.4"/>
    <path class="st16" d="M147.7,166.1c0-.4.1-.2.3-.3.3-.2.6-.3.9-.5,0,.6-.7.9-1.2.8Z"/>
    <path class="st16" d="M155.1,165c.1.1-.8,1.6-1.1.9s.9-.3.7-.8h.4Z"/>
    <path class="st16" d="M150.3,164.9l.8-1.1c0,.6-.3.9-.8,1.1Z"/>
    <path class="st16" d="M149.6,165s-.1.4.1.5l-1-.4v-.3s.8.1.8.1Z"/>
    <path class="st16" d="M149.9,163.8c-.3,0-.8.1-1-.3.3,0,.8-.1,1,.3Z"/>
    <path class="st16" d="M151.6,164.7c-.4,0-.6-.3-.2-.5l.2.5Z"/>
    <path class="st16" d="M153.2,160.2c-.3,0-.6-.5-.9-.5-1,0-.4,1.4-1.5,1.3,1.5-1.5,0-.8-.3-2,.5.6,2,1,1.5-.1l.5.2c-.3.7.6.6.6,1.2Z"/>
    <path class="st16" d="M146.5,160.8c-.1.6-.5-.1-.7,0s0,.6-.5.4c.4-.5.6-.5.4-1.2.3.2.3.8.8.8Z"/>
    <path class="st16" d="M154.6,162.3c.1-.3.5-.4.7-.6s-.2-.5.2-.5c.5.5-.4,1.2-.9,1.1Z"/>
    <path class="st16" d="M153.3,161.7c-.3-.2-.5,0-.8,0v-.7s.7.2.7.2v.5Z"/>
    <path class="st16" d="M149,158.4c-.2.4.1.6.3,1-.4.3-1.1-1-.3-1Z"/>
    <path class="st16" d="M159.1,162.8l-.7-.8.3-.5c-.1.6.2.7.3,1.2Z"/>
    <path class="st16" d="M154.5,159.9s-.3,0-.2.2l.5.9h-.5c0-.1,0-.8,0-.8h-.5s.8-.7.8-.7c.1,0,0,.3,0,.4Z"/>
    <path class="st16" d="M156.5,161.4c0,0,0-.1,0-.2.2-.8,1-.3,0,.2Z"/>
    <path class="st16" d="M130.8,160.9c.1-.1,1.1,1,1.9-.2s-.3-4,0-5.8l1.1,4c.1,1.2-.8,3.2-2.3,2.7s-.9-.6-.7-.7Z"/>
  </g>
</svg>