<?xml version="1.0" encoding="UTF-8"?>
<svg id="Layer_1" xmlns="http://www.w3.org/2000/svg" version="1.1" viewBox="0 0 425.2 425.2">
  <!-- Generator: Adobe Illustrator 29.0.0, SVG Export Plug-In . SVG Version: 2.1.0 Build 186)  -->
  <defs>
    <style>
      .st0 {
        fill: #ef9221;
      }

      .st1 {
        fill: #e21f26;
      }
    </style>
  </defs>
  <path class="st1" d="M107.4,262.3c-1.3-2.6-3-4.8-5-6.5-2.1-1.7-4.4-3.4-6.9-4.8-2.5-1.5-5.1-2.9-7.7-4.1-2.6-1.3-5-2.6-7.1-3.8-2.2-1.3-4-2.8-5.4-4.5-1.5-1.8-2.2-3.8-2.2-6s1-4.6,2.9-6.1c1.8-1.4,4.1-2.1,6.9-2.1s4.7.5,6.8,1.5c2.1,1,3.8,2.1,5.2,3.5,1.3,1.3,2.5,2.7,3.6,4.1,1,1.3,2,2.4,2.8,3.3.8.9,1.3,1,1.4,1.1h.8c.2-.1.5-.3.8-.5.2-.2.4-.6.4-1.1l-3-15.2c-.1-.7-.4-1.1-1.5-1-.3,0-.7.3-1.1.7-.8.9-1.7,1.3-2.6,1.3s-1.8-.2-6.1-1.4c-3-.9-6-1.3-8.9-1.3-7.2,0-12.8,1.7-16.8,4.9-4,3.2-5.9,7.3-5.9,12.4s.5,4.5,1.4,6.4c1,1.9,2.2,3.5,3.7,4.7,1.6,1.3,3.4,2.6,5.5,3.8,2.1,1.2,4.2,2.3,6.3,3.2,2.2.9,4.4,2,6.6,3.3,2.2,1.3,4.1,2.6,5.8,4,1.7,1.4,3.1,3.3,4.2,5.5,1.1,2.2,1.6,4.7,1.6,7.4,0,5.4-1.9,9.6-5.7,12.5-3.7,2.8-8.2,4.2-13.3,4.2s-8.2-1.3-11.1-3.7c-2.9-2.5-4.4-5.7-4.4-9.5s1.1-6.6,3.1-8.8c2.1-2.2,4.7-3.3,7.7-3.3s4,.5,5.3,1.6c1.4,1.1,2.1,2.5,2.1,4.2s-.4,2.6-1.3,3.3c-.9.8-2.3,1-4.1.6-.9-.1-1.6,0-2.2.6-.6.6-.8,1.3-.8,2.4s.4,1.8,1.2,2.4c.9.7,2.2,1,3.8,1,2.5,0,4.4-.7,5.9-2.3s2.3-3.4,2.3-5.8-1.2-5.2-3.6-7.2c-2.4-2.1-5.7-3.1-9.8-3.1s-9.7,1.4-12.9,4c-3.2,2.7-4.7,6.1-4.7,10.3s2.2,9.1,6.7,12.4c4.5,3.3,10.8,5,18.7,5s11.2-1,16-2.9c4.8-1.9,8.8-4.8,11.8-8.6,3-3.8,4.5-8.2,4.5-13.2s-.7-6.1-1.9-8.7Z"/>
  <path class="st1" d="M162.2,277.3c-.2-.2-.6-.6-1.2-1.2-1.4-1.2-2.1-2.5-2.1-4v-20.4c0-9.1-5-13.5-15.2-13.5s-7.4,1.5-9.7,4.5l-1.7,2.2v-26.8c0-.3,0-.5-.3-.8-.2-.2-.5-.3-.8-.3h-1.8l-12.8,3.5c-.8.2-.8.4-.7.7,0,.2.2.4.4.5.6.4,1.3.8,1.9,1.4.8.7,1.2,1.6,1.2,2.8v46.2c0,1.5-.7,2.8-2.1,4-.9.8-1.2,1.2-1.4,1.4v.2c.1,0,.2,0,.4,0h18.9c.3,0,.5,0,.5,0,0,0-.2-.4-1.4-1.5-1.4-1.2-2-2.5-2-4v-21.8s.4-1.8.4-1.8c.3-1.4,1-2.8,2.2-4.2,1.3-1.4,2.9-2.2,4.7-2.2s3.9,1,4.9,3c1,1.8,1.5,4.8,1.5,9.2v17.7c0,1.5-.7,2.8-2,4-1.3,1.1-1.4,1.5-1.4,1.5h0c0,0,.2,0,.5,0h18.9c.3,0,.5,0,.5,0,0,0,0-.1-.3-.4Z"/>
  <path class="st1" d="M214.6,275.8c-1.2.3-2.2.2-3-.4-.9-.6-1.3-1.7-1.3-3.2v-33c0-.3,0-.5-.3-.8-.2-.2-.4-.3-.8-.3h-1.8l-12.8,3.5c-.7.2-.7.4-.7.7s.2.3.4.4c.6.4,1.3.8,1.9,1.4.8.7,1.2,1.6,1.2,2.8v21.3c-1.4,5.1-3.9,7.7-7.5,7.7s-3.8-.8-4.9-2.4c-1-1.5-1.5-3.3-1.5-5.5v-28.8c0-.3-.1-.5-.3-.8s-.5-.3-.8-.3h-1.7l-12.8,3.5c-.8.2-.8.4-.7.7,0,.2.2.4.4.5.7.4,1.3.9,1.9,1.4.8.7,1.1,1.6,1.1,2.8v20.1c0,3.8,1.2,6.6,3.8,8.8,2.6,2.1,6.4,3.2,11.3,3.2s8.7-1.5,11-4.6l.9-1.2.7,1.4c1.5,3,4.4,4.5,8.9,4.5s4-.4,5.6-1.1c1.5-.7,2-1.3,2-1.6s0-.5-.4-.6Z"/>
  <path class="st1" d="M270.1,207.4c-3.8-2.4-8.9-3.6-15.3-3.6s-11.2,1.1-15.6,3.2c-4.3,2.1-7.8,5-10.2,8.8l-.5.7-.8-.4c-1.3-.6-3.8-1.9-7.9-3.7-4-1.9-6.9-3.2-8.6-4-1.7-.8-4.4-1.9-7.9-3.4-3.5-1.4-6.5-2.5-8.8-3.1-2.3-.7-5-1.3-7.9-1.8-2.9-.5-5.8-.8-8.4-.8-8.1,0-14.4,1.6-18.7,4.7-4.2,3.1-6.3,7-6.3,11.9s1.7,8.1,5.3,10.8c3.6,2.8,8.3,4.1,14,4.1s7.7-1.1,10.5-3.2c2.8-2.1,4.1-4.6,4.1-7.6s-.9-4.3-2.7-5.9c-1.8-1.7-3.9-2.5-6.4-2.5s-3,.4-4,1.1c-.9.7-1.3,1.5-1.3,2.6s.3,1.8.9,2.4c.3.3.9.8,2.2.6,1.8-.3,3.2,0,4.1.6,1,.7,1.5,1.9,1.5,3.4s-.7,3-2.2,4.1c-1.4,1.1-3.2,1.7-5.5,1.7s-5.9-1.1-8-3.3c-2.1-2.2-3.2-5.2-3.2-8.9s1.5-7,4.4-9.5c2.9-2.4,6.7-3.6,11.3-3.6s5.9.3,9,.9c3,.6,6.5,1.6,10.1,3,3.6,1.4,6.6,2.6,9,3.6,2.3,1,5.8,2.6,10.2,4.7,4.5,2.2,7.6,3.6,9.3,4.4l.8.4-.3.8c-1.2,3.1-1.8,6.5-1.8,10.1v48.3c0,0,0,.2.1.3.2,0,.7-.3,1.8-1.5,1.4-1.4,2.8-2,4.1-2s2.3.3,3.7,1c1.2.6,2.7,1.1,4.6,1.7,1.8.6,3.9.9,6.2.9,6.7,0,12.1-2,16-5.8,3.9-3.8,5.9-9.3,5.9-16.2s-1.8-10.6-5.2-13.9c-3.5-3.4-8.1-5.1-13.8-5.1s-6.9,1.1-9,3.5l-1.7,1.8v-14.3c0-1.3,0-2.6.1-3.7v-1.2c0,0,1.2.4,1.2.4,6,2,11.4,3,16,3,6.7,0,11.9-1.2,15.5-3.5.6-.4,1.1-.8,1.6-1.2-.6-.5-.7-1.1-.7-1.6,0-.6,0-2.1,2.2-2.6l1.9-.5c.2-.8.4-1.7.4-2.6,0-3.2-1.8-6-5.5-8.3ZM237.6,248.8c1.3-5,3.8-7.6,7.6-7.6s4.4,1.5,5.9,4.4c1.4,2.7,2.1,6.6,2.1,11.6,0,13.2-2.9,19.6-8.9,19.6s-4.3-.6-6.2-1.8l-.4-.3v-25.9ZM263.4,221.8c-2.1,1.6-5,2.5-8.6,2.5s-9.4-1.1-15.4-3.4l-.8-.3.3-.9c1.2-3.9,3.3-7,6-9.2,2.8-2.2,6.1-3.4,10-3.4s6.4.8,8.5,2.3c2.2,1.6,3.4,3.7,3.4,6.1s-1.1,4.5-3.3,6.2ZM274.2,220.5h-.3c-.8.3-.8.5-.7.8,0,.1,0,.2.2.3,0,0,.1.1.2.2.2.1.4.2.6.4.5-.6,1-1.3,1.4-2l-1.3.4Z"/>
  <path class="st1" d="M342.1,287.4c-1-1.1-2.1-1.6-3.5-1.6s-2.9.6-4,1.8c-1,1.2-1.3,2.5-.9,4.1.7,2.4.3,4.5-1.1,6.1-1.4,1.6-3.5,2.4-6.2,2.4-6.8,0-10.2-6.3-10.2-18.8v-29.8c0-9.1-5-13.5-15.3-13.5s-7.3,1.5-9.7,4.5l-1.7,2.2v-26.7c0-.3,0-.5-.3-.8-.2-.2-.5-.3-.8-.3h-1.7l-10,2.8-1.2.3-1.3.4h-.3c-.8.3-.8.5-.7.8,0,.1,0,.2.2.3,0,0,.1.1.2.2.2.1.4.2.6.4.3.2.5.4.8.6.2.1.4.3.6.5.8.7,1.1,1.6,1.1,2.8v46.2c0,1.5-.7,2.8-2.1,4-1.3,1.1-1.4,1.5-1.4,1.5h0c0,0,.2,0,.5,0h18.9c.3,0,.5,0,.5,0,0,0,0-.1-.2-.4-.2-.2-.6-.6-1.2-1.2-1.4-1.2-2.1-2.5-2.1-4v-21.8s.4-1.8.4-1.8c.4-1.5,1.1-2.8,2.3-4.2,1.3-1.4,2.9-2.2,4.8-2.2s3.8,1,4.9,3c1,1.8,1.5,4.8,1.5,9.2v24.2c0,7.9,2.1,14.1,6.1,18.2,4.1,4.1,9.8,6.2,16.9,6.2s9.4-1.2,12.6-3.5c3.1-2.2,4.6-4.8,4.6-8s-.5-3.3-1.5-4.3Z"/>
  <path class="st1" d="M373.4,275.8c-1.2.3-2.3.2-3.1-.4-.9-.6-1.3-1.7-1.3-3.2v-33.8c0,0,0-.2-.1-.3-.1,0-.7.3-1.8,1.4-1.4,1.3-2.8,2-4.2,2s-2.2-.3-3.5-.9c-1.2-.5-2.7-1.1-4.6-1.7-1.8-.6-3.9-.8-6.2-.8-6.7,0-12.1,2-16,5.8-3.9,3.8-5.9,9.3-5.9,16.2s1.8,10.5,5.2,13.9c3.5,3.4,8.1,5.1,13.8,5.1s7.8-1.5,10-4.6l.9-1.3.7,1.4c1.5,3,4.4,4.5,8.9,4.5s4-.4,5.6-1.1c1.5-.7,2-1.3,2-1.6s0-.5-.3-.6ZM356.2,268.5c-1.3,5-3.8,7.6-7.6,7.6s-4.4-1.5-5.9-4.4c-1.4-2.7-2.1-6.6-2.1-11.5,0-13.2,2.9-19.6,8.9-19.6s4.2.6,6.2,1.8l.5.3v25.8Z"/>
  <g>
    <path class="st0" d="M139.4,301.8h-3.3v-12.8h-4.2v-2.7h11.8v2.7h-4.2v12.8Z"/>
    <path class="st0" d="M149,285.2v3.4c0,.6,0,1.2,0,1.7,0,.5,0,.9,0,1.1h.2c.3-.4.6-.7.9-1,.4-.3.7-.4,1.2-.6.4-.1.9-.2,1.4-.2.9,0,1.6.2,2.2.5s1.1.8,1.5,1.4c.4.6.5,1.5.5,2.5v7.8h-3.2v-7c0-.9-.2-1.5-.5-1.9-.3-.4-.8-.7-1.4-.7s-1.2.2-1.5.5-.6.7-.8,1.3c-.2.6-.2,1.3-.2,2.1v5.6h-3.2v-16.6h3.2Z"/>
    <path class="st0" d="M165,289.6c1.1,0,2,.2,2.8.6.8.4,1.4,1,1.8,1.8.4.8.6,1.8.6,2.9v1.6h-7.7c0,.9.3,1.6.8,2.2.5.5,1.2.8,2.1.8s1.5,0,2.1-.2c.6-.2,1.3-.4,1.9-.7v2.5c-.6.3-1.2.5-1.8.6s-1.4.2-2.3.2-2.2-.2-3.2-.7c-.9-.4-1.6-1.1-2.2-2-.5-.9-.8-2-.8-3.4s.2-2.6.7-3.5c.5-.9,1.1-1.6,2-2.1.8-.5,1.8-.7,3-.7ZM165,291.9c-.6,0-1.2.2-1.6.6-.4.4-.7,1-.7,1.9h4.6c0-.5,0-.9-.3-1.3-.2-.4-.4-.7-.7-.9-.3-.2-.8-.3-1.3-.3Z"/>
    <path class="st0" d="M188.4,301.8l-1.1-3.7h-5.7l-1.1,3.7h-3.6l5.5-15.6h4l5.5,15.6h-3.6ZM186.5,295.3l-1.1-3.6c0-.2-.2-.6-.3-.9s-.2-.8-.4-1.2-.2-.7-.3-1c0,.3-.2.7-.3,1.1-.1.4-.2.8-.4,1.2-.1.4-.2.7-.2.8l-1.1,3.6h4.1Z"/>
    <path class="st0" d="M204.6,289.9v11.9h-2.5l-.4-1.5h-.2c-.3.4-.6.7-1,1-.4.3-.8.4-1.3.6-.5.1-.9.2-1.4.2-.9,0-1.6-.2-2.2-.5-.6-.3-1.1-.8-1.5-1.4-.4-.6-.5-1.5-.5-2.5v-7.8h3.2v7c0,.9.2,1.5.5,1.9.3.4.8.6,1.5.6s1.2-.2,1.6-.5.6-.7.8-1.3.2-1.3.2-2.1v-5.6h3.2Z"/>
    <path class="st0" d="M216.3,298.2c0,.8-.2,1.5-.6,2.1s-.9,1-1.7,1.3c-.8.3-1.7.4-2.8.4s-1.5,0-2.1-.2c-.6-.1-1.2-.3-1.8-.5v-2.7c.6.3,1.3.5,2.1.7.7.2,1.4.3,2,.3s1.1,0,1.4-.3c.3-.2.4-.4.4-.7s0-.4-.2-.5c-.1-.2-.3-.3-.7-.5-.4-.2-.9-.5-1.7-.8-.7-.3-1.4-.6-1.8-.9-.5-.3-.8-.7-1.1-1.1-.2-.4-.3-1-.3-1.7,0-1.1.4-1.9,1.3-2.5.9-.6,2-.8,3.4-.8s1.4,0,2.1.2c.7.1,1.4.4,2.1.7l-1,2.3c-.6-.3-1.1-.5-1.7-.6s-1.1-.2-1.6-.2-.8,0-1.1.2c-.2.1-.4.3-.4.6s0,.4.2.5c.1.1.4.3.7.5.4.2.9.4,1.6.7.7.3,1.3.6,1.8.9s.9.7,1.2,1.1c.3.4.4,1,.4,1.7Z"/>
    <path class="st0" d="M225.5,289.6c1.3,0,2.4.5,3.3,1.6s1.2,2.6,1.2,4.6-.2,2.5-.6,3.4c-.4.9-.9,1.6-1.6,2.1-.7.5-1.5.7-2.4.7s-1.1,0-1.5-.2c-.4-.1-.8-.3-1.1-.6-.3-.2-.5-.5-.8-.7h-.2c0,.3,0,.6.1.9,0,.3,0,.6,0,.9v4.8h-3.2v-17.1h2.6l.5,1.5h.1c.2-.3.5-.6.8-.9.3-.3.7-.5,1.1-.6.4-.2.9-.2,1.5-.2ZM224.5,292.2c-.6,0-1,.1-1.4.4-.3.2-.6.6-.7,1.1-.2.5-.2,1.1-.3,1.8v.4c0,.8,0,1.4.2,1.9.1.5.4.9.7,1.2.3.3.8.4,1.4.4s.9-.1,1.2-.4c.3-.3.6-.7.7-1.2.2-.5.2-1.2.2-2,0-1.2-.2-2-.5-2.6-.4-.6-.9-.9-1.7-.9Z"/>
    <path class="st0" d="M234.3,285.2c.5,0,.9.1,1.2.3.3.2.5.6.5,1.3s-.2,1-.5,1.3c-.3.2-.8.3-1.2.3s-.9-.1-1.3-.3c-.3-.2-.5-.6-.5-1.3s.2-1,.5-1.3c.3-.2.8-.3,1.3-.3ZM235.9,289.9v11.9h-3.2v-11.9h3.2Z"/>
    <path class="st0" d="M244.2,302c-1.2,0-2.2-.2-3-.6-.8-.4-1.5-1.1-1.9-2-.4-.9-.6-2.1-.6-3.5s.2-2.6.7-3.6c.5-.9,1.2-1.6,2.1-2,.9-.4,1.9-.6,3.1-.6s1.5,0,2.1.2c.6.2,1.1.4,1.6.6l-1,2.5c-.5-.2-1-.4-1.4-.5-.4-.1-.9-.2-1.3-.2s-1,.1-1.4.4c-.4.3-.7.7-.8,1.2-.2.5-.3,1.2-.3,2s0,1.4.3,2,.5.9.9,1.2c.4.3.8.4,1.4.4s1.3,0,1.8-.3c.5-.2,1-.4,1.5-.8v2.8c-.5.3-1,.5-1.6.7-.5.1-1.2.2-2.1.2Z"/>
    <path class="st0" d="M252.2,285.2c.5,0,.9.1,1.2.3.3.2.5.6.5,1.3s-.2,1-.5,1.3c-.3.2-.8.3-1.2.3s-.9-.1-1.3-.3c-.3-.2-.5-.6-.5-1.3s.2-1,.5-1.3c.3-.2.8-.3,1.3-.3ZM253.8,289.9v11.9h-3.2v-11.9h3.2Z"/>
    <path class="st0" d="M268,295.8c0,1-.1,1.9-.4,2.6-.3.8-.7,1.4-1.2,1.9-.5.5-1.1.9-1.8,1.2-.7.3-1.5.4-2.4.4s-1.6-.1-2.3-.4c-.7-.3-1.3-.7-1.8-1.2-.5-.5-.9-1.2-1.2-1.9-.3-.8-.4-1.6-.4-2.6s.2-2.4.7-3.4,1.1-1.6,2-2.1,1.9-.7,3.1-.7,2.1.2,3,.7,1.5,1.2,2,2.1.7,2,.7,3.4ZM259.8,295.8c0,.8,0,1.4.3,2,.2.5.4.9.8,1.2s.8.4,1.4.4,1-.1,1.4-.4c.4-.3.6-.7.8-1.2.2-.5.2-1.2.2-2s0-1.4-.2-2c-.2-.5-.4-.9-.8-1.2-.4-.3-.8-.4-1.4-.4-.9,0-1.5.3-1.9.9-.4.6-.6,1.5-.6,2.7Z"/>
    <path class="st0" d="M281.6,289.9v11.9h-2.5l-.4-1.5h-.2c-.3.4-.6.7-1,1-.4.3-.8.4-1.3.6-.5.1-.9.2-1.4.2-.9,0-1.6-.2-2.2-.5-.6-.3-1.1-.8-1.5-1.4-.4-.6-.5-1.5-.5-2.5v-7.8h3.2v7c0,.9.2,1.5.5,1.9.3.4.8.6,1.5.6s1.2-.2,1.6-.5.6-.7.8-1.3.2-1.3.2-2.1v-5.6h3.2Z"/>
    <path class="st0" d="M293.4,298.2c0,.8-.2,1.5-.6,2.1s-.9,1-1.7,1.3c-.8.3-1.7.4-2.8.4s-1.5,0-2.1-.2c-.6-.1-1.2-.3-1.8-.5v-2.7c.6.3,1.3.5,2.1.7.7.2,1.4.3,2,.3s1.1,0,1.4-.3c.3-.2.4-.4.4-.7s0-.4-.2-.5c-.1-.2-.3-.3-.7-.5-.4-.2-.9-.5-1.7-.8-.7-.3-1.4-.6-1.8-.9-.5-.3-.8-.7-1.1-1.1-.2-.4-.3-1-.3-1.7,0-1.1.4-1.9,1.3-2.5.9-.6,2-.8,3.4-.8s1.4,0,2.1.2c.7.1,1.4.4,2.1.7l-1,2.3c-.6-.3-1.1-.5-1.7-.6-.5-.2-1.1-.2-1.6-.2s-.8,0-1.1.2c-.2.1-.4.3-.4.6s0,.4.2.5c.1.1.4.3.7.5.4.2.9.4,1.6.7.7.3,1.3.6,1.8.9s.9.7,1.2,1.1c.3.4.4,1,.4,1.7Z"/>
  </g>
  <path class="st0" d="M263.8,175.4c-1.6,2.6-3.6,4.9-5.5,7.4-.1.2-.3.3-.6.4,5.4-8.4,7.7-17.6,7-27.5-.7-9.8-3.8-18.7-9.6-26.9v-10.6h0c.6.6,1.1,1.1,1.6,1.7,6.1,7.1,10.4,15.1,12.3,24.3,2.3,11,.7,21.5-5.2,31.2Z"/>
  <path class="st0" d="M255.2,118.2v10.6s0,0,0-.1c-6.1,8-9.5,16.8-10.1,26.7-.6,9.9,1.6,19.1,6.9,27.5-.2-.1-.3-.2-.4-.3-5.5-6-9.3-12.9-10.8-20.9-2.2-11.5-.3-22.3,5.7-32.4,2.3-3.8,5-7.2,8.1-10.4.2-.2.4-.4.7-.6Z"/>
  <path class="st1" d="M305.2,139.5c-.3,7.7-2,15.1-5.4,22-1.8,3.9-4.2,7.4-7,10.5h0c-.2.2-.4.4-.6.6-.6.6-1.2,1.2-1.8,1.8-.2.2-.4.4-.6.6-3.3.3-6.5,1.1-9.5,2.1.5-.4,1-.8,1.4-1.3.9-.8,1.8-1.7,2.6-2.6.3-.4.7-.7,1-1.1,6.7-7.5,11.2-17,12.1-25.9-10,1.1-19.2,5.6-26.8,12.2.2-2.1.1-4.3.3-6.4,0-.4.2-.9.5-1.2,9.1-8.4,20.7-11.9,32.9-12.1.6,0,.8.2.8.8Z"/>
  <path class="st1" d="M314.2,164c-4.8-1.1-9.4-1.2-14.3-.8.9-1.7,1.6-3.2,2.3-4.9.2-.5.4-.7.9-.7,5.1.1,9.6,1.6,13.6,4.9.2.2.4.6.3.9-.7,4.9-2.6,9.3-5.9,13.1-.2.2-.6.4-.8.3-1.5-.6-2.9-1.3-4.4-1.9,0,0-.1-.1-.2-.2,3.6-2.9,6.4-6.4,8.5-10.7Z"/>
  <path class="st1" d="M280.9,142.9c.4-4.3.1-8.4-1.2-12.5-.4-1.1-.4-1.2-1.4-.5-3.7,2.4-6.7,5.5-9.6,8.8-.7-1.7-1.2-3.4-1.9-5.1-.2-.4-.2-.7.1-1,3.6-3.4,7.8-5.6,12.7-6.1.5,0,.9,0,1.3.4,2.9,3.9,4.6,8.2,5.1,13,0,.8-.2,1.2-1,1.4-1.4.4-2.7,1-4.1,1.5Z"/>
  <path class="st1" d="M229.3,143.7c-1.8-.8-3.6-1.5-5.2-2.3-.2,0-.3-.5-.3-.7.1-5,1.6-9.6,4.9-13.5.2-.3.7-.5,1-.4,4.9.7,9.3,2.6,13.1,5.9.2.2.3.6.2.9-.6,1.5-1.3,2.9-2,4.5-2.9-3.6-6.3-6.4-10.7-8.5-1.2,4.7-1.2,9.4-.9,14.1Z"/>
  <path class="st1" d="M209.3,162.4c-4.7-.5-9.1.1-13.6,1.8,2.6,4.2,6,7.4,9.7,10.4-1.7.8-3.4,1.3-5.1,2.1-.4.2-.7.2-1-.2-3.5-3.5-5.7-7.7-6.4-12.7,0-.6.1-1,.6-1.3,3.8-2.9,8.1-4.7,12.9-5.2.6,0,.9,0,1.2.7.5,1.4,1.1,2.8,1.7,4.4Z"/>
  <path class="st1" d="M218.7,184.6c0-3.1,2.4-5.6,5.6-5.6,2.8,0,5.3,2.5,5.3,5.4,0,3-2.4,5.5-5.4,5.6-3.1,0-5.5-2.3-5.5-5.4Z"/>
  <path class="st1" d="M288.9,179.1c3.1,0,5.5,2.4,5.5,5.5,0,3-2.5,5.4-5.5,5.4-3,0-5.5-2.5-5.4-5.5,0-3,2.5-5.4,5.5-5.4Z"/>
  <path class="st1" d="M254.5,149c2.9,0,5.2,2.2,5.2,5,0,2.8-2.2,5.1-5,5.2-3,0-5.4-2.3-5.3-5.2,0-2.8,2.3-5.1,5.2-5.1Z"/>
  <path class="st1" d="M223.8,171.9c.3.3.5.6.8.9-3.2-.4-5.7-.3-7.2-.1-.2-.2-.4-.5-.6-.7-7.3-8.7-11.6-20.1-11.6-31.9,0-1.1,0-1.1,1.1-1.1,10.4.6,19.9,3.6,28.5,9.5,1.2.8,2.3,1.7,3.4,2.6.3.3.5.8.6,1.2.2,2.2.3,4.5.5,7-7.7-6.8-16.5-11.1-26.7-12.8,1.1,9.5,5.1,18.4,11.2,25.5Z"/>
  <path class="st0" d="M250.2,189.7c-.5.4-1.3,1-2.1,1.5-3,1.8-7.6,4-11.6,5.1-18.2,5.1-37.8-1.2-50.3-15.1,0,0,0-.2,0-.3.9,0,1.8-.2,2.7-.2,5.6-.2,10.6-2.2,15.6-4.6,2.3-1.1,4.7-1.9,7.2-2.5.2,0,.3,0,.5-.1.3,0,.5-.1.7-.2,0,0,0,0,0,0,.1,0,.2,0,.3,0,1.2-.2,2.5-.4,2.8-.5,0,0,.1,0,.1,0,0,0,.4,0,1.2-.2,1.4-.1,3.9-.3,7.2.1,6.8.8,16.6,4,24.9,14.2v.4s-9.3-8.1-21.6-11.3c-1.5-.4-3-.7-4.5-.9h0c0,0-.2,0-.3,0-3.2-.3-6.3.3-7.4.6-5.4,2.2-10.1,5.3-14.7,9,4.6,3.6,9.7,6.2,15.1,7.8,0,0,.1,0,.2,0h0c.1,0,.2,0,.3,0,6.6,1.9,13.6,2.2,20.4,1.1h0c3.6-.6,7.1-1.7,10.6-3.1.9-.4,1.7-.8,2.6-1.2,0,0,0,.2.1.3Z"/>
  <path class="st0" d="M325.3,181.2c-12.5,13.9-32.1,20.2-50.3,15.1-4-1.1-8.7-3.2-11.6-5.1-.9-.5-1.6-1.1-2.1-1.5,0,0,0-.2.1-.3.9.4,1.7.8,2.6,1.2,3.4,1.5,7,2.5,10.6,3.1h0c6.8,1.2,13.8.8,20.4-1,.1,0,.2,0,.3,0h0c0,0,.1,0,.2,0,5.4-1.6,10.5-4.2,15.1-7.8-4.8-3.9-9.7-7.2-15.4-9.3,0,0-.1,0-.2,0-1.6-.6-4.4-.5-5.6-.4-3.1.3-6,1.1-8.8,2-7.8,2.6-14,6.9-16.8,9-.3.2-.5.4-.7.5-.7.5-1,.8-1,.8v-.4c.1-.1.3-.3.4-.4,0-.1.2-.2.2-.3,7.2-8.6,15.5-12,22-13.2,3.2-.6,5.9-.7,7.8-.6,1.8,0,2.9.3,2.9.3,0,0,0,0,.1,0,.4,0,1.6.2,2.8.5.1,0,.2,0,.3,0,0,0,0,0,0,0,.3,0,.5.1.7.2.2,0,.3,0,.5.1,2.5.6,4.9,1.3,7.2,2.5,4.9,2.4,10,4.4,15.6,4.6.9,0,1.8.2,2.7.2,0,0,0,.2,0,.3Z"/>
</svg>