<?xml version="1.0" encoding="UTF-8"?>
<svg xmlns="http://www.w3.org/2000/svg" version="1.1" viewBox="0 0 595.3 451.5">
  <!-- Generator: Adobe Illustrator 29.0.0, SVG Export Plug-In . SVG Version: 2.1.0 Build 186)  -->
  <defs>
    <style>
      .st0 {
        fill: #fff;
      }

      .st1 {
        font-family: SegoeUI-Light, 'Segoe UI';
        font-size: 15.1px;
        font-weight: 300;
      }

      .st1, .st2 {
        fill: #636466;
      }

      .st3 {
        display: none;
      }

      .st4 {
        fill: #4d4d4f;
        font-family: SegoeUI, 'Segoe UI';
        font-size: 18.6px;
      }

      .st5 {
        fill: #f26522;
      }
    </style>
  </defs>
  <g id="Layer_1" class="st3">
    <path class="st0" d="M195.1,405.9h-32.6v-17.8h92.1v17.8h-32.6v100.9h-27v-100.9Z"/>
    <path class="st0" d="M290.6,506.8v-8.9c-.7,1.5-2.9,3.4-6.7,5.7-3.8,2.3-10.2,3.4-19.3,3.4-7.8-.3-14.2-2.3-19.3-6-5.1-3.7-7.8-9.5-7.9-17.5,0-8.5,3.1-14.9,9.2-19.2,6.1-4.3,15.3-6.9,27.5-7.8,5.6-.5,10-1.9,13-4.3,3-2.4,4.6-5.2,4.6-8.2s-1.4-5.7-4.2-7.9c-2.8-2.2-6.6-3.3-11.3-3.3-9.8,0-17.5,1.8-22.9,5.4-5.5,3.6-9,6.7-10.7,9.1l3.5-16.8c0-.3,1.3-1.2,3.9-2.7,2.6-1.5,6.2-2.9,10.8-4.2,4.6-1.3,10.2-2,16.6-2,13.1,0,22.6,2.2,28.4,6.7,5.8,4.5,8.8,10.3,8.8,17.5v60.9h-23.9ZM278.9,493.5c7.8-2.1,11.7-5.5,11.7-10.2v-19.3c0,.1-.3.7-.9,1.8-.5,1.1-1.8,2.1-3.7,3.1-1.9,1-4.8,1.8-8.7,2.2-6.6.9-11.7,2.4-15.2,4.4-3.5,2.1-5.2,5.6-5.2,10.5.5,5.8,5.1,8.6,13.8,8.6s5.3-.4,8.1-1.2Z"/>
    <path class="st0" d="M390.5,503.2c0,.3-2.4,1-7.2,2-4.8,1-10.9,1.6-18.3,1.8-10.4,0-18.6-1.5-24.6-4.4-6.1-2.9-10.4-7.6-13.1-14.2-2.7-6.6-4-15.6-4-27,.3-9.1,1.8-16.6,4.4-22.4,2.6-5.8,6.7-10.1,12.4-13,5.7-2.9,13.2-4.3,22.7-4.3,6,.1,11.4.6,16.2,1.6,4.8.9,8.2,1.7,10.3,2.2l2.5,12.2c-1.5-.8-4.4-1.8-8.5-2.9-4.1-1.2-9.3-1.8-15.5-1.9-8.2,0-13.6,2.7-16.3,8.1-2.7,5.4-4,12.2-4,20.5s1.1,18,3.3,24.3c2.2,6.2,6.8,9.6,13.7,10.1,5.5,0,10.3-.5,14.2-1.4,4-1,7.2-2,9.6-3.1,2.4-1.1,3.6-1.8,3.6-2.1l-1.5,14.1Z"/>
    <path class="st0" d="M435,432.7v49.2c0,4.9,1.5,8.4,4.4,10.4,2.1,1.7,6,2.5,11.7,2.5v12c-.5,0-1.4,0-2.7.1-1.3,0-2.8.1-4.5.1-10.9,0-18.9-1.9-23.9-5.6-6-4.1-9-10.9-9-20.6v-48.1h-16v-10.7h16v-33.9h23.9v33.9h16.1v10.7h-16.1Z"/>
    <polygon class="st0" points="350.6 402.6 386.3 362.5 350.5 322.5 442.1 362.4 350.6 402.6"/>
    <polygon class="st0" points="272.6 528.6 308.3 488.5 272.5 448.5 364.1 488.4 272.6 528.6"/>
  </g>
  <g id="Layer_2" class="st3">
    <text class="st1" transform="translate(233.7 552.8) scale(1.2 1)"><tspan x="0" y="0">We design your thoughts</tspan></text>
  </g>
  <g id="Layer_3">
    <path class="st2" d="M180.2,196.1h-32.6v-17.8h92.1v17.8h-32.6v100.9h-27v-100.9Z"/>
    <path class="st2" d="M275.7,296.9v-8.9c-.7,1.5-2.9,3.4-6.7,5.7-3.8,2.3-10.2,3.4-19.3,3.4-7.8-.3-14.2-2.3-19.3-6-5.1-3.7-7.8-9.5-7.9-17.5,0-8.5,3.1-14.9,9.2-19.2,6.1-4.3,15.3-6.9,27.5-7.8,5.6-.5,10-1.9,13-4.3,3-2.4,4.6-5.2,4.6-8.2s-1.4-5.7-4.2-7.9c-2.8-2.2-6.6-3.3-11.3-3.3-9.8,0-17.5,1.8-22.9,5.4-5.5,3.6-9,6.7-10.7,9.1l3.5-16.8c0-.3,1.3-1.2,3.9-2.7,2.6-1.5,6.2-2.9,10.8-4.2,4.6-1.3,10.2-2,16.6-2,13.1,0,22.6,2.2,28.4,6.7,5.8,4.5,8.8,10.3,8.8,17.5v60.9h-23.9ZM264,283.7c7.8-2.1,11.7-5.5,11.7-10.2v-19.3c0,.1-.3.7-.9,1.8-.5,1.1-1.8,2.1-3.7,3.1-1.9,1-4.8,1.8-8.7,2.2-6.6.9-11.7,2.4-15.2,4.4-3.5,2.1-5.2,5.6-5.2,10.5.5,5.8,5.1,8.6,13.8,8.6s5.3-.4,8.1-1.2Z"/>
    <path class="st2" d="M375.5,293.4c0,.3-2.4,1-7.2,2-4.8,1-10.9,1.6-18.3,1.8-10.4,0-18.6-1.5-24.6-4.4-6.1-2.9-10.4-7.6-13.1-14.2-2.7-6.6-4-15.6-4-27,.3-9.1,1.8-16.6,4.4-22.4,2.6-5.8,6.7-10.1,12.4-13,5.7-2.9,13.2-4.3,22.7-4.3,6,.1,11.4.6,16.2,1.6,4.8.9,8.2,1.7,10.3,2.2l2.5,12.2c-1.5-.8-4.3-1.8-8.5-2.9-4.1-1.2-9.3-1.8-15.5-1.9-8.2,0-13.6,2.7-16.3,8.1-2.7,5.4-4,12.2-4,20.5s1.1,18,3.3,24.3c2.2,6.2,6.8,9.6,13.7,10.1,5.5,0,10.3-.5,14.2-1.4,4-1,7.2-2,9.6-3.1,2.4-1.1,3.6-1.8,3.6-2.1l-1.5,14.1Z"/>
    <polygon class="st5" points="335.7 192.7 371.4 152.6 335.6 112.6 427.2 152.6 335.7 192.7"/>
    <path class="st2" d="M420.1,222.8v49.2c0,4.9,1.5,8.4,4.4,10.4,2.1,1.7,6,2.5,11.7,2.5v12c-.5,0-1.4,0-2.7.1-1.3,0-2.8.1-4.5.1-10.9,0-18.9-1.9-23.9-5.6-6-4.1-9-10.9-9-20.6v-48.1h-16v-10.7h16v-33.9h23.9v33.9h16.1v10.7h-16.1Z"/>
    <text class="st4" transform="translate(191.6 330.6) scale(1.2 1)"><tspan x="0" y="0">We design your thoughts</tspan></text>
  </g>
</svg>